<svg width="72" height="72" viewBox="0 0 72 72" fill="none" xmlns="http://www.w3.org/2000/svg">
<rect width="72" height="72" rx="36" fill="white"/>
<path d="M40.2498 34.5834C40.2498 34.9591 40.1005 35.3195 39.8348 35.5851C39.5692 35.8508 39.2088 36.0001 38.8331 36.0001H33.1664C32.7907 36.0001 32.4303 35.8508 32.1647 35.5851C31.899 35.3195 31.7497 34.9591 31.7497 34.5834C31.7497 34.2077 31.899 33.8473 32.1647 33.5817C32.4303 33.316 32.7907 33.1667 33.1664 33.1667H38.8331C39.2088 33.1667 39.5692 33.316 39.8348 33.5817C40.1005 33.8473 40.2498 34.2077 40.2498 34.5834ZM54.4165 27.5V50.1668C54.4165 50.9183 54.118 51.6389 53.5866 52.1703C53.0553 52.7016 52.3346 53.0002 51.5832 53.0002H20.4164C19.6649 53.0002 18.9442 52.7016 18.4129 52.1703C17.8815 51.6389 17.583 50.9183 17.583 50.1668V27.5C17.583 26.7486 17.8815 26.0279 18.4129 25.4966C18.9442 24.9652 19.6649 24.6667 20.4164 24.6667H27.4997V23.25C27.4997 22.1228 27.9475 21.0418 28.7445 20.2448C29.5416 19.4478 30.6226 19 31.7497 19H40.2498C41.377 19 42.458 19.4478 43.255 20.2448C44.052 21.0418 44.4998 22.1228 44.4998 23.25V24.6667H51.5832C52.3346 24.6667 53.0553 24.9652 53.5866 25.4966C54.118 26.0279 54.4165 26.7486 54.4165 27.5ZM30.3331 24.6667H41.6664V23.25C41.6664 22.8743 41.5172 22.514 41.2515 22.2483C40.9858 21.9826 40.6255 21.8333 40.2498 21.8333H31.7497C31.374 21.8333 31.0137 21.9826 30.748 22.2483C30.4823 22.514 30.3331 22.8743 30.3331 23.25V24.6667ZM51.5832 34.8685V27.5H20.4164V34.8685C25.198 37.4713 30.5556 38.8344 35.9998 38.8334C41.4439 38.8344 46.8015 37.4713 51.5832 34.8685Z" fill="#054F3E"/>
<path d="M33.542 50.1303C33.3446 50.1303 33.2064 50.0869 33.1274 50C33.0563 49.921 33.0208 49.7868 33.0208 49.5972V42.3711C33.0208 42.1736 33.0603 42.0394 33.1392 41.9683C33.2182 41.8893 33.3564 41.8498 33.5538 41.8498C33.7434 41.8498 33.8737 41.8933 33.9448 41.9802C34.0237 42.0591 34.0632 42.1973 34.0632 42.3948V49.6091C34.0632 49.7986 34.0237 49.9329 33.9448 50.0118C33.8737 50.0908 33.7394 50.1303 33.542 50.1303ZM31.4097 44.8232C31.2596 44.9496 31.1333 45.0128 31.0306 45.0128C30.9279 45.0049 30.8134 44.9298 30.6871 44.7877C30.5607 44.6455 30.5015 44.5192 30.5094 44.4086C30.5173 44.2902 30.6002 44.1638 30.7582 44.0295L33.0445 42.0394C33.1787 41.913 33.3011 41.8577 33.4117 41.8735C33.5223 41.8814 33.6407 41.9525 33.7671 42.0868C33.8934 42.221 33.9527 42.3474 33.9448 42.4658C33.9369 42.5764 33.85 42.7028 33.6842 42.8449L31.4097 44.8232ZM38.1573 50.1777C37.7387 50.1777 37.3636 50.1106 37.0319 49.9763C36.7081 49.8421 36.4277 49.6525 36.1908 49.4077C35.9539 49.155 35.7604 48.8549 35.6104 48.5074C35.4603 48.152 35.3497 47.7611 35.2787 47.3346C35.2076 46.9082 35.172 46.4501 35.172 45.9605C35.172 45.4866 35.2076 45.0404 35.2787 44.6218C35.3497 44.1954 35.4603 43.8084 35.6104 43.4609C35.7604 43.1134 35.9499 42.8133 36.179 42.5606C36.4159 42.3 36.6963 42.1026 37.02 41.9683C37.3517 41.8262 37.7229 41.7551 38.1336 41.7551C38.5443 41.7551 38.9075 41.8262 39.2234 41.9683C39.5472 42.1026 39.8236 42.3 40.0527 42.5606C40.2817 42.8133 40.4712 43.1134 40.6213 43.4609C40.7713 43.8084 40.8819 44.1954 40.953 44.6218C41.024 45.0483 41.0596 45.4985 41.0596 45.9723C41.0596 46.4541 41.024 46.9082 40.953 47.3346C40.8819 47.7611 40.7713 48.1481 40.6213 48.4955C40.4712 48.843 40.2817 49.1431 40.0527 49.3958C39.8236 49.6486 39.5512 49.8421 39.2353 49.9763C38.9273 50.1106 38.5679 50.1777 38.1573 50.1777ZM38.1099 49.0997C38.4811 49.0997 38.7851 49.0207 39.022 48.8628C39.259 48.6969 39.4446 48.4876 39.5788 48.2349C39.7131 47.9822 39.8078 47.7176 39.8631 47.4412C39.9263 47.1569 39.9618 46.8884 39.9697 46.6357C39.9855 46.383 39.9934 46.1816 39.9934 46.0315V45.9605C39.9934 45.2971 39.9224 44.7324 39.7802 44.2665C39.6459 43.7926 39.4406 43.4333 39.1642 43.1885C38.8878 42.9436 38.5403 42.8212 38.1217 42.8212C37.7032 42.8212 37.3517 42.9436 37.0674 43.1885C36.791 43.4333 36.5817 43.7887 36.4396 44.2546C36.3053 44.7206 36.2382 45.2931 36.2382 45.9723C36.2382 46.6357 36.3053 47.2004 36.4396 47.6663C36.5817 48.1323 36.791 48.4876 37.0674 48.7325C37.3517 48.9773 37.6992 49.0997 38.1099 49.0997Z" fill="white"/>
</svg>
