<svg width="72" height="72" viewBox="0 0 72 72" fill="none" xmlns="http://www.w3.org/2000/svg">
<rect width="72" height="72" rx="36" fill="white"/>
<path d="M40.2498 34.5834C40.2498 34.9591 40.1005 35.3195 39.8348 35.5851C39.5692 35.8508 39.2088 36.0001 38.8331 36.0001H33.1664C32.7907 36.0001 32.4303 35.8508 32.1647 35.5851C31.899 35.3195 31.7497 34.9591 31.7497 34.5834C31.7497 34.2077 31.899 33.8473 32.1647 33.5817C32.4303 33.316 32.7907 33.1667 33.1664 33.1667H38.8331C39.2088 33.1667 39.5692 33.316 39.8348 33.5817C40.1005 33.8473 40.2498 34.2077 40.2498 34.5834ZM54.4165 27.5V50.1668C54.4165 50.9183 54.118 51.6389 53.5866 52.1703C53.0553 52.7016 52.3346 53.0002 51.5832 53.0002H20.4164C19.6649 53.0002 18.9442 52.7016 18.4129 52.1703C17.8815 51.6389 17.583 50.9183 17.583 50.1668V27.5C17.583 26.7486 17.8815 26.0279 18.4129 25.4966C18.9442 24.9652 19.6649 24.6667 20.4164 24.6667H27.4997V23.25C27.4997 22.1228 27.9475 21.0418 28.7445 20.2448C29.5416 19.4478 30.6226 19 31.7497 19H40.2498C41.3769 19 42.458 19.4478 43.255 20.2448C44.052 21.0418 44.4998 22.1228 44.4998 23.25V24.6667H51.5832C52.3346 24.6667 53.0553 24.9652 53.5866 25.4966C54.118 26.0279 54.4165 26.7486 54.4165 27.5ZM30.3331 24.6667H41.6664V23.25C41.6664 22.8743 41.5172 22.514 41.2515 22.2483C40.9858 21.9826 40.6255 21.8333 40.2498 21.8333H31.7497C31.374 21.8333 31.0137 21.9826 30.748 22.2483C30.4823 22.514 30.3331 22.8743 30.3331 23.25V24.6667ZM51.5832 34.8685V27.5H20.4164V34.8685C25.198 37.4713 30.5556 38.8344 35.9998 38.8334C41.4439 38.8344 46.8015 37.4713 51.5832 34.8685Z" fill="#054F3E"/>
<path d="M35.9971 50.1777C35.7207 50.1777 35.4719 50.154 35.2508 50.1066C35.0375 50.0671 34.8401 50.0118 34.6585 49.9408C34.4847 49.8697 34.3228 49.7907 34.1728 49.7038C34.0306 49.617 33.9003 49.5301 33.7818 49.4432C33.7029 49.3722 33.6357 49.309 33.5805 49.2537C33.5331 49.1984 33.5094 49.1313 33.5094 49.0523C33.5094 48.997 33.5212 48.9378 33.5449 48.8746C33.5765 48.8114 33.6278 48.7364 33.6989 48.6495C33.77 48.5548 33.8371 48.4916 33.9003 48.46C33.9714 48.4205 34.0346 48.4008 34.0898 48.4008C34.1372 48.4008 34.1925 48.4126 34.2557 48.4363C34.3189 48.46 34.4018 48.5192 34.5045 48.614C34.5992 48.6851 34.7019 48.7601 34.8125 48.8391C34.9309 48.9181 35.077 48.9812 35.2508 49.0286C35.4245 49.076 35.6456 49.0997 35.9142 49.0997C36.2301 49.0997 36.5065 49.0365 36.7434 48.9102C36.9882 48.7838 37.1777 48.6022 37.312 48.3652C37.4463 48.1283 37.5134 47.8479 37.5134 47.5242C37.5134 47.2083 37.4423 46.9318 37.3002 46.6949C37.1659 46.458 36.9803 46.2724 36.7434 46.1382C36.5065 45.996 36.2458 45.9249 35.9615 45.9249C35.8194 45.9249 35.6851 45.9407 35.5588 45.9723C35.4324 46.0039 35.3139 46.0513 35.2034 46.1145C35.1007 46.1697 35.0099 46.2369 34.9309 46.3158C34.8756 46.3711 34.8243 46.4146 34.7769 46.4462C34.7374 46.4698 34.6861 46.4896 34.6229 46.5054C34.5518 46.5291 34.4808 46.537 34.4097 46.5291C34.3386 46.5133 34.2399 46.4817 34.1135 46.4343C33.9714 46.3711 33.8687 46.3119 33.8055 46.2566C33.7424 46.2013 33.7108 46.1224 33.7108 46.0197L34.2202 42.3948C34.2359 42.3079 34.2557 42.225 34.2794 42.146C34.3031 42.0591 34.3505 41.9881 34.4215 41.9328C34.5005 41.8696 34.6111 41.838 34.7532 41.838L37.8332 41.8498C37.9359 41.8498 38.0228 41.8617 38.0938 41.8854C38.1728 41.9091 38.2321 41.9604 38.2715 42.0394C38.311 42.1184 38.3308 42.2368 38.3308 42.3948C38.3308 42.5369 38.311 42.6435 38.2715 42.7146C38.2321 42.7857 38.1768 42.8331 38.1057 42.8568C38.0346 42.8805 37.9477 42.8923 37.8451 42.8923H35.2271L34.8954 45.226C34.9902 45.147 35.0968 45.0838 35.2152 45.0365C35.3416 44.9891 35.4679 44.9496 35.5943 44.918C35.7207 44.8864 35.8431 44.8706 35.9615 44.8706H36.0445C36.3841 44.8706 36.7039 44.9377 37.004 45.072C37.312 45.2063 37.5805 45.3918 37.8095 45.6288C38.0465 45.8657 38.236 46.1382 38.3782 46.4462C38.5203 46.7542 38.5914 47.0819 38.5914 47.4294C38.5914 47.9664 38.4769 48.4403 38.2478 48.8509C38.0188 49.2616 37.7069 49.5854 37.312 49.8223C36.925 50.0592 36.4867 50.1777 35.9971 50.1777Z" fill="white"/>
</svg>
