<svg width="633" height="477" viewBox="0 0 633 477" fill="none" xmlns="http://www.w3.org/2000/svg">
<g filter="url(#filter0_d_29_10616)">
<rect y="0.166016" width="609" height="129.379" rx="13.13" fill="url(#paint0_linear_29_10616)"/>
<g clip-path="url(#clip0_29_10616)">
<rect x="4.68945" y="4.85522" width="599.621" height="120" rx="11.88" fill="url(#paint1_linear_29_10616)"/>
<path d="M46.947 32.5702C50.172 32.5702 52.537 34.9352 52.537 38.1602C52.537 41.3852 50.172 43.7502 46.947 43.7502C43.722 43.7502 41.357 41.3852 41.357 38.1602C41.357 34.9352 43.722 32.5702 46.947 32.5702ZM90.5415 24.1852C96.9915 24.1852 100.56 26.9372 100.56 31.8392C100.56 35.1932 98.6685 37.6012 95.4005 38.3322V38.4182C99.3135 39.0202 101.463 41.5142 101.463 45.5562C101.463 51.1892 97.5075 54.5002 90.7135 54.5002C83.6185 54.5002 79.7055 51.1462 79.7055 44.9972H86.4995C86.6715 47.3192 88.1335 48.5232 90.7565 48.5232C93.3795 48.5232 94.7125 47.2762 94.7125 44.8682C94.7125 42.2882 93.1645 41.3852 88.9075 41.3852H87.9185V36.4832H88.9075C92.0895 36.4832 93.5085 35.4512 93.5085 33.0862C93.5085 31.1942 92.3475 30.1622 90.2835 30.1622C88.1765 30.1622 86.8865 31.2372 86.8435 33.0432H80.1785C80.2215 27.4102 83.9625 24.1852 90.5415 24.1852ZM115.867 24.1852C123.564 24.1852 127.864 29.6462 127.864 39.3212C127.864 48.9962 123.521 54.5002 115.867 54.5002C108.256 54.5002 103.87 48.9962 103.87 39.3212C103.87 29.6462 108.213 24.1852 115.867 24.1852ZM115.867 30.3342C112.556 30.3342 110.621 33.6022 110.621 39.3212C110.621 45.0402 112.556 48.3512 115.867 48.3512C119.221 48.3512 121.156 45.0402 121.156 39.3212C121.156 33.6022 119.221 30.3342 115.867 30.3342ZM138.489 24.1852C142.531 24.1852 145.541 26.9372 145.541 31.2802C145.541 35.5802 142.531 38.3322 138.489 38.3322C134.404 38.3322 131.394 35.5802 131.394 31.2802C131.394 26.9372 134.404 24.1852 138.489 24.1852ZM135.995 53.8552L153.023 24.8302H156.377L139.349 53.8552H135.995ZM138.489 27.2382C136.253 27.2382 134.619 28.7862 134.619 31.2802C134.619 33.7312 136.253 35.3222 138.489 35.3222C140.682 35.3222 142.316 33.7312 142.316 31.2802C142.316 28.7862 140.682 27.2382 138.489 27.2382ZM154.141 39.9232C158.183 39.9232 161.193 42.6752 161.193 46.9752C161.193 51.3182 158.183 54.0702 154.141 54.0702C150.099 54.0702 147.046 51.3182 147.046 46.9752C147.046 42.6752 150.099 39.9232 154.141 39.9232ZM154.141 42.9332C151.948 42.9332 150.314 44.5242 150.314 46.9752C150.314 49.4692 151.948 51.0172 154.141 51.0172C156.334 51.0172 157.968 49.4692 157.968 46.9752C157.968 44.5242 156.334 42.9332 154.141 42.9332ZM189.616 54.5002C186.348 54.5002 184.155 53.0812 182.908 50.9312H182.822V53.8552H178.608V23.7552H182.822V36.9132H182.908C184.155 34.7632 186.348 33.3442 189.616 33.3442C194.862 33.3442 199.291 37.3002 199.291 43.9222C199.291 50.5442 194.862 54.5002 189.616 54.5002ZM188.713 50.3722C192.411 50.3722 194.819 47.7062 194.819 43.9222C194.819 40.1382 192.411 37.4722 188.713 37.4722C185.015 37.4722 182.607 40.1382 182.607 43.9222C182.607 47.7062 185.015 50.3722 188.713 50.3722ZM212.758 33.3442C218.993 33.3442 223.637 37.8162 223.637 43.9222C223.637 50.0282 218.993 54.5002 212.758 54.5002C206.523 54.5002 201.879 50.0282 201.879 43.9222C201.879 37.8162 206.523 33.3442 212.758 33.3442ZM212.758 37.4722C208.974 37.4722 206.351 40.0092 206.351 43.9222C206.351 47.8352 208.974 50.3722 212.758 50.3722C216.542 50.3722 219.165 47.8352 219.165 43.9222C219.165 40.0092 216.542 37.4722 212.758 37.4722ZM233.673 54.5002C230.835 54.5002 227.868 53.7262 225.589 52.3932L227.481 48.6522C229.33 49.7272 231.437 50.5442 233.802 50.5442C235.823 50.5442 236.898 49.9422 236.898 48.6952C236.898 47.8782 236.468 47.2762 234.791 46.4592L231.179 44.6962C228.169 43.2772 227.008 41.2562 227.008 38.9772C227.008 35.3222 229.717 33.3442 234.06 33.3442C236.339 33.3442 238.833 33.9462 240.94 34.8922L239.22 38.5472C237.715 37.9022 235.866 37.2572 233.931 37.2572C232.082 37.2572 231.48 37.8592 231.48 38.7622C231.48 39.7082 232.039 40.3102 233.759 41.1272L237.457 42.8902C240.037 44.0942 241.413 45.8142 241.413 48.4802C241.413 52.5222 238.317 54.5002 233.673 54.5002ZM249.296 23.7552V36.9992H249.382C250.672 34.7202 252.822 33.3442 255.875 33.3442C260.089 33.3442 263.357 35.6232 263.357 41.6432V53.8552H259.143V42.3742C259.143 38.9772 257.423 37.5582 254.585 37.5582C251.489 37.5582 249.296 39.4072 249.296 44.3522V53.8552H245.082V23.7552H249.296ZM272.728 23.7552V53.8552H268.514V23.7552H272.728ZM286.468 54.5002C281.222 54.5002 276.793 50.5442 276.793 43.9222C276.793 37.3002 281.222 33.3442 286.468 33.3442C289.736 33.3442 291.929 34.7632 293.176 36.9132H293.262V33.9892H297.476V53.8552H293.262V50.9312H293.176C291.929 53.0812 289.736 54.5002 286.468 54.5002ZM287.371 50.3722C291.069 50.3722 293.477 47.7062 293.477 43.9222C293.477 40.1382 291.069 37.4722 287.371 37.4722C283.673 37.4722 281.265 40.1382 281.265 43.9222C281.265 47.7062 283.673 50.3722 287.371 50.3722ZM313.441 33.3442C317.698 33.3442 320.923 35.6232 320.923 41.6432V53.8552H316.709V42.3742C316.709 38.9772 314.989 37.5582 312.151 37.5582C309.055 37.5582 306.862 39.4072 306.862 44.3522V53.8552H302.648V33.9892H306.862V36.9992H306.948C308.238 34.7202 310.388 33.3442 313.441 33.3442ZM335.889 63.1002C333.524 63.1002 330.686 62.6702 328.235 62.1972L329.052 58.1122C331.546 58.6712 334.04 59.0152 335.889 59.0152C339.673 59.0152 341.049 57.6822 341.049 53.2962V50.9312H340.963C339.716 53.0812 337.523 54.5002 334.255 54.5002C329.009 54.5002 324.58 50.5442 324.58 43.9222C324.58 37.3002 329.009 33.3442 334.255 33.3442C337.523 33.3442 339.716 34.7632 340.963 36.9132H341.049V33.9892H345.263V53.8552C345.048 61.6382 341.006 63.1002 335.889 63.1002ZM335.158 50.3722C338.856 50.3722 341.264 47.7062 341.264 43.9222C341.264 40.1382 338.856 37.4722 335.158 37.4722C331.46 37.4722 329.052 40.1382 329.052 43.9222C329.052 47.7062 331.46 50.3722 335.158 50.3722ZM353.122 23.1102L352.176 33.9892H350.155L349.166 23.1102H353.122ZM362.77 24.1852V29.3452H357.61V24.1852H362.77ZM358.083 53.8552V33.9892H362.297V53.8552H358.083ZM377.284 54.5002C370.877 54.5002 366.362 50.2432 366.362 43.9222C366.362 37.6012 370.877 33.3442 377.284 33.3442C379.864 33.3442 382.057 34.0322 384.078 35.3652L382.1 38.9342C380.724 38.0742 379.004 37.4292 377.155 37.4292C373.328 37.4292 370.834 40.1812 370.834 43.9222C370.834 47.6632 373.328 50.4152 377.155 50.4152C379.004 50.4152 380.724 49.7702 382.1 48.9102L384.078 52.4792C382.057 53.8122 379.864 54.5002 377.284 54.5002ZM391.734 23.7552V36.9992H391.82C393.11 34.7202 395.26 33.3442 398.313 33.3442C402.527 33.3442 405.795 35.6232 405.795 41.6432V53.8552H401.581V42.3742C401.581 38.9772 399.861 37.5582 397.023 37.5582C393.927 37.5582 391.734 39.4072 391.734 44.3522V53.8552H387.52V23.7552H391.734ZM433.055 37.5582H429.013V47.9642C429.013 49.3832 429.615 50.0282 431.077 50.0282H432.109V53.8982H430.174C426.691 53.8982 424.799 52.0492 424.799 48.7812V37.5582H421.273V33.9892H424.799V26.0342H429.013V33.9892H433.055V37.5582ZM445.227 33.3442C451.462 33.3442 456.106 37.8162 456.106 43.9222C456.106 50.0282 451.462 54.5002 445.227 54.5002C438.992 54.5002 434.348 50.0282 434.348 43.9222C434.348 37.8162 438.992 33.3442 445.227 33.3442ZM445.227 37.4722C441.443 37.4722 438.82 40.0092 438.82 43.9222C438.82 47.8352 441.443 50.3722 445.227 50.3722C449.011 50.3722 451.634 47.8352 451.634 43.9222C451.634 40.0092 449.011 37.4722 445.227 37.4722ZM462.007 23.1102L461.061 33.9892H459.04L458.051 23.1102H462.007ZM471.183 23.7552V53.8552H466.969V23.7552H471.183ZM486.127 33.3442C492.362 33.3442 497.006 37.8162 497.006 43.9222C497.006 50.0282 492.362 54.5002 486.127 54.5002C479.892 54.5002 475.248 50.0282 475.248 43.9222C475.248 37.8162 479.892 33.3442 486.127 33.3442ZM486.127 37.4722C482.343 37.4722 479.72 40.0092 479.72 43.9222C479.72 47.8352 482.343 50.3722 486.127 50.3722C489.911 50.3722 492.534 47.8352 492.534 43.9222C492.534 40.0092 489.911 37.4722 486.127 37.4722ZM512.401 33.9892H517.346L509.348 53.8552H505.392L497.437 33.9892H502.382L507.37 48.8242L512.401 33.9892ZM90.6275 83.3442C96.6905 83.3442 100.13 87.5152 100.13 93.9222V94.6102H84.7365C84.9085 98.1362 87.3595 100.458 90.7565 100.458C94.0245 100.458 95.8735 98.3082 96.8625 96.9752L99.8295 99.7702C98.3675 101.791 95.7445 104.5 90.8425 104.5C84.5215 104.5 80.4795 100.243 80.4795 93.9652C80.4795 87.9452 84.2635 83.3442 90.6275 83.3442ZM90.3695 87.2142C87.5315 87.2142 85.4675 88.6762 84.9515 91.5572H95.5725C95.4005 88.8052 93.3795 87.2142 90.3695 87.2142ZM115.491 83.9892H120.436L112.438 103.855H108.482L100.527 83.9892H105.472L110.46 98.8242L115.491 83.9892ZM130.509 104.5C125.263 104.5 120.834 100.544 120.834 93.9222C120.834 87.3002 125.263 83.3442 130.509 83.3442C133.777 83.3442 135.97 84.7632 137.217 86.9132H137.303V83.9892H141.517V103.855H137.303V100.931H137.217C135.97 103.081 133.777 104.5 130.509 104.5ZM131.412 100.372C135.11 100.372 137.518 97.7062 137.518 93.9222C137.518 90.1382 135.11 87.4722 131.412 87.4722C127.714 87.4722 125.306 90.1382 125.306 93.9222C125.306 97.7062 127.714 100.372 131.412 100.372ZM150.258 99.9422H161.782V103.855H145.184V100.157L155.977 87.9022H145.614V83.9892H161.008V87.6872L150.258 99.9422ZM170.32 74.1852V79.3452H165.16V74.1852H170.32ZM165.633 103.855V83.9892H169.847V103.855H165.633ZM185.221 113.1C182.856 113.1 180.018 112.67 177.567 112.197L178.384 108.112C180.878 108.671 183.372 109.015 185.221 109.015C189.005 109.015 190.381 107.682 190.381 103.296V100.931H190.295C189.048 103.081 186.855 104.5 183.587 104.5C178.341 104.5 173.912 100.544 173.912 93.9222C173.912 87.3002 178.341 83.3442 183.587 83.3442C186.855 83.3442 189.048 84.7632 190.295 86.9132H190.381V83.9892H194.595V103.855C194.38 111.638 190.338 113.1 185.221 113.1ZM184.49 100.372C188.188 100.372 190.596 97.7062 190.596 93.9222C190.596 90.1382 188.188 87.4722 184.49 87.4722C180.792 87.4722 178.384 90.1382 178.384 93.9222C178.384 97.7062 180.792 100.372 184.49 100.372ZM208.153 104.5C202.907 104.5 198.478 100.544 198.478 93.9222C198.478 87.3002 202.907 83.3442 208.153 83.3442C211.421 83.3442 213.614 84.7632 214.861 86.9132H214.947V83.9892H219.161V103.855H214.947V100.931H214.861C213.614 103.081 211.421 104.5 208.153 104.5ZM209.056 100.372C212.754 100.372 215.162 97.7062 215.162 93.9222C215.162 90.1382 212.754 87.4722 209.056 87.4722C205.358 87.4722 202.95 90.1382 202.95 93.9222C202.95 97.7062 205.358 100.372 209.056 100.372ZM249.877 103.855L244.846 96.7172L239.815 103.855H234.44L242.309 93.4062L235.558 83.9892H240.976L244.846 90.1812L248.716 83.9892H254.134L247.383 93.4062L255.252 103.855H249.877ZM266.13 83.3442C272.365 83.3442 277.009 87.8162 277.009 93.9222C277.009 100.028 272.365 104.5 266.13 104.5C259.895 104.5 255.251 100.028 255.251 93.9222C255.251 87.8162 259.895 83.3442 266.13 83.3442ZM266.13 87.4722C262.346 87.4722 259.723 90.0092 259.723 93.9222C259.723 97.8352 262.346 100.372 266.13 100.372C269.914 100.372 272.537 97.8352 272.537 93.9222C272.537 90.0092 269.914 87.4722 266.13 87.4722ZM291.689 83.3442C295.946 83.3442 299.171 85.6232 299.171 91.6432V103.855H294.957V92.3742C294.957 88.9772 293.237 87.5582 290.399 87.5582C287.303 87.5582 285.11 89.4072 285.11 94.3522V103.855H280.896V83.9892H285.11V86.9992H285.196C286.486 84.7202 288.636 83.3442 291.689 83.3442ZM312.503 104.5C307.257 104.5 302.828 100.544 302.828 93.9222C302.828 87.3002 307.257 83.3442 312.503 83.3442C315.771 83.3442 317.964 84.7632 319.211 86.9132H319.297V83.9892H323.511V103.855H319.297V100.931H319.211C317.964 103.081 315.771 104.5 312.503 104.5ZM313.406 100.372C317.104 100.372 319.512 97.7062 319.512 93.9222C319.512 90.1382 317.104 87.4722 313.406 87.4722C309.708 87.4722 307.3 90.1382 307.3 93.9222C307.3 97.7062 309.708 100.372 313.406 100.372ZM337.069 104.5C331.823 104.5 327.394 100.544 327.394 93.9222C327.394 87.3002 331.823 83.3442 337.069 83.3442C340.337 83.3442 342.53 84.7632 343.777 86.9132H343.863V73.7552H348.077V103.855H343.863V100.931H343.777C342.53 103.081 340.337 104.5 337.069 104.5ZM337.972 100.372C341.67 100.372 344.078 97.7062 344.078 93.9222C344.078 90.1382 341.67 87.4722 337.972 87.4722C334.274 87.4722 331.866 90.1382 331.866 93.9222C331.866 97.7062 334.274 100.372 337.972 100.372ZM363.048 83.3442C369.283 83.3442 373.927 87.8162 373.927 93.9222C373.927 100.028 369.283 104.5 363.048 104.5C356.813 104.5 352.169 100.028 352.169 93.9222C352.169 87.8162 356.813 83.3442 363.048 83.3442ZM363.048 87.4722C359.264 87.4722 356.641 90.0092 356.641 93.9222C356.641 97.8352 359.264 100.372 363.048 100.372C366.832 100.372 369.455 97.8352 369.455 93.9222C369.455 90.0092 366.832 87.4722 363.048 87.4722ZM388.607 83.3442C392.864 83.3442 396.089 85.6232 396.089 91.6432V103.855H391.875V92.3742C391.875 88.9772 390.155 87.5582 387.317 87.5582C384.221 87.5582 382.028 89.4072 382.028 94.3522V103.855H377.814V83.9892H382.028V86.9992H382.114C383.404 84.7202 385.554 83.3442 388.607 83.3442Z" fill="#1C1B17"/>
</g>
</g>
<g filter="url(#filter1_d_29_10616)">
<rect y="159.545" width="609" height="129.379" rx="13.13" fill="url(#paint2_linear_29_10616)"/>
<g clip-path="url(#clip1_29_10616)">
<rect x="4.68945" y="164.234" width="599.621" height="120" rx="11.88" fill="url(#paint3_linear_29_10616)"/>
<path d="M46.947 191.949C50.172 191.949 52.537 194.314 52.537 197.539C52.537 200.764 50.172 203.129 46.947 203.129C43.722 203.129 41.357 200.764 41.357 197.539C41.357 194.314 43.722 191.949 46.947 191.949ZM90.5415 183.564C96.9915 183.564 100.56 186.316 100.56 191.218C100.56 194.572 98.6685 196.98 95.4005 197.711V197.797C99.3135 198.399 101.463 200.893 101.463 204.935C101.463 210.568 97.5075 213.879 90.7135 213.879C83.6185 213.879 79.7055 210.525 79.7055 204.376H86.4995C86.6715 206.698 88.1335 207.902 90.7565 207.902C93.3795 207.902 94.7125 206.655 94.7125 204.247C94.7125 201.667 93.1645 200.764 88.9075 200.764H87.9185V195.862H88.9075C92.0895 195.862 93.5085 194.83 93.5085 192.465C93.5085 190.573 92.3475 189.541 90.2835 189.541C88.1765 189.541 86.8865 190.616 86.8435 192.422H80.1785C80.2215 186.789 83.9625 183.564 90.5415 183.564ZM115.135 213.879C107.954 213.879 103.482 209.579 103.482 202.699C103.482 198.743 105.116 194.959 108.556 190.874L114.232 184.037H122.058L111.91 195.561L112.039 195.647C113.716 194.142 115.006 193.626 116.984 193.626C122.574 193.626 126.315 197.539 126.315 203.344C126.315 209.536 121.714 213.879 115.135 213.879ZM114.92 207.902C117.672 207.902 119.607 206.053 119.607 203.43C119.607 200.764 117.715 198.958 114.92 198.958C112.125 198.958 110.233 200.807 110.233 203.43C110.233 206.053 112.168 207.902 114.92 207.902ZM150.522 192.723C156.972 192.723 161.702 196.937 161.702 203.301C161.702 209.665 156.972 213.879 150.522 213.879C144.115 213.879 139.385 209.665 139.385 203.301C139.385 196.937 144.115 192.723 150.522 192.723ZM150.522 198.657C147.942 198.657 145.878 200.463 145.878 203.301C145.878 206.139 147.942 207.945 150.522 207.945C153.145 207.945 155.166 206.139 155.166 203.301C155.166 200.463 153.145 198.657 150.522 198.657ZM178.402 193.368H184.981L171.78 221.834H165.244L170.232 211.342L161.331 193.368H168.813L173.457 204.333L178.402 193.368ZM196.393 222.479C194.329 222.479 191.233 222.178 187.879 221.49L188.954 215.427C192.222 216.201 194.415 216.416 195.92 216.416C199.188 216.416 200.607 215.341 200.607 211.858V210.568H200.521C199.36 212.116 197.339 213.578 193.985 213.578C188.782 213.578 184.611 210.138 184.611 203.258C184.611 196.335 188.868 192.723 194.028 192.723C197.253 192.723 199.274 194.056 200.521 196.077H200.607V193.368H207.1V213.234C207.057 219.469 203.273 222.479 196.393 222.479ZM195.834 207.945C198.457 207.945 200.435 206.139 200.435 203.301C200.435 200.463 198.457 198.657 195.834 198.657C193.254 198.657 191.276 200.463 191.276 203.301C191.276 206.139 193.254 207.945 195.834 207.945ZM219.223 213.879C214.063 213.879 209.806 210.267 209.806 203.301C209.806 196.335 214.063 192.723 219.223 192.723C222.448 192.723 224.469 194.056 225.716 196.077H225.802V193.368H232.295V213.234H225.802V210.525H225.716C224.469 212.546 222.448 213.879 219.223 213.879ZM221.029 207.945C223.652 207.945 225.63 206.139 225.63 203.301C225.63 200.463 223.652 198.657 221.029 198.657C218.449 198.657 216.471 200.463 216.471 203.301C216.471 206.139 218.449 207.945 221.029 207.945ZM258.395 186.617C256.374 186.617 254.783 187.606 254.783 190.487V193.368H258.696V196.937H254.783V213.234H250.569V196.937H247.43V193.368H250.569V190.616C250.569 185.714 253.321 182.704 258.223 182.704H259.04V186.617H258.395ZM270.539 192.723C276.774 192.723 281.418 197.195 281.418 203.301C281.418 209.407 276.774 213.879 270.539 213.879C264.304 213.879 259.66 209.407 259.66 203.301C259.66 197.195 264.304 192.723 270.539 192.723ZM270.539 196.851C266.755 196.851 264.132 199.388 264.132 203.301C264.132 207.214 266.755 209.751 270.539 209.751C274.323 209.751 276.946 207.214 276.946 203.301C276.946 199.388 274.323 196.851 270.539 196.851ZM290.208 183.564V188.724H285.048V183.564H290.208ZM285.521 213.234V193.368H289.735V213.234H285.521ZM298.659 209.321H310.183V213.234H293.585V209.536L304.378 197.281H294.015V193.368H309.409V197.066L298.659 209.321ZM319.967 213.879C317.129 213.879 314.162 213.105 311.883 211.772L313.775 208.031C315.624 209.106 317.731 209.923 320.096 209.923C322.117 209.923 323.192 209.321 323.192 208.074C323.192 207.257 322.762 206.655 321.085 205.838L317.473 204.075C314.463 202.656 313.302 200.635 313.302 198.356C313.302 194.701 316.011 192.723 320.354 192.723C322.633 192.723 325.127 193.325 327.234 194.271L325.514 197.926C324.009 197.281 322.16 196.636 320.225 196.636C318.376 196.636 317.774 197.238 317.774 198.141C317.774 199.087 318.333 199.689 320.053 200.506L323.751 202.269C326.331 203.473 327.707 205.193 327.707 207.859C327.707 211.901 324.611 213.879 319.967 213.879ZM336.063 183.564V188.724H330.903V183.564H336.063ZM331.376 213.234V193.368H335.59V213.234H331.376ZM344.514 209.321H356.038V213.234H339.44V209.536L350.233 197.281H339.87V193.368H355.264V197.066L344.514 209.321ZM377.047 183.564V188.724H371.887V183.564H377.047ZM372.36 213.234V193.368H376.574V213.234H372.36ZM381.93 221.834V193.368H386.144V196.292H386.23C387.477 194.142 389.67 192.723 392.938 192.723C398.184 192.723 402.613 196.679 402.613 203.301C402.613 209.923 398.184 213.879 392.938 213.879C389.67 213.879 387.477 212.46 386.23 210.31H386.144V221.834H381.93ZM392.035 209.751C395.733 209.751 398.141 207.085 398.141 203.301C398.141 199.517 395.733 196.851 392.035 196.851C388.337 196.851 385.929 199.517 385.929 203.301C385.929 207.085 388.337 209.751 392.035 209.751ZM416.084 192.723C422.319 192.723 426.963 197.195 426.963 203.301C426.963 209.407 422.319 213.879 416.084 213.879C409.849 213.879 405.205 209.407 405.205 203.301C405.205 197.195 409.849 192.723 416.084 192.723ZM416.084 196.851C412.3 196.851 409.677 199.388 409.677 203.301C409.677 207.214 412.3 209.751 416.084 209.751C419.868 209.751 422.491 207.214 422.491 203.301C422.491 199.388 419.868 196.851 416.084 196.851ZM439.858 196.937H435.816V207.343C435.816 208.762 436.418 209.407 437.88 209.407H438.912V213.277H436.977C433.494 213.277 431.602 211.428 431.602 208.16V196.937H428.076V193.368H431.602V185.413H435.816V193.368H439.858V196.937ZM451.298 192.723C457.361 192.723 460.801 196.894 460.801 203.301V203.989H445.407C445.579 207.515 448.03 209.837 451.427 209.837C454.695 209.837 456.544 207.687 457.533 206.354L460.5 209.149C459.038 211.17 456.415 213.879 451.513 213.879C445.192 213.879 441.15 209.622 441.15 203.344C441.15 197.324 444.934 192.723 451.298 192.723ZM451.04 196.593C448.202 196.593 446.138 198.055 445.622 200.936H456.243C456.071 198.184 454.05 196.593 451.04 196.593ZM482.628 213.234H477.081L469.083 203.473V213.234H464.869V183.134H469.083V201.839L476.178 193.368H481.725L473.383 202.398L482.628 213.234ZM492.104 213.879C486.858 213.879 482.429 209.923 482.429 203.301C482.429 196.679 486.858 192.723 492.104 192.723C495.372 192.723 497.565 194.142 498.812 196.292H498.898V193.368H503.112V213.234H498.898V210.31H498.812C497.565 212.46 495.372 213.879 492.104 213.879ZM493.007 209.751C496.705 209.751 499.113 207.085 499.113 203.301C499.113 199.517 496.705 196.851 493.007 196.851C489.309 196.851 486.901 199.517 486.901 203.301C486.901 207.085 489.309 209.751 493.007 209.751ZM513.229 208.117V213.234L510.176 219.383H508.069L510.348 213.234H508.112V208.117H513.229ZM91.0145 236.617C88.9935 236.617 87.4025 237.606 87.4025 240.487V243.368H91.3155V246.937H87.4025V263.234H83.1885V246.937H80.0495V243.368H83.1885V240.616C83.1885 235.714 85.9405 232.704 90.8425 232.704H91.6595V236.617H91.0145ZM101.954 263.879C96.7083 263.879 92.2793 259.923 92.2793 253.301C92.2793 246.679 96.7083 242.723 101.954 242.723C105.222 242.723 107.415 244.142 108.662 246.292H108.748V243.368H112.962V263.234H108.748V260.31H108.662C107.415 262.46 105.222 263.879 101.954 263.879ZM102.857 259.751C106.555 259.751 108.963 257.085 108.963 253.301C108.963 249.517 106.555 246.851 102.857 246.851C99.1593 246.851 96.7513 249.517 96.7513 253.301C96.7513 257.085 99.1593 259.751 102.857 259.751ZM133.314 271.834V260.31H133.228C131.981 262.46 129.788 263.879 126.52 263.879C121.274 263.879 116.845 259.923 116.845 253.301C116.845 246.679 121.274 242.723 126.52 242.723C129.788 242.723 131.981 244.142 133.228 246.292H133.314V243.368H137.528V271.834H133.314ZM127.423 259.751C131.121 259.751 133.529 257.085 133.529 253.301C133.529 249.517 131.121 246.851 127.423 246.851C123.725 246.851 121.317 249.517 121.317 253.301C121.317 257.085 123.725 259.751 127.423 259.751ZM151.085 263.879C145.839 263.879 141.41 259.923 141.41 253.301C141.41 246.679 145.839 242.723 151.085 242.723C154.353 242.723 156.546 244.142 157.793 246.292H157.879V243.368H162.093V263.234H157.879V260.31H157.793C156.546 262.46 154.353 263.879 151.085 263.879ZM151.988 259.751C155.686 259.751 158.094 257.085 158.094 253.301C158.094 249.517 155.686 246.851 151.988 246.851C148.29 246.851 145.882 249.517 145.882 253.301C145.882 257.085 148.29 259.751 151.988 259.751ZM177.113 246.937H173.071V257.343C173.071 258.762 173.673 259.407 175.135 259.407H176.167V263.277H174.232C170.749 263.277 168.857 261.428 168.857 258.16V246.937H165.331V243.368H168.857V235.413H173.071V243.368H177.113V246.937ZM193.007 271.834V243.368H197.221V246.292H197.307C198.554 244.142 200.747 242.723 204.015 242.723C209.261 242.723 213.69 246.679 213.69 253.301C213.69 259.923 209.261 263.879 204.015 263.879C200.747 263.879 198.554 262.46 197.307 260.31H197.221V271.834H193.007ZM203.112 259.751C206.81 259.751 209.218 257.085 209.218 253.301C209.218 249.517 206.81 246.851 203.112 246.851C199.414 246.851 197.006 249.517 197.006 253.301C197.006 257.085 199.414 259.751 203.112 259.751ZM225.957 263.879C220.711 263.879 216.282 259.923 216.282 253.301C216.282 246.679 220.711 242.723 225.957 242.723C229.225 242.723 231.418 244.142 232.665 246.292H232.751V243.368H236.965V263.234H232.751V260.31H232.665C231.418 262.46 229.225 263.879 225.957 263.879ZM226.86 259.751C230.558 259.751 232.966 257.085 232.966 253.301C232.966 249.517 230.558 246.851 226.86 246.851C223.162 246.851 220.754 249.517 220.754 253.301C220.754 257.085 223.162 259.751 226.86 259.751ZM248.287 263.879C245.449 263.879 242.482 263.105 240.203 261.772L242.095 258.031C243.944 259.106 246.051 259.923 248.416 259.923C250.437 259.923 251.512 259.321 251.512 258.074C251.512 257.257 251.082 256.655 249.405 255.838L245.793 254.075C242.783 252.656 241.622 250.635 241.622 248.356C241.622 244.701 244.331 242.723 248.674 242.723C250.953 242.723 253.447 243.325 255.554 244.271L253.834 247.926C252.329 247.281 250.48 246.636 248.545 246.636C246.696 246.636 246.094 247.238 246.094 248.141C246.094 249.087 246.653 249.689 248.373 250.506L252.071 252.269C254.651 253.473 256.027 255.193 256.027 257.859C256.027 261.901 252.931 263.879 248.287 263.879ZM259.48 271.834V243.368H263.694V246.292H263.78C265.027 244.142 267.22 242.723 270.488 242.723C275.734 242.723 280.163 246.679 280.163 253.301C280.163 259.923 275.734 263.879 270.488 263.879C267.22 263.879 265.027 262.46 263.78 260.31H263.694V271.834H259.48ZM269.585 259.751C273.283 259.751 275.691 257.085 275.691 253.301C275.691 249.517 273.283 246.851 269.585 246.851C265.887 246.851 263.479 249.517 263.479 253.301C263.479 257.085 265.887 259.751 269.585 259.751ZM293.635 242.723C299.87 242.723 304.514 247.195 304.514 253.301C304.514 259.407 299.87 263.879 293.635 263.879C287.4 263.879 282.756 259.407 282.756 253.301C282.756 247.195 287.4 242.723 293.635 242.723ZM293.635 246.851C289.851 246.851 287.228 249.388 287.228 253.301C287.228 257.214 289.851 259.751 293.635 259.751C297.419 259.751 300.042 257.214 300.042 253.301C300.042 249.388 297.419 246.851 293.635 246.851ZM319.581 242.766V247.711H318.936C314.808 247.711 312.615 249.689 312.615 254.419V263.234H308.401V243.368H312.615V247.711H312.701C313.647 244.744 315.926 242.766 319.28 242.766H319.581ZM332.442 246.937H328.4V257.343C328.4 258.762 329.002 259.407 330.464 259.407H331.496V263.277H329.561C326.078 263.277 324.186 261.428 324.186 258.16V246.937H320.66V243.368H324.186V235.413H328.4V243.368H332.442V246.937ZM357.194 242.723C363.257 242.723 366.697 246.894 366.697 253.301V253.989H351.303C351.475 257.515 353.926 259.837 357.323 259.837C360.591 259.837 362.44 257.687 363.429 256.354L366.396 259.149C364.934 261.17 362.311 263.879 357.409 263.879C351.088 263.879 347.046 259.622 347.046 253.344C347.046 247.324 350.83 242.723 357.194 242.723ZM356.936 246.593C354.098 246.593 352.034 248.055 351.518 250.936H362.139C361.967 248.184 359.946 246.593 356.936 246.593ZM382.057 243.368H387.002L379.004 263.234H375.048L367.093 243.368H372.038L377.026 258.203L382.057 243.368ZM397.075 263.879C391.829 263.879 387.4 259.923 387.4 253.301C387.4 246.679 391.829 242.723 397.075 242.723C400.343 242.723 402.536 244.142 403.783 246.292H403.869V243.368H408.083V263.234H403.869V260.31H403.783C402.536 262.46 400.343 263.879 397.075 263.879ZM397.978 259.751C401.676 259.751 404.084 257.085 404.084 253.301C404.084 249.517 401.676 246.851 397.978 246.851C394.28 246.851 391.872 249.517 391.872 253.301C391.872 257.085 394.28 259.751 397.978 259.751ZM416.825 259.321H428.349V263.234H411.751V259.536L422.544 247.281H412.181V243.368H427.575V247.066L416.825 259.321ZM436.886 233.564V238.724H431.726V233.564H436.886ZM432.199 263.234V243.368H436.413V263.234H432.199ZM451.787 272.479C449.422 272.479 446.584 272.049 444.133 271.576L444.95 267.491C447.444 268.05 449.938 268.394 451.787 268.394C455.571 268.394 456.947 267.061 456.947 262.675V260.31H456.861C455.614 262.46 453.421 263.879 450.153 263.879C444.907 263.879 440.478 259.923 440.478 253.301C440.478 246.679 444.907 242.723 450.153 242.723C453.421 242.723 455.614 244.142 456.861 246.292H456.947V243.368H461.161V263.234C460.946 271.017 456.904 272.479 451.787 272.479ZM451.056 259.751C454.754 259.751 457.162 257.085 457.162 253.301C457.162 249.517 454.754 246.851 451.056 246.851C447.358 246.851 444.95 249.517 444.95 253.301C444.95 257.085 447.358 259.751 451.056 259.751ZM474.719 263.879C469.473 263.879 465.044 259.923 465.044 253.301C465.044 246.679 469.473 242.723 474.719 242.723C477.987 242.723 480.18 244.142 481.427 246.292H481.513V243.368H485.727V263.234H481.513V260.31H481.427C480.18 262.46 477.987 263.879 474.719 263.879ZM475.622 259.751C479.32 259.751 481.728 257.085 481.728 253.301C481.728 249.517 479.32 246.851 475.622 246.851C471.924 246.851 469.516 249.517 469.516 253.301C469.516 257.085 471.924 259.751 475.622 259.751Z" fill="#1C1B17"/>
</g>
</g>
<g filter="url(#filter2_d_29_10616)">
<rect y="318.923" width="609" height="129.379" rx="13.13" fill="url(#paint4_linear_29_10616)"/>
<rect x="4.68945" y="323.613" width="599.621" height="120" rx="11.88" fill="url(#paint5_linear_29_10616)"/>
<path d="M46.947 351.328C50.172 351.328 52.537 353.693 52.537 356.918C52.537 360.143 50.172 362.508 46.947 362.508C43.722 362.508 41.357 360.143 41.357 356.918C41.357 353.693 43.722 351.328 46.947 351.328ZM89.4665 343.588V372.613H82.8875V349.823H81.2535V343.588H89.4665ZM105.789 342.943C113.486 342.943 117.786 348.404 117.786 358.079C117.786 367.754 113.443 373.258 105.789 373.258C98.178 373.258 93.792 367.754 93.792 358.079C93.792 348.404 98.135 342.943 105.789 342.943ZM105.789 349.092C102.478 349.092 100.543 352.36 100.543 358.079C100.543 363.798 102.478 367.109 105.789 367.109C109.143 367.109 111.078 363.798 111.078 358.079C111.078 352.36 109.143 349.092 105.789 349.092ZM132.496 342.943C140.193 342.943 144.493 348.404 144.493 358.079C144.493 367.754 140.15 373.258 132.496 373.258C124.885 373.258 120.499 367.754 120.499 358.079C120.499 348.404 124.842 342.943 132.496 342.943ZM132.496 349.092C129.185 349.092 127.25 352.36 127.25 358.079C127.25 363.798 129.185 367.109 132.496 367.109C135.85 367.109 137.785 363.798 137.785 358.079C137.785 352.36 135.85 349.092 132.496 349.092ZM155.118 342.943C159.16 342.943 162.17 345.695 162.17 350.038C162.17 354.338 159.16 357.09 155.118 357.09C151.033 357.09 148.023 354.338 148.023 350.038C148.023 345.695 151.033 342.943 155.118 342.943ZM152.624 372.613L169.652 343.588H173.006L155.978 372.613H152.624ZM155.118 345.996C152.882 345.996 151.248 347.544 151.248 350.038C151.248 352.489 152.882 354.08 155.118 354.08C157.311 354.08 158.945 352.489 158.945 350.038C158.945 347.544 157.311 345.996 155.118 345.996ZM170.77 358.681C174.812 358.681 177.822 361.433 177.822 365.733C177.822 370.076 174.812 372.828 170.77 372.828C166.728 372.828 163.675 370.076 163.675 365.733C163.675 361.433 166.728 358.681 170.77 358.681ZM170.77 361.691C168.577 361.691 166.943 363.282 166.943 365.733C166.943 368.227 168.577 369.775 170.77 369.775C172.963 369.775 174.597 368.227 174.597 365.733C174.597 363.282 172.963 361.691 170.77 361.691ZM204.869 356.316H200.827V366.722C200.827 368.141 201.429 368.786 202.891 368.786H203.923V372.656H201.988C198.505 372.656 196.613 370.807 196.613 367.539V356.316H193.087V352.747H196.613V344.792H200.827V352.747H204.869V356.316ZM217.041 352.102C223.276 352.102 227.92 356.574 227.92 362.68C227.92 368.786 223.276 373.258 217.041 373.258C210.806 373.258 206.162 368.786 206.162 362.68C206.162 356.574 210.806 352.102 217.041 352.102ZM217.041 356.23C213.257 356.23 210.634 358.767 210.634 362.68C210.634 366.593 213.257 369.13 217.041 369.13C220.825 369.13 223.448 366.593 223.448 362.68C223.448 358.767 220.825 356.23 217.041 356.23ZM233.822 341.868L232.876 352.747H230.855L229.866 341.868H233.822ZM242.997 342.513V372.613H238.783V342.513H242.997ZM257.941 352.102C264.176 352.102 268.82 356.574 268.82 362.68C268.82 368.786 264.176 373.258 257.941 373.258C251.706 373.258 247.062 368.786 247.062 362.68C247.062 356.574 251.706 352.102 257.941 352.102ZM257.941 356.23C254.157 356.23 251.534 358.767 251.534 362.68C251.534 366.593 254.157 369.13 257.941 369.13C261.725 369.13 264.348 366.593 264.348 362.68C264.348 358.767 261.725 356.23 257.941 356.23ZM284.215 352.747H289.16L281.162 372.613H277.206L269.251 352.747H274.196L279.184 367.582L284.215 352.747ZM310.624 373.258C306.711 373.258 303.357 370.893 303.357 364.787V352.747H307.657V364.357C307.657 367.625 309.291 369.173 311.828 369.173C314.752 369.173 316.816 367.281 316.816 362.25V352.747H321.03V372.613H316.816V369.603H316.73C315.741 371.581 313.849 373.258 310.624 373.258ZM335.838 373.258C329.431 373.258 324.916 369.001 324.916 362.68C324.916 356.359 329.431 352.102 335.838 352.102C338.418 352.102 340.611 352.79 342.632 354.123L340.654 357.692C339.278 356.832 337.558 356.187 335.709 356.187C331.882 356.187 329.388 358.939 329.388 362.68C329.388 366.421 331.882 369.173 335.709 369.173C337.558 369.173 339.278 368.528 340.654 367.668L342.632 371.237C340.611 372.57 338.418 373.258 335.838 373.258ZM350.287 342.513V355.757H350.373C351.663 353.478 353.813 352.102 356.866 352.102C361.08 352.102 364.348 354.381 364.348 360.401V372.613H360.134V361.132C360.134 357.735 358.414 356.316 355.576 356.316C352.48 356.316 350.287 358.165 350.287 363.11V372.613H346.073V342.513H350.287ZM376.342 373.258C372.429 373.258 369.075 370.893 369.075 364.787V352.747H373.375V364.357C373.375 367.625 375.009 369.173 377.546 369.173C380.47 369.173 382.534 367.281 382.534 362.25V352.747H386.748V372.613H382.534V369.603H382.448C381.459 371.581 379.567 373.258 376.342 373.258ZM402.717 352.102C406.974 352.102 410.199 354.381 410.199 360.401V372.613H405.985V361.132C405.985 357.735 404.265 356.316 401.427 356.316C398.331 356.316 396.138 358.165 396.138 363.11V372.613H391.924V352.747H396.138V355.757H396.224C397.514 353.478 399.664 352.102 402.717 352.102ZM426.628 372.613V367.496L436.389 357.821C439.055 355.198 440.001 353.65 440.001 351.973C440.001 350.038 438.84 348.92 436.69 348.92C434.196 348.92 432.906 350.253 432.906 352.747H426.327C426.327 346.555 430.24 342.943 436.862 342.943C443.054 342.943 446.752 346.168 446.752 351.5C446.752 354.811 445.333 357.391 441.549 360.96L435.271 366.937L446.838 366.851V372.613H426.628ZM460.195 353.392C465.914 353.392 469.655 357.133 469.655 362.895C469.655 369.345 465.269 373.258 458.131 373.258C454.132 373.258 450.692 372.011 447.897 369.603L451.724 364.4C453.616 366.292 455.809 367.281 458.088 367.281C461.055 367.281 462.861 365.518 462.861 362.68C462.861 360.057 461.313 358.423 458.69 358.423C457.013 358.423 455.723 359.154 454.82 360.573H449.703L451.208 343.588H466.774V349.35H455.809L455.25 354.811H455.379C456.54 353.908 458.217 353.392 460.195 353.392ZM479.97 342.943C484.012 342.943 487.022 345.695 487.022 350.038C487.022 354.338 484.012 357.09 479.97 357.09C475.885 357.09 472.875 354.338 472.875 350.038C472.875 345.695 475.885 342.943 479.97 342.943ZM477.476 372.613L494.504 343.588H497.858L480.83 372.613H477.476ZM479.97 345.996C477.734 345.996 476.1 347.544 476.1 350.038C476.1 352.489 477.734 354.08 479.97 354.08C482.163 354.08 483.797 352.489 483.797 350.038C483.797 347.544 482.163 345.996 479.97 345.996ZM495.622 358.681C499.664 358.681 502.674 361.433 502.674 365.733C502.674 370.076 499.664 372.828 495.622 372.828C491.58 372.828 488.527 370.076 488.527 365.733C488.527 361.433 491.58 358.681 495.622 358.681ZM495.622 361.691C493.429 361.691 491.795 363.282 491.795 365.733C491.795 368.227 493.429 369.775 495.622 369.775C497.815 369.775 499.449 368.227 499.449 365.733C499.449 363.282 497.815 361.691 495.622 361.691ZM81.7695 422.613V402.747H85.9835V405.843H86.0695C87.2305 403.177 89.5095 402.102 92.0465 402.102C94.8845 402.102 96.9055 403.349 98.0665 406.144H98.1525C99.3565 403.306 101.893 402.102 104.387 402.102C108.128 402.102 111.181 404.424 111.181 410.315V422.613H106.967V410.53C106.967 407.778 105.591 406.316 103.054 406.316C100.474 406.316 98.5825 407.993 98.5825 412.293V422.613H94.3685V410.53C94.3685 407.778 92.9925 406.316 90.4125 406.316C87.8755 406.316 85.9835 407.993 85.9835 412.336V422.613H81.7695ZM124.977 402.102C131.04 402.102 134.48 406.273 134.48 412.68V413.368H119.086C119.258 416.894 121.709 419.216 125.106 419.216C128.374 419.216 130.223 417.066 131.212 415.733L134.179 418.528C132.717 420.549 130.094 423.258 125.192 423.258C118.871 423.258 114.829 419.001 114.829 412.723C114.829 406.703 118.613 402.102 124.977 402.102ZM124.719 405.972C121.881 405.972 119.817 407.434 119.301 410.315H129.922C129.75 407.563 127.729 405.972 124.719 405.972ZM148.352 431.858C145.987 431.858 143.149 431.428 140.698 430.955L141.515 426.87C144.009 427.429 146.503 427.773 148.352 427.773C152.136 427.773 153.512 426.44 153.512 422.054V419.689H153.426C152.179 421.839 149.986 423.258 146.718 423.258C141.472 423.258 137.043 419.302 137.043 412.68C137.043 406.058 141.472 402.102 146.718 402.102C149.986 402.102 152.179 403.521 153.426 405.671H153.512V402.747H157.726V422.613C157.511 430.396 153.469 431.858 148.352 431.858ZM147.621 419.13C151.319 419.13 153.727 416.464 153.727 412.68C153.727 408.896 151.319 406.23 147.621 406.23C143.923 406.23 141.515 408.896 141.515 412.68C141.515 416.464 143.923 419.13 147.621 419.13ZM171.283 423.258C166.037 423.258 161.608 419.302 161.608 412.68C161.608 406.058 166.037 402.102 171.283 402.102C174.551 402.102 176.744 403.521 177.991 405.671H178.077V402.747H182.291V422.613H178.077V419.689H177.991C176.744 421.839 174.551 423.258 171.283 423.258ZM172.186 419.13C175.884 419.13 178.292 416.464 178.292 412.68C178.292 408.896 175.884 406.23 172.186 406.23C168.488 406.23 166.08 408.896 166.08 412.68C166.08 416.464 168.488 419.13 172.186 419.13ZM209.567 423.258C203.16 423.258 198.645 419.001 198.645 412.68C198.645 406.359 203.16 402.102 209.567 402.102C212.147 402.102 214.34 402.79 216.361 404.123L214.383 407.692C213.007 406.832 211.287 406.187 209.438 406.187C205.611 406.187 203.117 408.939 203.117 412.68C203.117 416.421 205.611 419.173 209.438 419.173C211.287 419.173 213.007 418.528 214.383 417.668L216.361 421.237C214.34 422.57 212.147 423.258 209.567 423.258ZM224.017 392.513V405.757H224.103C225.393 403.478 227.543 402.102 230.596 402.102C234.81 402.102 238.078 404.381 238.078 410.401V422.613H233.864V411.132C233.864 407.735 232.144 406.316 229.306 406.316C226.21 406.316 224.017 408.165 224.017 413.11V422.613H219.803V392.513H224.017ZM251.877 402.102C257.94 402.102 261.38 406.273 261.38 412.68V413.368H245.986C246.158 416.894 248.609 419.216 252.006 419.216C255.274 419.216 257.123 417.066 258.112 415.733L261.079 418.528C259.617 420.549 256.994 423.258 252.092 423.258C245.771 423.258 241.729 419.001 241.729 412.723C241.729 406.703 245.513 402.102 251.877 402.102ZM251.619 405.972C248.781 405.972 246.717 407.434 246.201 410.315H256.822C256.65 407.563 254.629 405.972 251.619 405.972ZM275.252 431.858C272.887 431.858 270.049 431.428 267.598 430.955L268.415 426.87C270.909 427.429 273.403 427.773 275.252 427.773C279.036 427.773 280.412 426.44 280.412 422.054V419.689H280.326C279.079 421.839 276.886 423.258 273.618 423.258C268.372 423.258 263.943 419.302 263.943 412.68C263.943 406.058 268.372 402.102 273.618 402.102C276.886 402.102 279.079 403.521 280.326 405.671H280.412V402.747H284.626V422.613C284.411 430.396 280.369 431.858 275.252 431.858ZM274.521 419.13C278.219 419.13 280.627 416.464 280.627 412.68C280.627 408.896 278.219 406.23 274.521 406.23C270.823 406.23 268.415 408.896 268.415 412.68C268.415 416.464 270.823 419.13 274.521 419.13ZM294.701 392.943V398.103H289.541V392.943H294.701ZM290.014 422.613V402.747H294.228V422.613H290.014ZM310.763 402.145V407.09H310.118C305.99 407.09 303.797 409.068 303.797 413.798V422.613H299.583V402.747H303.797V407.09H303.883C304.829 404.123 307.108 402.145 310.462 402.145H310.763ZM313.776 422.613V402.747H317.99V405.843H318.076C319.237 403.177 321.516 402.102 324.053 402.102C326.891 402.102 328.912 403.349 330.073 406.144H330.159C331.363 403.306 333.9 402.102 336.394 402.102C340.135 402.102 343.188 404.424 343.188 410.315V422.613H338.974V410.53C338.974 407.778 337.598 406.316 335.061 406.316C332.481 406.316 330.589 407.993 330.589 412.293V422.613H326.375V410.53C326.375 407.778 324.999 406.316 322.419 406.316C319.882 406.316 317.99 407.993 317.99 412.336V422.613H313.776ZM356.511 423.258C351.265 423.258 346.836 419.302 346.836 412.68C346.836 406.058 351.265 402.102 356.511 402.102C359.779 402.102 361.972 403.521 363.219 405.671H363.305V402.747H367.519V422.613H363.305V419.689H363.219C361.972 421.839 359.779 423.258 356.511 423.258ZM357.414 419.13C361.112 419.13 363.52 416.464 363.52 412.68C363.52 408.896 361.112 406.23 357.414 406.23C353.716 406.23 351.308 408.896 351.308 412.68C351.308 416.464 353.716 419.13 357.414 419.13Z" fill="#1C1B17"/>
</g>
<defs>
<filter id="filter0_d_29_10616" x="0" y="0.166016" width="632.971" height="157.58" filterUnits="userSpaceOnUse" color-interpolation-filters="sRGB">
<feFlood flood-opacity="0" result="BackgroundImageFix"/>
<feColorMatrix in="SourceAlpha" type="matrix" values="0 0 0 0 0 0 0 0 0 0 0 0 0 0 0 0 0 0 127 0" result="hardAlpha"/>
<feOffset dx="15.5106" dy="19.7407"/>
<feGaussianBlur stdDeviation="4.23016"/>
<feComposite in2="hardAlpha" operator="out"/>
<feColorMatrix type="matrix" values="0 0 0 0 0 0 0 0 0 0 0 0 0 0 0 0 0 0 0.25 0"/>
<feBlend mode="normal" in2="BackgroundImageFix" result="effect1_dropShadow_29_10616"/>
<feBlend mode="normal" in="SourceGraphic" in2="effect1_dropShadow_29_10616" result="shape"/>
</filter>
<filter id="filter1_d_29_10616" x="0" y="159.545" width="632.971" height="157.58" filterUnits="userSpaceOnUse" color-interpolation-filters="sRGB">
<feFlood flood-opacity="0" result="BackgroundImageFix"/>
<feColorMatrix in="SourceAlpha" type="matrix" values="0 0 0 0 0 0 0 0 0 0 0 0 0 0 0 0 0 0 127 0" result="hardAlpha"/>
<feOffset dx="15.5106" dy="19.7407"/>
<feGaussianBlur stdDeviation="4.23016"/>
<feComposite in2="hardAlpha" operator="out"/>
<feColorMatrix type="matrix" values="0 0 0 0 0 0 0 0 0 0 0 0 0 0 0 0 0 0 0.25 0"/>
<feBlend mode="normal" in2="BackgroundImageFix" result="effect1_dropShadow_29_10616"/>
<feBlend mode="normal" in="SourceGraphic" in2="effect1_dropShadow_29_10616" result="shape"/>
</filter>
<filter id="filter2_d_29_10616" x="0" y="318.923" width="632.971" height="157.58" filterUnits="userSpaceOnUse" color-interpolation-filters="sRGB">
<feFlood flood-opacity="0" result="BackgroundImageFix"/>
<feColorMatrix in="SourceAlpha" type="matrix" values="0 0 0 0 0 0 0 0 0 0 0 0 0 0 0 0 0 0 127 0" result="hardAlpha"/>
<feOffset dx="15.5106" dy="19.7407"/>
<feGaussianBlur stdDeviation="4.23016"/>
<feComposite in2="hardAlpha" operator="out"/>
<feColorMatrix type="matrix" values="0 0 0 0 0 0 0 0 0 0 0 0 0 0 0 0 0 0 0.25 0"/>
<feBlend mode="normal" in2="BackgroundImageFix" result="effect1_dropShadow_29_10616"/>
<feBlend mode="normal" in="SourceGraphic" in2="effect1_dropShadow_29_10616" result="shape"/>
</filter>
<linearGradient id="paint0_linear_29_10616" x1="588.124" y1="100.919" x2="529.65" y2="-73.6689" gradientUnits="userSpaceOnUse">
<stop stop-color="#EFBF04"/>
<stop offset="1" stop-color="#FFF59E"/>
</linearGradient>
<linearGradient id="paint1_linear_29_10616" x1="-17.0155" y1="31.347" x2="190.22" y2="315.241" gradientUnits="userSpaceOnUse">
<stop stop-color="#EFBF04"/>
<stop offset="1" stop-color="#FFF59E"/>
</linearGradient>
<linearGradient id="paint2_linear_29_10616" x1="588.124" y1="260.298" x2="529.65" y2="85.7097" gradientUnits="userSpaceOnUse">
<stop stop-color="#EFBF04"/>
<stop offset="1" stop-color="#FFF59E"/>
</linearGradient>
<linearGradient id="paint3_linear_29_10616" x1="-17.0155" y1="190.726" x2="190.22" y2="474.62" gradientUnits="userSpaceOnUse">
<stop stop-color="#EFBF04"/>
<stop offset="1" stop-color="#FFF59E"/>
</linearGradient>
<linearGradient id="paint4_linear_29_10616" x1="588.124" y1="419.676" x2="529.65" y2="245.088" gradientUnits="userSpaceOnUse">
<stop stop-color="#EFBF04"/>
<stop offset="1" stop-color="#FFF59E"/>
</linearGradient>
<linearGradient id="paint5_linear_29_10616" x1="-17.0155" y1="350.104" x2="190.22" y2="633.998" gradientUnits="userSpaceOnUse">
<stop stop-color="#EFBF04"/>
<stop offset="1" stop-color="#FFF59E"/>
</linearGradient>
<clipPath id="clip0_29_10616">
<rect x="4.68945" y="4.85522" width="599.621" height="120" rx="11.88" fill="white"/>
</clipPath>
<clipPath id="clip1_29_10616">
<rect x="4.68945" y="164.234" width="599.621" height="120" rx="11.88" fill="white"/>
</clipPath>
</defs>
</svg>
