<svg width="72" height="72" viewBox="0 0 72 72" fill="none" xmlns="http://www.w3.org/2000/svg">
<rect width="72" height="72" rx="36" fill="white"/>
<path d="M43.5 21.1088V19.5C43.5 18.3065 43.0259 17.1619 42.182 16.318C41.3381 15.4741 40.1935 15 39 15H33C31.8065 15 30.6619 15.4741 29.818 16.318C28.9741 17.1619 28.5 18.3065 28.5 19.5V21.1088C26.0027 21.4728 23.7195 22.7227 22.0672 24.6304C20.4149 26.538 19.5038 28.9763 19.5 31.5V54C19.5 54.7956 19.8161 55.5587 20.3787 56.1213C20.9413 56.6839 21.7044 57 22.5 57H49.5C50.2956 57 51.0587 56.6839 51.6213 56.1213C52.1839 55.5587 52.5 54.7956 52.5 54V31.5C52.4962 28.9763 51.5851 26.538 49.9328 24.6304C48.2805 22.7227 45.9973 21.4728 43.5 21.1088ZM31.5 19.5C31.5 19.1022 31.658 18.7206 31.9393 18.4393C32.2206 18.158 32.6022 18 33 18H39C39.3978 18 39.7794 18.158 40.0607 18.4393C40.342 18.7206 40.5 19.1022 40.5 19.5V21H31.5V19.5ZM33 27H39C39.3978 27 39.7794 27.158 40.0607 27.4393C40.342 27.7206 40.5 28.1022 40.5 28.5C40.5 28.8978 40.342 29.2794 40.0607 29.5607C39.7794 29.842 39.3978 30 39 30H33C32.6022 30 32.2206 29.842 31.9393 29.5607C31.658 29.2794 31.5 28.8978 31.5 28.5C31.5 28.1022 31.658 27.7206 31.9393 27.4393C32.2206 27.158 32.6022 27 33 27ZM45 54H27V46.5H37.5V48C37.5 48.3978 37.658 48.7794 37.9393 49.0607C38.2206 49.342 38.6022 49.5 39 49.5C39.3978 49.5 39.7794 49.342 40.0607 49.0607C40.342 48.7794 40.5 48.3978 40.5 48V46.5H45V54ZM45 43.5H27V42C27 41.2044 27.3161 40.4413 27.8787 39.8787C28.4413 39.3161 29.2044 39 30 39H42C42.7956 39 43.5587 39.3161 44.1213 39.8787C44.6839 40.4413 45 41.2044 45 42V43.5Z" fill="#054F3E"/>
</svg>
