<svg width="72" height="72" viewBox="0 0 72 72" fill="none" xmlns="http://www.w3.org/2000/svg">
<rect width="72" height="72" rx="36" fill="white"/>
<path d="M56.4149 52.0764H53.5408V31.6122C53.5408 30.8368 53.2328 30.0932 52.6845 29.545C52.1363 28.9967 51.3927 28.6887 50.6173 28.6887H42.5778C42.384 28.6887 42.1981 28.7657 42.061 28.9028C41.9239 29.0398 41.8469 29.2257 41.8469 29.4196V52.0764H38.9235V19.9932C38.9283 19.5379 38.8295 19.0874 38.6345 18.6758C38.4395 18.2643 38.1534 17.9025 37.7979 17.6179C37.3134 17.2401 36.7221 17.0246 36.1081 17.002C35.4941 16.9794 34.8885 17.1508 34.3775 17.4918L19.7602 27.227C19.3592 27.4945 19.0305 27.8571 18.8036 28.2823C18.5766 28.7076 18.4583 29.1824 18.4592 29.6644V52.0764H15.5851C15.2073 52.0709 14.8415 52.2085 14.5612 52.4618C14.2808 52.715 14.1068 53.065 14.074 53.4413C14.0607 53.6413 14.0887 53.8418 14.1562 54.0305C14.2237 54.2192 14.3293 54.392 14.4663 54.5381C14.6034 54.6843 14.7691 54.8007 14.9531 54.8801C15.137 54.9596 15.3354 55.0003 15.5357 54.9999H56.4643C56.6646 55.0003 56.863 54.9596 57.0469 54.8801C57.2309 54.8007 57.3966 54.6843 57.5337 54.5381C57.6707 54.392 57.7763 54.2192 57.8438 54.0305C57.9113 53.8418 57.9393 53.6413 57.926 53.4413C57.8932 53.065 57.7192 52.715 57.4388 52.4618C57.1585 52.2085 56.7927 52.0709 56.4149 52.0764ZM26.4987 47.6912C26.4992 47.8916 26.4584 48.09 26.379 48.2739C26.2995 48.4579 26.1831 48.6236 26.037 48.7606C25.8908 48.8977 25.718 49.0033 25.5293 49.0708C25.3407 49.1383 25.1401 49.1662 24.9402 49.153C24.5635 49.1202 24.2132 48.9459 23.96 48.6652C23.7067 48.3844 23.5692 48.0181 23.5753 47.6401V44.8171C23.5701 44.4395 23.7079 44.0739 23.9611 43.7936C24.2142 43.5134 24.564 43.3392 24.9402 43.306C25.1401 43.2928 25.3407 43.3207 25.5293 43.3882C25.718 43.4557 25.8908 43.5613 26.037 43.6984C26.1831 43.8354 26.2995 44.0011 26.379 44.1851C26.4584 44.3691 26.4992 44.5674 26.4987 44.7678V47.6912ZM26.4987 37.4591C26.4992 37.6595 26.4584 37.8578 26.379 38.0418C26.2995 38.2258 26.1831 38.3914 26.037 38.5285C25.8908 38.6656 25.718 38.7712 25.5293 38.8387C25.3407 38.9061 25.1401 38.9341 24.9402 38.9208C24.5637 38.8877 24.2136 38.7132 23.9605 38.4326C23.7073 38.1519 23.5697 37.7859 23.5753 37.408V34.585C23.5701 34.2074 23.7079 33.8418 23.9611 33.5615C24.2142 33.2813 24.564 33.1071 24.9402 33.0739C25.1401 33.0606 25.3407 33.0886 25.5293 33.1561C25.718 33.2236 25.8908 33.3292 26.037 33.4662C26.1831 33.6033 26.2995 33.769 26.379 33.953C26.4584 34.1369 26.4992 34.3353 26.4987 34.5356V37.4591ZM33.8074 47.6912C33.8078 47.8916 33.7671 48.09 33.6876 48.2739C33.6082 48.4579 33.4918 48.6236 33.3456 48.7606C33.1995 48.8977 33.0267 49.0033 32.838 49.0708C32.6493 49.1383 32.4488 49.1662 32.2488 49.153C31.8728 49.1202 31.5231 48.9464 31.2699 48.6665C31.0167 48.3865 30.8788 48.0212 30.8839 47.6437V44.8171C30.8793 44.4398 31.0173 44.0747 31.2704 43.7948C31.5235 43.5149 31.873 43.341 32.2488 43.3079C32.4488 43.2946 32.6493 43.3226 32.838 43.3901C33.0267 43.4576 33.1995 43.5631 33.3456 43.7002C33.4918 43.8373 33.6082 44.0029 33.6876 44.1869C33.7671 44.3709 33.8078 44.5692 33.8074 44.7696V47.6912ZM33.8074 37.4591C33.8078 37.6595 33.7671 37.8578 33.6876 38.0418C33.6082 38.2258 33.4918 38.3914 33.3456 38.5285C33.1995 38.6656 33.0267 38.7712 32.838 38.8387C32.6493 38.9061 32.4488 38.9341 32.2488 38.9208C31.873 38.8877 31.5235 38.7138 31.2704 38.4339C31.0173 38.1541 30.8793 37.7889 30.8839 37.4116V34.585C30.8793 34.2077 31.0173 33.8425 31.2704 33.5627C31.5235 33.2828 31.873 33.1089 32.2488 33.0757C32.4488 33.0625 32.6493 33.0904 32.838 33.1579C33.0267 33.2254 33.1995 33.331 33.3456 33.4681C33.4918 33.6052 33.6082 33.7708 33.6876 33.9548C33.7671 34.1388 33.8078 34.3371 33.8074 34.5375V37.4591Z" fill="#054F3E"/>
</svg>
