<svg width="72" height="72" viewBox="0 0 72 72" fill="none" xmlns="http://www.w3.org/2000/svg">
<rect width="72" height="72" rx="36" fill="white"/>
<path d="M59.0777 40.6162C58.6696 40.6162 58.2783 40.7783 57.9898 41.0668C57.7012 41.3553 57.5391 41.7467 57.5391 42.1547V45.2318H48.9445L45.4232 41.7047L55.1044 32.0216C55.681 31.4446 56.005 30.6622 56.005 29.8465C56.005 29.0308 55.681 28.2484 55.1044 27.6714L47.858 20.423L44.329 16.9017C44.0432 16.6159 43.704 16.3892 43.3306 16.2345C42.9572 16.0799 42.5571 16.0002 42.1529 16.0002C41.7488 16.0002 41.3486 16.0799 40.9752 16.2345C40.6019 16.3892 40.2626 16.6159 39.9769 16.9017L11.9449 45.0279C11.6766 45.2971 11.4941 45.6397 11.4203 46.0126C11.3466 46.3854 11.385 46.7718 11.5307 47.1228C11.6764 47.4739 11.9228 47.7739 12.2389 47.9849C12.5549 48.196 12.9265 48.3087 13.3065 48.3088H20.878L27.6706 55.0995C28.2476 55.6761 29.0299 56 29.8457 56C30.6614 56 31.4438 55.6761 32.0208 55.0995L43.2424 43.8855L46.7695 47.4068C47.0542 47.6938 47.3931 47.9213 47.7665 48.0762C48.1399 48.231 48.5403 48.3101 48.9445 48.3088H57.5391V51.3859C57.5391 51.7939 57.7012 52.1852 57.9898 52.4738C58.2783 52.7623 58.6696 52.9244 59.0777 52.9244C59.4857 52.9244 59.877 52.7623 60.1656 52.4738C60.4541 52.1852 60.6162 51.7939 60.6162 51.3859V42.1547C60.6162 41.7467 60.4541 41.3553 60.1656 41.0668C59.877 40.7783 59.4857 40.6162 59.0777 40.6162ZM42.1539 19.0768L44.5944 21.5173L20.878 45.2318H16.0874L42.1539 19.0768Z" fill="#054F3E"/>
</svg>
