<svg width="72" height="72" viewBox="0 0 72 72" fill="none" xmlns="http://www.w3.org/2000/svg">
<rect width="72" height="72" rx="36" fill="white"/>
<path d="M26.832 25.4813L24.8512 31.1429H47.1485L45.1677 25.4813C44.8262 24.5098 43.9079 23.8571 42.8758 23.8571H29.124C28.0918 23.8571 27.1735 24.5098 26.832 25.4813ZM19.5766 31.5071L22.2481 23.8799C23.2726 20.958 26.0275 19 29.124 19H42.8758C45.9722 19 48.7271 20.958 49.7516 23.8799L52.4231 31.5071C54.1838 32.2357 55.4284 33.9737 55.4284 36V46.9286V50.5714C55.4284 51.9147 54.3432 53 52.9999 53H50.5713C49.228 53 48.1427 51.9147 48.1427 50.5714V46.9286H23.857V50.5714C23.857 51.9147 22.7717 53 21.4284 53H18.9999C17.6566 53 16.5713 51.9147 16.5713 50.5714V46.9286V36C16.5713 33.9737 17.8159 32.2357 19.5766 31.5071ZM26.2856 38.4286C26.2856 37.7845 26.0297 37.1668 25.5743 36.7113C25.1188 36.2559 24.5011 36 23.857 36C23.2129 36 22.5952 36.2559 22.1397 36.7113C21.6843 37.1668 21.4284 37.7845 21.4284 38.4286C21.4284 39.0727 21.6843 39.6904 22.1397 40.1458C22.5952 40.6013 23.2129 40.8571 23.857 40.8571C24.5011 40.8571 25.1188 40.6013 25.5743 40.1458C26.0297 39.6904 26.2856 39.0727 26.2856 38.4286ZM48.1427 40.8571C48.7868 40.8571 49.4045 40.6013 49.86 40.1458C50.3154 39.6904 50.5713 39.0727 50.5713 38.4286C50.5713 37.7845 50.3154 37.1668 49.86 36.7113C49.4045 36.2559 48.7868 36 48.1427 36C47.4986 36 46.8809 36.2559 46.4255 36.7113C45.97 37.1668 45.7141 37.7845 45.7141 38.4286C45.7141 39.0727 45.97 39.6904 46.4255 40.1458C46.8809 40.6013 47.4986 40.8571 48.1427 40.8571Z" fill="#054F3E"/>
</svg>
