<svg width="72" height="73" viewBox="0 0 72 73" fill="none" xmlns="http://www.w3.org/2000/svg">
<rect y="0.234131" width="72" height="72" rx="36" fill="white"/>
<path d="M36.0536 19.1433C37.2356 19.1433 38.1906 20.0976 38.1906 21.2788V23.6613C38.2974 23.6746 38.3976 23.688 38.5045 23.708C38.5312 23.7147 38.5512 23.7147 38.5779 23.7214L41.7835 24.3086C42.9455 24.5222 43.7135 25.6367 43.4998 26.7912C43.286 27.9457 42.1708 28.7198 41.0155 28.5063L37.8433 27.9257C35.753 27.6187 33.9099 27.8256 32.6143 28.3394C31.3187 28.8533 30.7978 29.5607 30.6776 30.2147C30.5441 30.9288 30.6442 31.3292 30.7578 31.5761C30.878 31.8364 31.1251 32.13 31.6126 32.457C32.7011 33.1711 34.3707 33.6382 36.5344 34.2121L36.7281 34.2655C38.638 34.7727 40.9754 35.3867 42.7117 36.5212C43.66 37.1418 44.5549 37.9827 45.1092 39.1572C45.6768 40.3518 45.797 41.6865 45.5366 43.108C45.0758 45.6439 43.3261 47.339 41.1557 48.2265C40.2408 48.6003 39.2457 48.8405 38.1906 48.9606V51.1896C38.1906 52.3708 37.2356 53.3251 36.0536 53.3251C34.8715 53.3251 33.9165 52.3708 33.9165 51.1896V48.8605C33.8898 48.8539 33.8564 48.8539 33.8297 48.8472H33.8164C32.1869 48.5936 29.5089 47.8929 27.7058 47.092C26.6306 46.6116 26.1431 45.3503 26.624 44.2758C27.1048 43.2014 28.367 42.7142 29.4422 43.1947C30.8379 43.8153 33.1352 44.4293 34.4642 44.6362C36.5945 44.9498 38.3509 44.7697 39.5396 44.2825C40.6682 43.822 41.1824 43.1547 41.3293 42.3538C41.4562 41.6465 41.356 41.2394 41.2425 40.9924C41.1156 40.7255 40.8685 40.4319 40.3744 40.1049C39.2791 39.3908 37.6029 38.9236 35.4325 38.3497L35.2455 38.303C33.3422 37.7825 31.0048 37.1618 29.2685 36.0273C28.3202 35.4067 27.432 34.5592 26.8777 33.3846C26.3168 32.1901 26.2032 30.8554 26.4704 29.4339C26.9512 26.8846 28.8611 25.2296 31.0316 24.3687C31.9198 24.015 32.8948 23.7747 33.9165 23.6346V21.2788C33.9165 20.0976 34.8715 19.1433 36.0536 19.1433Z" fill="#054F3E"/>
</svg>
