<svg width="70" height="73" viewBox="0 0 70 73" fill="none" xmlns="http://www.w3.org/2000/svg">
<g clip-path="url(#clip0_179_4994)">
<path d="M38.8907 1.49968C39.8073 2.26096 40.6416 3.10499 41.4785 3.95128C41.8714 4.33947 42.2796 4.70062 42.7002 5.05815C43.099 5.4121 43.465 5.79635 43.8323 6.1826C44.4606 6.75672 45.0268 6.7486 45.8478 6.73466C46.672 6.68172 47.4809 6.54157 48.2939 6.40205C53.8748 5.45648 53.8748 5.45648 56.293 7.06316C58.1116 8.47764 58.7166 10.33 59.0704 12.5212C59.1299 12.8698 59.1896 13.2185 59.2494 13.5671C59.2929 13.8232 59.2929 13.8232 59.3372 14.0845C59.4573 14.7837 59.5857 15.481 59.7208 16.1774C59.7516 16.345 59.7516 16.345 59.7831 16.516C59.938 17.3059 60.091 17.9971 60.7645 18.5032C60.9131 18.5826 61.0617 18.662 61.2149 18.7438C61.3404 18.8122 61.3404 18.8122 61.4684 18.882C62.0263 19.1834 62.5915 19.471 63.1551 19.7617C68.291 22.4113 68.291 22.4113 69.4063 25.1247C69.5632 25.7076 69.5796 26.2803 69.5909 26.8825C69.5961 27.0638 69.6014 27.245 69.6068 27.4318C69.5267 29.0531 68.7189 30.545 68.0088 31.9714C67.9224 32.1475 67.8361 32.3238 67.7498 32.5001C67.7076 32.5862 67.6653 32.6724 67.6217 32.7611C67.4974 33.0144 67.3733 33.2678 67.2492 33.5212C67.105 33.807 66.9553 34.0902 66.797 34.3684C66.3134 35.2315 66.1433 35.9505 66.3126 36.9372C66.4909 37.4759 66.7343 37.965 66.9981 38.4665C67.1397 38.7488 67.2812 39.0311 67.4227 39.3135C67.4952 39.4554 67.5676 39.5973 67.6422 39.7435C67.9857 40.4203 68.3141 41.1041 68.6417 41.7887C68.7003 41.9087 68.7589 42.0287 68.8193 42.1523C69.6136 43.8012 69.8365 45.5192 69.4239 47.3171C68.5074 49.8735 66.4931 50.96 64.212 52.1335C62.5878 52.9695 62.5878 52.9695 60.9858 53.8468C60.8819 53.9056 60.7779 53.9644 60.6708 54.025C60.0523 54.5139 59.9105 55.1365 59.7724 55.8847C59.7552 55.9761 59.738 56.0675 59.7203 56.1617C59.5922 56.8527 59.4768 57.5459 59.3615 58.2391C59.3448 58.3395 59.328 58.4398 59.3108 58.5432C59.2084 59.1581 59.2084 59.1581 59.1092 59.7736C58.7488 62.0378 58.133 64.0222 56.2227 65.4665C53.6806 67.0908 50.8071 66.4973 47.9996 66.0155C46.0587 65.6171 46.0587 65.6171 44.1806 65.9955C43.7686 66.3675 43.3707 66.7447 42.9864 67.1452C42.4427 67.7009 41.8921 68.2286 41.2983 68.7311C40.9801 69.0176 40.6836 69.3193 40.3852 69.6262C38.9778 71.0715 37.4368 72.2232 35.3487 72.278C32.3305 72.2225 30.6598 70.493 28.6679 68.4756C28.2906 68.1034 27.8956 67.7585 27.4924 67.4149C27.0922 67.0589 26.7242 66.6735 26.3553 66.2855C25.7582 65.7399 25.2389 65.7189 24.4579 65.7334C23.6035 65.7909 22.7615 65.9315 21.9166 66.066C16.2149 66.9642 16.2149 66.9642 13.7952 65.3363C12.1636 64.0857 11.5381 62.3617 11.2101 60.4007C11.1617 60.1202 11.1132 59.8396 11.0648 59.5591C10.9897 59.1201 10.915 58.681 10.8408 58.2419C10.7686 57.8158 10.695 57.39 10.6212 56.9641C10.5997 56.8342 10.5781 56.7042 10.5559 56.5703C10.3484 55.2443 10.3484 55.2443 9.67958 54.1192C9.58643 54.0639 9.49329 54.0086 9.39733 53.9517C9.28524 53.8846 9.17314 53.8175 9.05765 53.7483C8.11998 53.2404 7.1711 52.7573 6.21724 52.2807C3.74755 51.0437 1.84157 49.8979 0.765922 47.2391C0.606438 46.6557 0.583561 46.1175 0.579154 45.5153C0.574532 45.4082 0.569909 45.301 0.565147 45.1907C0.547303 43.2149 1.69636 41.3641 2.57427 39.653C2.73893 39.3297 2.90326 39.0062 3.06733 38.6826C3.16849 38.4833 3.27004 38.2842 3.37204 38.0853C3.84655 37.1553 4.03427 36.4311 3.87505 35.3903C3.57812 34.6192 3.19482 33.9017 2.80279 33.1755C2.60026 32.7932 2.39951 32.41 2.19964 32.0263C2.15063 31.9325 2.10163 31.8387 2.05114 31.7421C0.97961 29.6623 0.173074 27.4352 0.790092 25.0807C1.73888 22.4472 3.9148 21.4044 6.24261 20.1984C6.38453 20.1248 6.52646 20.0513 6.67269 19.9755C6.95103 19.8318 7.22981 19.6889 7.50909 19.5471C7.8947 19.3491 8.27637 19.1458 8.6563 18.9372C8.77633 18.8714 8.89636 18.8057 9.02002 18.738C9.13221 18.6708 9.24439 18.6037 9.35998 18.5345C9.45851 18.4766 9.55704 18.4188 9.65856 18.3591C10.3412 17.6704 10.4397 16.5776 10.5806 15.6567C10.6215 15.4053 10.6624 15.1539 10.7033 14.9024C10.7654 14.5122 10.827 14.122 10.8883 13.7317C11.294 11.168 11.7005 8.7318 13.9111 7.08568C16.5029 5.38983 19.3523 5.98912 22.2478 6.45266C24.1577 6.84252 24.1577 6.84252 25.9982 6.47264C26.4168 6.10347 26.8149 5.72548 27.2012 5.32292C27.7449 4.76723 28.2955 4.23949 28.8893 3.73705C29.2075 3.45049 29.504 3.1489 29.8023 2.84193C32.2933 0.2849 35.7939 -0.846906 38.8907 1.49968Z" fill="white"/>
<path d="M31.5661 19.1197C33.0651 20.2833 33.9869 22.0313 34.3907 23.8592C34.4077 24.2476 34.4167 24.631 34.4171 25.0194C34.4188 25.1214 34.4205 25.2235 34.4223 25.3286C34.428 27.4836 33.4334 29.2443 31.9918 30.7762C30.4239 32.2952 28.4522 32.784 26.3361 32.7793C24.1384 32.7293 22.5 31.7097 20.9874 30.161C19.4943 28.4495 19.0576 26.4948 19.2032 24.2811C19.4492 22.2261 20.3844 20.4638 22.008 19.1697C24.9861 16.9583 28.503 17.0443 31.5661 19.1197Z" fill="#054F3E"/>
<path d="M46.4843 40.3122C46.5958 40.3599 46.7072 40.4076 46.8221 40.4567C48.8708 41.4685 50.1083 43.2769 50.8437 45.3747C51.3211 47.2575 50.9861 49.5303 50.0263 51.2107C49.8821 51.4253 49.7328 51.6365 49.578 51.8435C49.5043 51.9426 49.4305 52.0418 49.3545 52.144C48.2055 53.5632 46.3393 54.6831 44.5155 54.9372C42.2312 55.0914 40.2178 54.5944 38.3808 53.1618C36.8155 51.7094 35.9026 49.8682 35.7682 47.7335C35.7349 45.3176 36.4384 43.5358 38.1056 41.7811C38.609 41.3044 39.1304 40.9315 39.7343 40.5935C39.88 40.5116 39.88 40.5116 40.0287 40.4281C41.9896 39.3912 44.4668 39.4427 46.4843 40.3122Z" fill="#054F3E"/>
<path d="M49.7449 20.6511C50.254 20.9792 50.5732 21.3497 50.8435 21.8904C50.9045 22.8046 50.8225 23.3878 50.2006 24.119C49.9117 24.4235 49.6166 24.7203 49.3186 25.0157C49.205 25.13 49.0914 25.2442 48.9744 25.3619C48.5936 25.7444 48.2113 26.1254 47.8289 26.5064C47.5555 26.7802 47.2824 27.0543 47.0092 27.3284C46.3441 27.9953 45.6779 28.6611 45.0113 29.3265C44.4696 29.8673 43.9283 30.4084 43.3873 30.9499C43.3103 31.027 43.2333 31.1041 43.1539 31.1835C42.9975 31.3401 42.841 31.4967 42.6845 31.6533C41.2178 33.1212 39.7497 34.5879 38.2812 36.0541C37.0211 37.3124 35.7621 38.5717 34.5039 39.8319C33.0427 41.2953 31.5808 42.7581 30.1178 44.2198C29.9618 44.3757 29.8058 44.5315 29.6499 44.6873C29.5731 44.764 29.4964 44.8407 29.4173 44.9197C28.8764 45.4602 28.3361 46.0012 27.7959 46.5424C27.1377 47.2017 26.4788 47.8603 25.8189 48.5179C25.4822 48.8535 25.146 49.1895 24.8104 49.5263C24.4468 49.8911 24.0819 50.2545 23.7167 50.6177C23.6107 50.7246 23.5047 50.8316 23.3954 50.9417C23.2973 51.0388 23.1992 51.1358 23.0981 51.2358C23.014 51.3198 22.9299 51.4038 22.8433 51.4904C22.2927 51.9312 21.7314 52.0477 21.0299 52.0292C20.4328 51.9332 20.0382 51.5721 19.6511 51.1316C19.3094 50.5741 19.3001 50.0937 19.3435 49.4529C19.6606 48.6129 20.2436 48.0719 20.8684 47.4525C21.0388 47.2811 21.0388 47.2811 21.2126 47.1064C21.5934 46.7238 21.9757 46.3428 22.3581 45.9618C22.6315 45.688 22.9047 45.4139 23.1778 45.1399C23.8429 44.4729 24.5091 43.8071 25.1757 43.1417C25.7174 42.601 26.2587 42.0598 26.7997 41.5183C26.9152 41.4027 26.9152 41.4027 27.0331 41.2847C27.1896 41.1281 27.346 40.9716 27.5025 40.815C28.9692 39.347 30.4373 37.8803 31.9058 36.4141C33.1659 35.1559 34.4249 33.8965 35.6831 32.6364C37.1444 31.1729 38.6063 29.7101 40.0693 28.2484C40.2252 28.0926 40.3812 27.9367 40.5372 27.7809C40.6139 27.7042 40.6906 27.6275 40.7697 27.5485C41.3106 27.008 41.851 26.467 42.3911 25.9259C43.0493 25.2665 43.7082 24.6079 44.3681 23.9503C44.7048 23.6147 45.041 23.2787 45.3766 22.942C45.7402 22.5772 46.1051 22.2137 46.4704 21.8506C46.6294 21.6901 46.6294 21.6901 46.7916 21.5265C46.9388 21.3809 46.9388 21.3809 47.0889 21.2325C47.2151 21.1064 47.2151 21.1064 47.3438 20.9779C48.0722 20.3945 48.8811 20.3293 49.7449 20.6511Z" fill="#054F3E"/>
<path d="M28.3705 22.0262C29.1132 22.4512 29.7271 22.9914 30.0784 23.784C30.3372 24.7723 30.4095 25.9845 29.8817 26.8915C29.1793 27.8016 28.3072 28.5301 27.1384 28.6899C25.9398 28.7534 25.1995 28.3585 24.2919 27.6122C23.504 26.6442 23.3267 25.8708 23.3685 24.6107C23.4708 23.7073 23.7929 23.1566 24.4588 22.5497C25.6246 21.649 26.9836 21.4062 28.3705 22.0262Z" fill="white"/>
<path d="M44.8408 44.1354C45.695 44.6126 46.4603 45.2582 46.7656 46.2184C46.9112 47.5919 46.8102 48.5852 45.9746 49.6901C45.3819 50.3367 44.7107 50.6661 43.8389 50.7618C42.7067 50.7879 41.8771 50.5683 40.9863 49.857C40.2129 49.0948 39.9712 48.2533 39.9277 47.1852C39.9745 46.021 40.3583 45.4023 41.1934 44.6276C42.3266 43.7331 43.527 43.5156 44.8408 44.1354Z" fill="white"/>
</g>
<defs>
<clipPath id="clip0_179_4994">
<rect width="69.1875" height="72" fill="white" transform="translate(0.5 0.234131)"/>
</clipPath>
</defs>
</svg>

