<svg width="429" height="434" viewBox="0 0 429 434" fill="none" xmlns="http://www.w3.org/2000/svg">
<g clip-path="url(#clip0_19_6041)">
<path d="M429.067 427.164C426.799 427.525 424.84 427.525 422.479 427.525C422.479 413.863 422.479 400.446 422.479 386.82C420.341 386.82 418.606 386.82 416.465 386.82C416.465 400.351 416.465 413.769 416.465 427.391C413.997 427.391 411.931 427.391 409.435 427.391C409.435 416.79 409.154 406.328 409.539 395.89C409.776 389.443 408.849 383.839 403 380.006C408.555 373.566 413.765 367.526 419.395 361C424.83 367.243 430.051 373.24 435.522 379.524C434.97 380.22 434.37 381.153 433.601 381.916C430.703 384.794 429.224 387.984 429.331 392.321C429.614 403.809 429.394 415.308 429.067 427.164Z" fill="#1C1B17" fill-opacity="0.1"/>
<path d="M402.55 396.612C402.539 391.616 402.53 387.119 402.512 382.621C402.511 382.481 402.422 382.341 402.204 381.7C398.213 385.994 394.248 390.006 390.593 394.283C388.336 396.925 384.935 400.007 385.001 402.822C385.069 405.718 388.565 408.667 390.848 411.348C394.35 415.46 398.097 419.364 402.55 424.244C402.55 414.521 402.55 405.815 402.55 396.612Z" fill="#1C1B17" fill-opacity="0.1"/>
<path d="M429.067 319.164C426.799 319.525 424.84 319.525 422.479 319.525C422.479 305.863 422.479 292.446 422.479 278.82C420.341 278.82 418.606 278.82 416.465 278.82C416.465 292.351 416.465 305.769 416.465 319.391C413.997 319.391 411.931 319.391 409.435 319.391C409.435 308.79 409.154 298.328 409.539 287.89C409.776 281.443 408.849 275.839 403 272.006C408.555 265.566 413.765 259.526 419.395 253C424.83 259.243 430.051 265.24 435.522 271.524C434.97 272.22 434.37 273.153 433.601 273.916C430.703 276.794 429.224 279.984 429.331 284.321C429.614 295.809 429.394 307.308 429.067 319.164Z" fill="#1C1B17" fill-opacity="0.1"/>
<path d="M402.55 288.612C402.539 283.616 402.53 279.119 402.512 274.621C402.511 274.481 402.422 274.341 402.204 273.7C398.213 277.994 394.248 282.006 390.593 286.283C388.336 288.924 384.935 292.007 385.001 294.822C385.069 297.718 388.565 300.666 390.848 303.348C394.35 307.46 398.097 311.363 402.55 316.244C402.55 306.52 402.55 297.815 402.55 288.612Z" fill="#1C1B17" fill-opacity="0.1"/>
<path d="M429.067 208.164C426.799 208.525 424.84 208.525 422.479 208.525C422.479 194.863 422.479 181.446 422.479 167.82C420.341 167.82 418.606 167.82 416.465 167.82C416.465 181.351 416.465 194.769 416.465 208.391C413.997 208.391 411.931 208.391 409.435 208.391C409.435 197.79 409.154 187.328 409.539 176.89C409.776 170.443 408.849 164.839 403 161.006C408.555 154.566 413.765 148.526 419.395 142C424.83 148.243 430.051 154.24 435.522 160.524C434.97 161.22 434.37 162.153 433.601 162.916C430.703 165.794 429.224 168.984 429.331 173.321C429.614 184.809 429.394 196.308 429.067 208.164Z" fill="#1C1B17" fill-opacity="0.1"/>
<path d="M402.55 177.612C402.539 172.616 402.53 168.119 402.512 163.621C402.511 163.481 402.422 163.341 402.204 162.7C398.213 166.994 394.248 171.006 390.593 175.283C388.336 177.924 384.935 181.007 385.001 183.822C385.069 186.718 388.565 189.666 390.848 192.348C394.35 196.46 398.097 200.363 402.55 205.244C402.55 195.52 402.55 186.815 402.55 177.612Z" fill="#1C1B17" fill-opacity="0.1"/>
<path d="M429.067 97.1642C426.799 97.5253 424.84 97.5253 422.479 97.5253C422.479 83.8633 422.479 70.4463 422.479 56.8196C420.341 56.8196 418.606 56.8196 416.465 56.8196C416.465 70.3514 416.465 83.7685 416.465 97.3905C413.997 97.3905 411.931 97.3905 409.435 97.3905C409.435 86.79 409.154 76.3276 409.539 65.8896C409.776 59.4432 408.849 53.839 403 50.0057C408.555 43.5657 413.765 37.5258 419.395 31C424.83 37.2429 430.051 43.2404 435.522 49.5241C434.97 50.2202 434.37 51.1526 433.601 51.9158C430.703 54.7941 429.224 57.9837 429.331 62.3212C429.614 73.8086 429.394 85.3083 429.067 97.1642Z" fill="#1C1B17" fill-opacity="0.1"/>
<path d="M402.55 66.6121C402.539 61.6163 402.53 57.1185 402.512 52.6207C402.511 52.4807 402.422 52.3411 402.204 51.7001C398.213 55.9936 394.248 60.0059 390.593 64.2828C388.336 66.9244 384.935 70.0068 385.001 72.8222C385.069 75.7183 388.565 78.6664 390.848 81.3477C394.35 85.46 398.097 89.3635 402.55 94.2439C402.55 84.5204 402.55 75.8152 402.55 66.6121Z" fill="#1C1B17" fill-opacity="0.1"/>
<path d="M442.55 347.913C442.539 352.909 442.53 357.407 442.512 361.905C442.511 362.045 442.422 362.184 442.204 362.825C438.213 358.532 434.248 354.519 430.593 350.242C428.336 347.601 424.935 344.519 425.001 341.703C425.069 338.807 428.565 335.859 430.848 333.178C434.35 329.065 438.097 325.162 442.55 320.281C442.55 330.005 442.55 338.71 442.55 347.913Z" fill="#1C1B17" fill-opacity="0.1"/>
<path d="M442.55 239.913C442.539 244.909 442.53 249.407 442.512 253.905C442.511 254.045 442.422 254.184 442.204 254.825C438.213 250.532 434.248 246.519 430.593 242.243C428.336 239.601 424.935 236.519 425.001 233.703C425.069 230.807 428.565 227.859 430.848 225.178C434.35 221.065 438.097 217.162 442.55 212.282C442.55 222.005 442.55 230.71 442.55 239.913Z" fill="#1C1B17" fill-opacity="0.1"/>
<path d="M442.55 128.913C442.539 133.909 442.53 138.407 442.512 142.905C442.511 143.045 442.422 143.184 442.204 143.825C438.213 139.532 434.248 135.519 430.593 131.243C428.336 128.601 424.935 125.519 425.001 122.703C425.069 119.807 428.565 116.859 430.848 114.178C434.35 110.065 438.097 106.162 442.55 101.282C442.55 111.005 442.55 119.71 442.55 128.913Z" fill="#1C1B17" fill-opacity="0.1"/>
<path d="M442.55 17.9133C442.539 22.9091 442.53 27.4069 442.512 31.9046C442.511 32.0447 442.422 32.1843 442.204 32.8253C438.213 28.5317 434.248 24.5195 430.593 20.2426C428.336 17.601 424.935 14.5186 425.001 11.7032C425.069 8.80714 428.565 5.85898 430.848 3.17774C434.35 -0.934658 438.097 -4.8381 442.55 -9.71849C442.55 0.00496292 442.55 8.71015 442.55 17.9133Z" fill="#1C1B17" fill-opacity="0.1"/>
<path d="M109.067 427.164C106.799 427.525 104.84 427.525 102.479 427.525C102.479 413.863 102.479 400.446 102.479 386.82C100.341 386.82 98.606 386.82 96.4647 386.82C96.4647 400.351 96.4647 413.769 96.4647 427.391C93.9972 427.391 91.931 427.391 89.4351 427.391C89.4351 416.79 89.1542 406.328 89.5386 395.89C89.776 389.443 88.849 383.839 83 380.006C88.5553 373.566 93.7654 367.526 99.3947 361C104.83 367.243 110.051 373.24 115.522 379.524C114.97 380.22 114.37 381.153 113.601 381.916C110.703 384.794 109.224 387.984 109.331 392.321C109.614 403.809 109.394 415.308 109.067 427.164Z" fill="#1C1B17" fill-opacity="0.1"/>
<path d="M116.435 396.612C116.446 391.616 116.455 387.119 116.473 382.621C116.474 382.481 116.563 382.341 116.781 381.7C120.772 385.994 124.737 390.006 128.392 394.283C130.649 396.925 134.05 400.007 133.984 402.822C133.917 405.718 130.42 408.667 128.137 411.348C124.635 415.46 120.889 419.364 116.435 424.244C116.435 414.521 116.435 405.815 116.435 396.612Z" fill="#1C1B17" fill-opacity="0.1"/>
<path d="M82.5498 396.612C82.5391 391.616 82.5297 387.119 82.5117 382.621C82.5111 382.481 82.4224 382.341 82.204 381.7C78.2127 385.994 74.2482 390.006 70.5935 394.283C68.3361 396.925 64.935 400.007 65.0009 402.822C65.0686 405.718 68.5653 408.667 70.8482 411.348C74.3497 415.46 78.0965 419.364 82.5498 424.244C82.5498 414.521 82.5498 405.815 82.5498 396.612Z" fill="#1C1B17" fill-opacity="0.1"/>
<path d="M109.067 319.164C106.799 319.525 104.84 319.525 102.479 319.525C102.479 305.863 102.479 292.446 102.479 278.82C100.341 278.82 98.606 278.82 96.4647 278.82C96.4647 292.351 96.4647 305.769 96.4647 319.391C93.9972 319.391 91.931 319.391 89.4351 319.391C89.4351 308.79 89.1542 298.328 89.5386 287.89C89.776 281.443 88.849 275.839 83 272.006C88.5553 265.566 93.7654 259.526 99.3947 253C104.83 259.243 110.051 265.24 115.522 271.524C114.97 272.22 114.37 273.153 113.601 273.916C110.703 276.794 109.224 279.984 109.331 284.321C109.614 295.809 109.394 307.308 109.067 319.164Z" fill="#1C1B17" fill-opacity="0.1"/>
<path d="M116.435 288.612C116.446 283.616 116.455 279.119 116.473 274.621C116.474 274.481 116.563 274.341 116.781 273.7C120.772 277.994 124.737 282.006 128.392 286.283C130.649 288.924 134.05 292.007 133.984 294.822C133.917 297.718 130.42 300.666 128.137 303.348C124.635 307.46 120.889 311.363 116.435 316.244C116.435 306.52 116.435 297.815 116.435 288.612Z" fill="#1C1B17" fill-opacity="0.1"/>
<path d="M82.5498 288.612C82.5391 283.616 82.5297 279.119 82.5117 274.621C82.5111 274.481 82.4224 274.341 82.204 273.7C78.2127 277.994 74.2482 282.006 70.5935 286.283C68.3361 288.924 64.935 292.007 65.0009 294.822C65.0686 297.718 68.5653 300.666 70.8482 303.348C74.3497 307.46 78.0965 311.363 82.5498 316.244C82.5498 306.52 82.5498 297.815 82.5498 288.612Z" fill="#1C1B17" fill-opacity="0.1"/>
<path d="M109.067 208.164C106.799 208.525 104.84 208.525 102.479 208.525C102.479 194.863 102.479 181.446 102.479 167.82C100.341 167.82 98.606 167.82 96.4647 167.82C96.4647 181.351 96.4647 194.769 96.4647 208.391C93.9972 208.391 91.931 208.391 89.4351 208.391C89.4351 197.79 89.1542 187.328 89.5386 176.89C89.776 170.443 88.849 164.839 83 161.006C88.5553 154.566 93.7654 148.526 99.3947 142C104.83 148.243 110.051 154.24 115.522 160.524C114.97 161.22 114.37 162.153 113.601 162.916C110.703 165.794 109.224 168.984 109.331 173.321C109.614 184.809 109.394 196.308 109.067 208.164Z" fill="#1C1B17" fill-opacity="0.1"/>
<path d="M116.435 177.612C116.446 172.616 116.455 168.119 116.473 163.621C116.474 163.481 116.563 163.341 116.781 162.7C120.772 166.994 124.737 171.006 128.392 175.283C130.649 177.924 134.05 181.007 133.984 183.822C133.917 186.718 130.42 189.666 128.137 192.348C124.635 196.46 120.889 200.363 116.435 205.244C116.435 195.52 116.435 186.815 116.435 177.612Z" fill="#1C1B17" fill-opacity="0.1"/>
<path d="M82.5498 177.612C82.5391 172.616 82.5297 168.119 82.5117 163.621C82.5111 163.481 82.4224 163.341 82.204 162.7C78.2127 166.994 74.2482 171.006 70.5935 175.283C68.3361 177.924 64.935 181.007 65.0009 183.822C65.0686 186.718 68.5653 189.666 70.8482 192.348C74.3497 196.46 78.0965 200.363 82.5498 205.244C82.5498 195.52 82.5498 186.815 82.5498 177.612Z" fill="#1C1B17" fill-opacity="0.1"/>
<path d="M109.067 97.1642C106.799 97.5253 104.84 97.5253 102.479 97.5253C102.479 83.8633 102.479 70.4463 102.479 56.8196C100.341 56.8196 98.606 56.8196 96.4647 56.8196C96.4647 70.3514 96.4647 83.7685 96.4647 97.3905C93.9972 97.3905 91.931 97.3905 89.4351 97.3905C89.4351 86.79 89.1542 76.3276 89.5386 65.8896C89.776 59.4432 88.849 53.839 83 50.0057C88.5553 43.5657 93.7654 37.5258 99.3947 31C104.83 37.2429 110.051 43.2404 115.522 49.5241C114.97 50.2202 114.37 51.1526 113.601 51.9158C110.703 54.7941 109.224 57.9837 109.331 62.3212C109.614 73.8086 109.394 85.3083 109.067 97.1642Z" fill="#1C1B17" fill-opacity="0.1"/>
<path d="M116.435 66.6121C116.446 61.6163 116.455 57.1185 116.473 52.6207C116.474 52.4807 116.563 52.3411 116.781 51.7001C120.772 55.9936 124.737 60.0059 128.392 64.2828C130.649 66.9244 134.05 70.0068 133.984 72.8222C133.917 75.7183 130.42 78.6664 128.137 81.3477C124.635 85.46 120.889 89.3635 116.435 94.2439C116.435 84.5204 116.435 75.8152 116.435 66.6121Z" fill="#1C1B17" fill-opacity="0.1"/>
<path d="M82.5498 66.6121C82.5391 61.6163 82.5297 57.1185 82.5117 52.6207C82.5111 52.4807 82.4224 52.3411 82.204 51.7001C78.2127 55.9936 74.2482 60.0059 70.5935 64.2828C68.3361 66.9244 64.935 70.0068 65.0009 72.8222C65.0686 75.7183 68.5653 78.6664 70.8482 81.3477C74.3497 85.46 78.0965 89.3635 82.5498 94.2439C82.5498 84.5204 82.5498 75.8152 82.5498 66.6121Z" fill="#1C1B17" fill-opacity="0.1"/>
<path d="M149.067 317.361C146.799 317 144.84 317 142.479 317C142.479 330.662 142.479 344.079 142.479 357.706C140.341 357.706 138.606 357.706 136.465 357.706C136.465 344.174 136.465 330.757 136.465 317.135C133.997 317.135 131.931 317.135 129.435 317.135C129.435 327.735 129.154 338.198 129.539 348.636C129.776 355.082 128.849 360.686 123 364.52C128.555 370.96 133.765 377 139.395 383.525C144.83 377.283 150.051 371.285 155.522 365.001C154.97 364.305 154.37 363.373 153.601 362.61C150.703 359.731 149.224 356.542 149.331 352.204C149.614 340.717 149.394 329.217 149.067 317.361Z" fill="#1C1B17" fill-opacity="0.1"/>
<path d="M156.435 347.913C156.446 352.909 156.455 357.407 156.473 361.905C156.474 362.045 156.563 362.184 156.781 362.825C160.772 358.532 164.737 354.519 168.392 350.242C170.649 347.601 174.05 344.519 173.984 341.703C173.917 338.807 170.42 335.859 168.137 333.178C164.635 329.065 160.889 325.162 156.435 320.281C156.435 330.005 156.435 338.71 156.435 347.913Z" fill="#1C1B17" fill-opacity="0.1"/>
<path d="M122.55 347.913C122.539 352.909 122.53 357.407 122.512 361.905C122.511 362.045 122.422 362.184 122.204 362.825C118.213 358.532 114.248 354.519 110.593 350.242C108.336 347.601 104.935 344.519 105.001 341.703C105.069 338.807 108.565 335.859 110.848 333.178C114.35 329.065 118.097 325.162 122.55 320.281C122.55 330.005 122.55 338.71 122.55 347.913Z" fill="#1C1B17" fill-opacity="0.1"/>
<path d="M149.067 209.361C146.799 209 144.84 209 142.479 209C142.479 222.662 142.479 236.079 142.479 249.706C140.341 249.706 138.606 249.706 136.465 249.706C136.465 236.174 136.465 222.757 136.465 209.135C133.997 209.135 131.931 209.135 129.435 209.135C129.435 219.735 129.154 230.198 129.539 240.636C129.776 247.082 128.849 252.686 123 256.52C128.555 262.96 133.765 269 139.395 275.525C144.83 269.283 150.051 263.285 155.522 257.001C154.97 256.305 154.37 255.373 153.601 254.61C150.703 251.731 149.224 248.542 149.331 244.204C149.614 232.717 149.394 221.217 149.067 209.361Z" fill="#1C1B17" fill-opacity="0.1"/>
<path d="M156.435 239.913C156.446 244.909 156.455 249.407 156.473 253.905C156.474 254.045 156.563 254.184 156.781 254.825C160.772 250.532 164.737 246.519 168.392 242.243C170.649 239.601 174.05 236.519 173.984 233.703C173.917 230.807 170.42 227.859 168.137 225.178C164.635 221.065 160.889 217.162 156.435 212.282C156.435 222.005 156.435 230.71 156.435 239.913Z" fill="#1C1B17" fill-opacity="0.1"/>
<path d="M122.55 239.913C122.539 244.909 122.53 249.407 122.512 253.905C122.511 254.045 122.422 254.184 122.204 254.825C118.213 250.532 114.248 246.519 110.593 242.243C108.336 239.601 104.935 236.519 105.001 233.703C105.069 230.807 108.565 227.859 110.848 225.178C114.35 221.065 118.097 217.162 122.55 212.282C122.55 222.005 122.55 230.71 122.55 239.913Z" fill="#1C1B17" fill-opacity="0.1"/>
<path d="M149.067 98.3612C146.799 98.0001 144.84 98.0001 142.479 98.0001C142.479 111.662 142.479 125.079 142.479 138.706C140.341 138.706 138.606 138.706 136.465 138.706C136.465 125.174 136.465 111.757 136.465 98.1349C133.997 98.1349 131.931 98.1349 129.435 98.1349C129.435 108.735 129.154 119.198 129.539 129.636C129.776 136.082 128.849 141.686 123 145.52C128.555 151.96 133.765 158 139.395 164.525C144.83 158.283 150.051 152.285 155.522 146.001C154.97 145.305 154.37 144.373 153.601 143.61C150.703 140.731 149.224 137.542 149.331 133.204C149.614 121.717 149.394 110.217 149.067 98.3612Z" fill="#1C1B17" fill-opacity="0.1"/>
<path d="M156.435 128.913C156.446 133.909 156.455 138.407 156.473 142.905C156.474 143.045 156.563 143.184 156.781 143.825C160.772 139.532 164.737 135.519 168.392 131.243C170.649 128.601 174.05 125.519 173.984 122.703C173.917 119.807 170.42 116.859 168.137 114.178C164.635 110.065 160.889 106.162 156.435 101.282C156.435 111.005 156.435 119.71 156.435 128.913Z" fill="#1C1B17" fill-opacity="0.1"/>
<path d="M122.55 128.913C122.539 133.909 122.53 138.407 122.512 142.905C122.511 143.045 122.422 143.184 122.204 143.825C118.213 139.532 114.248 135.519 110.593 131.243C108.336 128.601 104.935 125.519 105.001 122.703C105.069 119.807 108.565 116.859 110.848 114.178C114.35 110.065 118.097 106.162 122.55 101.282C122.55 111.005 122.55 119.71 122.55 128.913Z" fill="#1C1B17" fill-opacity="0.1"/>
<path d="M149.067 -12.6388C146.799 -12.9999 144.84 -12.9999 142.479 -12.9999C142.479 0.662075 142.479 14.0791 142.479 27.7058C140.341 27.7058 138.606 27.7058 136.465 27.7058C136.465 14.174 136.465 0.756886 136.465 -12.8651C133.997 -12.8651 131.931 -12.8651 129.435 -12.8651C129.435 -2.26464 129.154 8.19783 129.539 18.6358C129.776 25.0821 128.849 30.6864 123 34.5197C128.555 40.9597 133.765 46.9996 139.395 53.5254C144.83 47.2825 150.051 41.285 155.522 35.0013C154.97 34.3052 154.37 33.3728 153.601 32.6096C150.703 29.7313 149.224 26.5416 149.331 22.2042C149.614 10.7168 149.394 -0.782906 149.067 -12.6388Z" fill="#1C1B17" fill-opacity="0.1"/>
<path d="M156.435 17.9133C156.446 22.9091 156.455 27.4069 156.473 31.9046C156.474 32.0447 156.563 32.1843 156.781 32.8253C160.772 28.5317 164.737 24.5195 168.392 20.2426C170.649 17.601 174.05 14.5186 173.984 11.7032C173.917 8.80714 170.42 5.85898 168.137 3.17774C164.635 -0.934658 160.889 -4.8381 156.435 -9.71849C156.435 0.00496292 156.435 8.71015 156.435 17.9133Z" fill="#1C1B17" fill-opacity="0.1"/>
<path d="M122.55 17.9133C122.539 22.9091 122.53 27.4069 122.512 31.9046C122.511 32.0447 122.422 32.1843 122.204 32.8253C118.213 28.5317 114.248 24.5195 110.593 20.2426C108.336 17.601 104.935 14.5186 105.001 11.7032C105.069 8.80714 108.565 5.85898 110.848 3.17774C114.35 -0.934658 118.097 -4.8381 122.55 -9.71849C122.55 0.00496292 122.55 8.71015 122.55 17.9133Z" fill="#1C1B17" fill-opacity="0.1"/>
<path d="M349.067 427.164C346.799 427.525 344.84 427.525 342.479 427.525C342.479 413.863 342.479 400.446 342.479 386.82C340.341 386.82 338.606 386.82 336.465 386.82C336.465 400.351 336.465 413.769 336.465 427.391C333.997 427.391 331.931 427.391 329.435 427.391C329.435 416.79 329.154 406.328 329.539 395.89C329.776 389.443 328.849 383.839 323 380.006C328.555 373.566 333.765 367.526 339.395 361C344.83 367.243 350.051 373.24 355.522 379.524C354.97 380.22 354.37 381.153 353.601 381.916C350.703 384.794 349.224 387.984 349.331 392.321C349.614 403.809 349.394 415.308 349.067 427.164Z" fill="#1C1B17" fill-opacity="0.1"/>
<path d="M356.435 396.612C356.446 391.616 356.455 387.119 356.473 382.621C356.474 382.481 356.563 382.341 356.781 381.7C360.772 385.994 364.737 390.006 368.392 394.283C370.649 396.925 374.05 400.007 373.984 402.822C373.917 405.718 370.42 408.667 368.137 411.348C364.635 415.46 360.889 419.364 356.435 424.244C356.435 414.521 356.435 405.815 356.435 396.612Z" fill="#1C1B17" fill-opacity="0.1"/>
<path d="M322.55 396.612C322.539 391.616 322.53 387.119 322.512 382.621C322.511 382.481 322.422 382.341 322.204 381.7C318.213 385.994 314.248 390.006 310.593 394.283C308.336 396.925 304.935 400.007 305.001 402.822C305.069 405.718 308.565 408.667 310.848 411.348C314.35 415.46 318.097 419.364 322.55 424.244C322.55 414.521 322.55 405.815 322.55 396.612Z" fill="#1C1B17" fill-opacity="0.1"/>
<path d="M349.067 319.164C346.799 319.525 344.84 319.525 342.479 319.525C342.479 305.863 342.479 292.446 342.479 278.82C340.341 278.82 338.606 278.82 336.465 278.82C336.465 292.351 336.465 305.769 336.465 319.391C333.997 319.391 331.931 319.391 329.435 319.391C329.435 308.79 329.154 298.328 329.539 287.89C329.776 281.443 328.849 275.839 323 272.006C328.555 265.566 333.765 259.526 339.395 253C344.83 259.243 350.051 265.24 355.522 271.524C354.97 272.22 354.37 273.153 353.601 273.916C350.703 276.794 349.224 279.984 349.331 284.321C349.614 295.809 349.394 307.308 349.067 319.164Z" fill="#1C1B17" fill-opacity="0.1"/>
<path d="M356.435 288.612C356.446 283.616 356.455 279.119 356.473 274.621C356.474 274.481 356.563 274.341 356.781 273.7C360.772 277.994 364.737 282.006 368.392 286.283C370.649 288.924 374.05 292.007 373.984 294.822C373.917 297.718 370.42 300.666 368.137 303.348C364.635 307.46 360.889 311.363 356.435 316.244C356.435 306.52 356.435 297.815 356.435 288.612Z" fill="#1C1B17" fill-opacity="0.1"/>
<path d="M322.55 288.612C322.539 283.616 322.53 279.119 322.512 274.621C322.511 274.481 322.422 274.341 322.204 273.7C318.213 277.994 314.248 282.006 310.593 286.283C308.336 288.924 304.935 292.007 305.001 294.822C305.069 297.718 308.565 300.666 310.848 303.348C314.35 307.46 318.097 311.363 322.55 316.244C322.55 306.52 322.55 297.815 322.55 288.612Z" fill="#1C1B17" fill-opacity="0.1"/>
<path d="M349.067 208.164C346.799 208.525 344.84 208.525 342.479 208.525C342.479 194.863 342.479 181.446 342.479 167.82C340.341 167.82 338.606 167.82 336.465 167.82C336.465 181.351 336.465 194.769 336.465 208.391C333.997 208.391 331.931 208.391 329.435 208.391C329.435 197.79 329.154 187.328 329.539 176.89C329.776 170.443 328.849 164.839 323 161.006C328.555 154.566 333.765 148.526 339.395 142C344.83 148.243 350.051 154.24 355.522 160.524C354.97 161.22 354.37 162.153 353.601 162.916C350.703 165.794 349.224 168.984 349.331 173.321C349.614 184.809 349.394 196.308 349.067 208.164Z" fill="#1C1B17" fill-opacity="0.1"/>
<path d="M356.435 177.612C356.446 172.616 356.455 168.119 356.473 163.621C356.474 163.481 356.563 163.341 356.781 162.7C360.772 166.994 364.737 171.006 368.392 175.283C370.649 177.924 374.05 181.007 373.984 183.822C373.917 186.718 370.42 189.666 368.137 192.348C364.635 196.46 360.889 200.363 356.435 205.244C356.435 195.52 356.435 186.815 356.435 177.612Z" fill="#1C1B17" fill-opacity="0.1"/>
<path d="M322.55 177.612C322.539 172.616 322.53 168.119 322.512 163.621C322.511 163.481 322.422 163.341 322.204 162.7C318.213 166.994 314.248 171.006 310.593 175.283C308.336 177.924 304.935 181.007 305.001 183.822C305.069 186.718 308.565 189.666 310.848 192.348C314.35 196.46 318.097 200.363 322.55 205.244C322.55 195.52 322.55 186.815 322.55 177.612Z" fill="#1C1B17" fill-opacity="0.1"/>
<path d="M349.067 97.1642C346.799 97.5253 344.84 97.5253 342.479 97.5253C342.479 83.8633 342.479 70.4463 342.479 56.8196C340.341 56.8196 338.606 56.8196 336.465 56.8196C336.465 70.3514 336.465 83.7685 336.465 97.3905C333.997 97.3905 331.931 97.3905 329.435 97.3905C329.435 86.79 329.154 76.3276 329.539 65.8896C329.776 59.4432 328.849 53.839 323 50.0057C328.555 43.5657 333.765 37.5258 339.395 31C344.83 37.2429 350.051 43.2404 355.522 49.5241C354.97 50.2202 354.37 51.1526 353.601 51.9158C350.703 54.7941 349.224 57.9837 349.331 62.3212C349.614 73.8086 349.394 85.3083 349.067 97.1642Z" fill="#1C1B17" fill-opacity="0.1"/>
<path d="M356.435 66.6121C356.446 61.6163 356.455 57.1185 356.473 52.6207C356.474 52.4807 356.563 52.3411 356.781 51.7001C360.772 55.9936 364.737 60.0059 368.392 64.2828C370.649 66.9244 374.05 70.0068 373.984 72.8222C373.917 75.7183 370.42 78.6664 368.137 81.3477C364.635 85.46 360.889 89.3635 356.435 94.2439C356.435 84.5204 356.435 75.8152 356.435 66.6121Z" fill="#1C1B17" fill-opacity="0.1"/>
<path d="M322.55 66.6121C322.539 61.6163 322.53 57.1185 322.512 52.6207C322.511 52.4807 322.422 52.3411 322.204 51.7001C318.213 55.9936 314.248 60.0059 310.593 64.2828C308.336 66.9244 304.935 70.0068 305.001 72.8222C305.069 75.7183 308.565 78.6664 310.848 81.3477C314.35 85.46 318.097 89.3635 322.55 94.2439C322.55 84.5204 322.55 75.8152 322.55 66.6121Z" fill="#1C1B17" fill-opacity="0.1"/>
<path d="M389.067 317.361C386.799 317 384.84 317 382.479 317C382.479 330.662 382.479 344.079 382.479 357.706C380.341 357.706 378.606 357.706 376.465 357.706C376.465 344.174 376.465 330.757 376.465 317.135C373.997 317.135 371.931 317.135 369.435 317.135C369.435 327.735 369.154 338.198 369.539 348.636C369.776 355.082 368.849 360.686 363 364.52C368.555 370.96 373.765 377 379.395 383.525C384.83 377.283 390.051 371.285 395.522 365.001C394.97 364.305 394.37 363.373 393.601 362.61C390.703 359.731 389.224 356.542 389.331 352.204C389.614 340.717 389.394 329.217 389.067 317.361Z" fill="#1C1B17" fill-opacity="0.1"/>
<path d="M396.435 347.913C396.446 352.909 396.455 357.407 396.473 361.905C396.474 362.045 396.563 362.184 396.781 362.825C400.772 358.532 404.737 354.519 408.392 350.242C410.649 347.601 414.05 344.519 413.984 341.703C413.917 338.807 410.42 335.859 408.137 333.178C404.635 329.065 400.889 325.162 396.435 320.281C396.435 330.005 396.435 338.71 396.435 347.913Z" fill="#1C1B17" fill-opacity="0.1"/>
<path d="M362.55 347.913C362.539 352.909 362.53 357.407 362.512 361.905C362.511 362.045 362.422 362.184 362.204 362.825C358.213 358.532 354.248 354.519 350.593 350.242C348.336 347.601 344.935 344.519 345.001 341.703C345.069 338.807 348.565 335.859 350.848 333.178C354.35 329.065 358.097 325.162 362.55 320.281C362.55 330.005 362.55 338.71 362.55 347.913Z" fill="#1C1B17" fill-opacity="0.1"/>
<path d="M389.067 209.361C386.799 209 384.84 209 382.479 209C382.479 222.662 382.479 236.079 382.479 249.706C380.341 249.706 378.606 249.706 376.465 249.706C376.465 236.174 376.465 222.757 376.465 209.135C373.997 209.135 371.931 209.135 369.435 209.135C369.435 219.735 369.154 230.198 369.539 240.636C369.776 247.082 368.849 252.686 363 256.52C368.555 262.96 373.765 269 379.395 275.525C384.83 269.283 390.051 263.285 395.522 257.001C394.97 256.305 394.37 255.373 393.601 254.61C390.703 251.731 389.224 248.542 389.331 244.204C389.614 232.717 389.394 221.217 389.067 209.361Z" fill="#1C1B17" fill-opacity="0.1"/>
<path d="M396.435 239.913C396.446 244.909 396.455 249.407 396.473 253.905C396.474 254.045 396.563 254.184 396.781 254.825C400.772 250.532 404.737 246.519 408.392 242.243C410.649 239.601 414.05 236.519 413.984 233.703C413.917 230.807 410.42 227.859 408.137 225.178C404.635 221.065 400.889 217.162 396.435 212.282C396.435 222.005 396.435 230.71 396.435 239.913Z" fill="#1C1B17" fill-opacity="0.1"/>
<path d="M362.55 239.913C362.539 244.909 362.53 249.407 362.512 253.905C362.511 254.045 362.422 254.184 362.204 254.825C358.213 250.532 354.248 246.519 350.593 242.243C348.336 239.601 344.935 236.519 345.001 233.703C345.069 230.807 348.565 227.859 350.848 225.178C354.35 221.065 358.097 217.162 362.55 212.282C362.55 222.005 362.55 230.71 362.55 239.913Z" fill="#1C1B17" fill-opacity="0.1"/>
<path d="M389.067 98.3612C386.799 98.0001 384.84 98.0001 382.479 98.0001C382.479 111.662 382.479 125.079 382.479 138.706C380.341 138.706 378.606 138.706 376.465 138.706C376.465 125.174 376.465 111.757 376.465 98.1349C373.997 98.1349 371.931 98.1349 369.435 98.1349C369.435 108.735 369.154 119.198 369.539 129.636C369.776 136.082 368.849 141.686 363 145.52C368.555 151.96 373.765 158 379.395 164.525C384.83 158.283 390.051 152.285 395.522 146.001C394.97 145.305 394.37 144.373 393.601 143.61C390.703 140.731 389.224 137.542 389.331 133.204C389.614 121.717 389.394 110.217 389.067 98.3612Z" fill="#1C1B17" fill-opacity="0.1"/>
<path d="M396.435 128.913C396.446 133.909 396.455 138.407 396.473 142.905C396.474 143.045 396.563 143.184 396.781 143.825C400.772 139.532 404.737 135.519 408.392 131.243C410.649 128.601 414.05 125.519 413.984 122.703C413.917 119.807 410.42 116.859 408.137 114.178C404.635 110.065 400.889 106.162 396.435 101.282C396.435 111.005 396.435 119.71 396.435 128.913Z" fill="#1C1B17" fill-opacity="0.1"/>
<path d="M362.55 128.913C362.539 133.909 362.53 138.407 362.512 142.905C362.511 143.045 362.422 143.184 362.204 143.825C358.213 139.532 354.248 135.519 350.593 131.243C348.336 128.601 344.935 125.519 345.001 122.703C345.069 119.807 348.565 116.859 350.848 114.178C354.35 110.065 358.097 106.162 362.55 101.282C362.55 111.005 362.55 119.71 362.55 128.913Z" fill="#1C1B17" fill-opacity="0.1"/>
<path d="M389.067 -12.6388C386.799 -12.9999 384.84 -12.9999 382.479 -12.9999C382.479 0.662075 382.479 14.0791 382.479 27.7058C380.341 27.7058 378.606 27.7058 376.465 27.7058C376.465 14.174 376.465 0.756886 376.465 -12.8651C373.997 -12.8651 371.931 -12.8651 369.435 -12.8651C369.435 -2.26464 369.154 8.19783 369.539 18.6358C369.776 25.0821 368.849 30.6864 363 34.5197C368.555 40.9597 373.765 46.9996 379.395 53.5254C384.83 47.2825 390.051 41.285 395.522 35.0013C394.97 34.3052 394.37 33.3728 393.601 32.6096C390.703 29.7313 389.224 26.5416 389.331 22.2042C389.614 10.7168 389.394 -0.782906 389.067 -12.6388Z" fill="#1C1B17" fill-opacity="0.1"/>
<path d="M396.435 17.9133C396.446 22.9091 396.455 27.4069 396.473 31.9046C396.474 32.0447 396.563 32.1843 396.781 32.8253C400.772 28.5317 404.737 24.5195 408.392 20.2426C410.649 17.601 414.05 14.5186 413.984 11.7032C413.917 8.80714 410.42 5.85898 408.137 3.17774C404.635 -0.934658 400.889 -4.8381 396.435 -9.71849C396.435 0.00496292 396.435 8.71015 396.435 17.9133Z" fill="#1C1B17" fill-opacity="0.1"/>
<path d="M362.55 17.9133C362.539 22.9091 362.53 27.4069 362.512 31.9046C362.511 32.0447 362.422 32.1843 362.204 32.8253C358.213 28.5317 354.248 24.5195 350.593 20.2426C348.336 17.601 344.935 14.5186 345.001 11.7032C345.069 8.80714 348.565 5.85898 350.848 3.17774C354.35 -0.934658 358.097 -4.8381 362.55 -9.71849C362.55 0.00496292 362.55 8.71015 362.55 17.9133Z" fill="#1C1B17" fill-opacity="0.1"/>
<path d="M29.0669 427.164C26.7994 427.525 24.8399 427.525 22.4788 427.525C22.4788 413.863 22.4788 400.446 22.4788 386.82C20.3409 386.82 18.606 386.82 16.4647 386.82C16.4647 400.351 16.4647 413.769 16.4647 427.391C13.9972 427.391 11.931 427.391 9.43512 427.391C9.43512 416.79 9.1542 406.328 9.53858 395.89C9.77597 389.443 8.84901 383.839 3 380.006C8.55528 373.566 13.7654 367.526 19.3947 361C24.8297 367.243 30.0511 373.24 35.5217 379.524C34.9699 380.22 34.3695 381.153 33.6011 381.916C30.7032 384.794 29.2239 387.984 29.3309 392.321C29.6143 403.809 29.3944 415.308 29.0669 427.164Z" fill="#1C1B17" fill-opacity="0.1"/>
<path d="M36.4353 396.612C36.446 391.616 36.4555 387.119 36.4734 382.621C36.474 382.481 36.5627 382.341 36.7811 381.7C40.7724 385.994 44.7369 390.006 48.3917 394.283C50.649 396.925 54.0501 400.007 53.9842 402.822C53.9165 405.718 50.4198 408.667 48.1369 411.348C44.6354 415.46 40.8886 419.364 36.4353 424.244C36.4353 414.521 36.4353 405.815 36.4353 396.612Z" fill="#1C1B17" fill-opacity="0.1"/>
<path d="M2.5498 396.612C2.53909 391.616 2.52966 387.119 2.51169 382.621C2.51113 382.481 2.42237 382.341 2.20399 381.7C-1.78733 385.994 -5.75179 390.006 -9.40655 394.283C-11.6639 396.925 -15.065 400.007 -14.9991 402.822C-14.9314 405.718 -11.4347 408.667 -9.15181 411.348C-5.65034 415.46 -1.90345 419.364 2.5498 424.244C2.5498 414.521 2.5498 405.815 2.5498 396.612Z" fill="#1C1B17" fill-opacity="0.1"/>
<path d="M29.0669 319.164C26.7994 319.525 24.8399 319.525 22.4788 319.525C22.4788 305.863 22.4788 292.446 22.4788 278.82C20.3409 278.82 18.606 278.82 16.4647 278.82C16.4647 292.351 16.4647 305.769 16.4647 319.391C13.9972 319.391 11.931 319.391 9.43512 319.391C9.43512 308.79 9.1542 298.328 9.53858 287.89C9.77597 281.443 8.84901 275.839 3 272.006C8.55528 265.566 13.7654 259.526 19.3947 253C24.8297 259.243 30.0511 265.24 35.5217 271.524C34.9699 272.22 34.3695 273.153 33.6011 273.916C30.7032 276.794 29.2239 279.984 29.3309 284.321C29.6143 295.809 29.3944 307.308 29.0669 319.164Z" fill="#1C1B17" fill-opacity="0.1"/>
<path d="M36.4353 288.612C36.446 283.616 36.4555 279.119 36.4734 274.621C36.474 274.481 36.5627 274.341 36.7811 273.7C40.7724 277.994 44.7369 282.006 48.3917 286.283C50.649 288.924 54.0501 292.007 53.9842 294.822C53.9165 297.718 50.4198 300.666 48.1369 303.348C44.6354 307.46 40.8886 311.363 36.4353 316.244C36.4353 306.52 36.4353 297.815 36.4353 288.612Z" fill="#1C1B17" fill-opacity="0.1"/>
<path d="M2.5498 288.612C2.53909 283.616 2.52966 279.119 2.51169 274.621C2.51113 274.481 2.42237 274.341 2.20399 273.7C-1.78733 277.994 -5.75179 282.006 -9.40655 286.283C-11.6639 288.924 -15.065 292.007 -14.9991 294.822C-14.9314 297.718 -11.4347 300.666 -9.15181 303.348C-5.65034 307.46 -1.90345 311.363 2.5498 316.244C2.5498 306.52 2.5498 297.815 2.5498 288.612Z" fill="#1C1B17" fill-opacity="0.1"/>
<path d="M29.0669 208.164C26.7994 208.525 24.8399 208.525 22.4788 208.525C22.4788 194.863 22.4788 181.446 22.4788 167.82C20.3409 167.82 18.606 167.82 16.4647 167.82C16.4647 181.351 16.4647 194.769 16.4647 208.391C13.9972 208.391 11.931 208.391 9.43512 208.391C9.43512 197.79 9.1542 187.328 9.53858 176.89C9.77597 170.443 8.84901 164.839 3 161.006C8.55528 154.566 13.7654 148.526 19.3947 142C24.8297 148.243 30.0511 154.24 35.5217 160.524C34.9699 161.22 34.3695 162.153 33.6011 162.916C30.7032 165.794 29.2239 168.984 29.3309 173.321C29.6143 184.809 29.3944 196.308 29.0669 208.164Z" fill="#1C1B17" fill-opacity="0.1"/>
<path d="M36.4353 177.612C36.446 172.616 36.4555 168.119 36.4734 163.621C36.474 163.481 36.5627 163.341 36.7811 162.7C40.7724 166.994 44.7369 171.006 48.3917 175.283C50.649 177.924 54.0501 181.007 53.9842 183.822C53.9165 186.718 50.4198 189.666 48.1369 192.348C44.6354 196.46 40.8886 200.363 36.4353 205.244C36.4353 195.52 36.4353 186.815 36.4353 177.612Z" fill="#1C1B17" fill-opacity="0.1"/>
<path d="M2.5498 177.612C2.53909 172.616 2.52966 168.119 2.51169 163.621C2.51113 163.481 2.42237 163.341 2.20399 162.7C-1.78733 166.994 -5.75179 171.006 -9.40655 175.283C-11.6639 177.924 -15.065 181.007 -14.9991 183.822C-14.9314 186.718 -11.4347 189.666 -9.15181 192.348C-5.65034 196.46 -1.90345 200.363 2.5498 205.244C2.5498 195.52 2.5498 186.815 2.5498 177.612Z" fill="#1C1B17" fill-opacity="0.1"/>
<path d="M29.0669 97.1642C26.7994 97.5253 24.8399 97.5253 22.4788 97.5253C22.4788 83.8633 22.4788 70.4463 22.4788 56.8196C20.3409 56.8196 18.606 56.8196 16.4647 56.8196C16.4647 70.3514 16.4647 83.7685 16.4647 97.3905C13.9972 97.3905 11.931 97.3905 9.43512 97.3905C9.43512 86.79 9.1542 76.3276 9.53858 65.8896C9.77597 59.4432 8.84901 53.839 3 50.0057C8.55528 43.5657 13.7654 37.5258 19.3947 31C24.8297 37.2429 30.0511 43.2404 35.5217 49.5241C34.9699 50.2202 34.3695 51.1526 33.6011 51.9158C30.7032 54.7941 29.2239 57.9837 29.3309 62.3212C29.6143 73.8086 29.3944 85.3083 29.0669 97.1642Z" fill="#1C1B17" fill-opacity="0.1"/>
<path d="M36.4353 66.6121C36.446 61.6163 36.4555 57.1185 36.4734 52.6207C36.474 52.4807 36.5627 52.3411 36.7811 51.7001C40.7724 55.9936 44.7369 60.0059 48.3917 64.2828C50.649 66.9244 54.0501 70.0068 53.9842 72.8222C53.9165 75.7183 50.4198 78.6664 48.1369 81.3477C44.6354 85.46 40.8886 89.3635 36.4353 94.2439C36.4353 84.5204 36.4353 75.8152 36.4353 66.6121Z" fill="#1C1B17" fill-opacity="0.1"/>
<path d="M2.5498 66.6121C2.53909 61.6163 2.52966 57.1185 2.51169 52.6207C2.51113 52.4807 2.42237 52.3411 2.20399 51.7001C-1.78733 55.9936 -5.75179 60.0059 -9.40655 64.2828C-11.6639 66.9244 -15.065 70.0068 -14.9991 72.8222C-14.9314 75.7183 -11.4347 78.6664 -9.15181 81.3477C-5.65034 85.46 -1.90345 89.3635 2.5498 94.2439C2.5498 84.5204 2.5498 75.8152 2.5498 66.6121Z" fill="#1C1B17" fill-opacity="0.1"/>
<path d="M69.0669 317.361C66.7994 317 64.8399 317 62.4788 317C62.4788 330.662 62.4788 344.079 62.4788 357.706C60.3409 357.706 58.606 357.706 56.4647 357.706C56.4647 344.174 56.4647 330.757 56.4647 317.135C53.9972 317.135 51.931 317.135 49.4351 317.135C49.4351 327.735 49.1542 338.198 49.5386 348.636C49.776 355.082 48.849 360.686 43 364.52C48.5553 370.96 53.7654 377 59.3947 383.525C64.8297 377.283 70.0511 371.285 75.5217 365.001C74.9699 364.305 74.3695 363.373 73.6011 362.61C70.7032 359.731 69.2239 356.542 69.3309 352.204C69.6143 340.717 69.3944 329.217 69.0669 317.361Z" fill="#1C1B17" fill-opacity="0.1"/>
<path d="M76.4353 347.913C76.446 352.909 76.4555 357.407 76.4734 361.905C76.474 362.045 76.5627 362.184 76.7811 362.825C80.7724 358.532 84.7369 354.519 88.3917 350.242C90.649 347.601 94.0501 344.519 93.9842 341.703C93.9165 338.807 90.4198 335.859 88.1369 333.178C84.6354 329.065 80.8886 325.162 76.4353 320.281C76.4353 330.005 76.4353 338.71 76.4353 347.913Z" fill="#1C1B17" fill-opacity="0.1"/>
<path d="M42.5498 347.913C42.5391 352.909 42.5297 357.407 42.5117 361.905C42.5111 362.045 42.4224 362.184 42.204 362.825C38.2127 358.532 34.2482 354.519 30.5935 350.242C28.3361 347.601 24.935 344.519 25.0009 341.703C25.0686 338.807 28.5653 335.859 30.8482 333.178C34.3497 329.065 38.0965 325.162 42.5498 320.281C42.5498 330.005 42.5498 338.71 42.5498 347.913Z" fill="#1C1B17" fill-opacity="0.1"/>
<path d="M69.0669 209.361C66.7994 209 64.8399 209 62.4788 209C62.4788 222.662 62.4788 236.079 62.4788 249.706C60.3409 249.706 58.606 249.706 56.4647 249.706C56.4647 236.174 56.4647 222.757 56.4647 209.135C53.9972 209.135 51.931 209.135 49.4351 209.135C49.4351 219.735 49.1542 230.198 49.5386 240.636C49.776 247.082 48.849 252.686 43 256.52C48.5553 262.96 53.7654 269 59.3947 275.525C64.8297 269.283 70.0511 263.285 75.5217 257.001C74.9699 256.305 74.3695 255.373 73.6011 254.61C70.7032 251.731 69.2239 248.542 69.3309 244.204C69.6143 232.717 69.3944 221.217 69.0669 209.361Z" fill="#1C1B17" fill-opacity="0.1"/>
<path d="M76.4353 239.913C76.446 244.909 76.4555 249.407 76.4734 253.905C76.474 254.045 76.5627 254.184 76.7811 254.825C80.7724 250.532 84.7369 246.519 88.3917 242.243C90.649 239.601 94.0501 236.519 93.9842 233.703C93.9165 230.807 90.4198 227.859 88.1369 225.178C84.6354 221.065 80.8886 217.162 76.4353 212.282C76.4353 222.005 76.4353 230.71 76.4353 239.913Z" fill="#1C1B17" fill-opacity="0.1"/>
<path d="M42.5498 239.913C42.5391 244.909 42.5297 249.407 42.5117 253.905C42.5111 254.045 42.4224 254.184 42.204 254.825C38.2127 250.532 34.2482 246.519 30.5935 242.243C28.3361 239.601 24.935 236.519 25.0009 233.703C25.0686 230.807 28.5653 227.859 30.8482 225.178C34.3497 221.065 38.0965 217.162 42.5498 212.282C42.5498 222.005 42.5498 230.71 42.5498 239.913Z" fill="#1C1B17" fill-opacity="0.1"/>
<path d="M69.0669 98.3612C66.7994 98.0001 64.8399 98.0001 62.4788 98.0001C62.4788 111.662 62.4788 125.079 62.4788 138.706C60.3409 138.706 58.606 138.706 56.4647 138.706C56.4647 125.174 56.4647 111.757 56.4647 98.1349C53.9972 98.1349 51.931 98.1349 49.4351 98.1349C49.4351 108.735 49.1542 119.198 49.5386 129.636C49.776 136.082 48.849 141.686 43 145.52C48.5553 151.96 53.7654 158 59.3947 164.525C64.8297 158.283 70.0511 152.285 75.5217 146.001C74.9699 145.305 74.3695 144.373 73.6011 143.61C70.7032 140.731 69.2239 137.542 69.3309 133.204C69.6143 121.717 69.3944 110.217 69.0669 98.3612Z" fill="#1C1B17" fill-opacity="0.1"/>
<path d="M76.4353 128.913C76.446 133.909 76.4555 138.407 76.4734 142.905C76.474 143.045 76.5627 143.184 76.7811 143.825C80.7724 139.532 84.7369 135.519 88.3917 131.243C90.649 128.601 94.0501 125.519 93.9842 122.703C93.9165 119.807 90.4198 116.859 88.1369 114.178C84.6354 110.065 80.8886 106.162 76.4353 101.282C76.4353 111.005 76.4353 119.71 76.4353 128.913Z" fill="#1C1B17" fill-opacity="0.1"/>
<path d="M42.5498 128.913C42.5391 133.909 42.5297 138.407 42.5117 142.905C42.5111 143.045 42.4224 143.184 42.204 143.825C38.2127 139.532 34.2482 135.519 30.5935 131.243C28.3361 128.601 24.935 125.519 25.0009 122.703C25.0686 119.807 28.5653 116.859 30.8482 114.178C34.3497 110.065 38.0965 106.162 42.5498 101.282C42.5498 111.005 42.5498 119.71 42.5498 128.913Z" fill="#1C1B17" fill-opacity="0.1"/>
<path d="M69.0669 -12.6388C66.7994 -12.9999 64.8399 -12.9999 62.4788 -12.9999C62.4788 0.662075 62.4788 14.0791 62.4788 27.7058C60.3409 27.7058 58.606 27.7058 56.4647 27.7058C56.4647 14.174 56.4647 0.756886 56.4647 -12.8651C53.9972 -12.8651 51.931 -12.8651 49.4351 -12.8651C49.4351 -2.26464 49.1542 8.19783 49.5386 18.6358C49.776 25.0821 48.849 30.6864 43 34.5197C48.5553 40.9597 53.7654 46.9996 59.3947 53.5254C64.8297 47.2825 70.0511 41.285 75.5217 35.0013C74.9699 34.3052 74.3695 33.3728 73.6011 32.6096C70.7032 29.7313 69.2239 26.5416 69.3309 22.2042C69.6143 10.7168 69.3944 -0.782906 69.0669 -12.6388Z" fill="#1C1B17" fill-opacity="0.1"/>
<path d="M76.4353 17.9133C76.446 22.9091 76.4555 27.4069 76.4734 31.9046C76.474 32.0447 76.5627 32.1843 76.7811 32.8253C80.7724 28.5317 84.7369 24.5195 88.3917 20.2426C90.649 17.601 94.0501 14.5186 93.9842 11.7032C93.9165 8.80714 90.4198 5.85898 88.1369 3.17774C84.6354 -0.934658 80.8886 -4.8381 76.4353 -9.71849C76.4353 0.00496292 76.4353 8.71015 76.4353 17.9133Z" fill="#1C1B17" fill-opacity="0.1"/>
<path d="M42.5498 17.9133C42.5391 22.9091 42.5297 27.4069 42.5117 31.9046C42.5111 32.0447 42.4224 32.1843 42.204 32.8253C38.2127 28.5317 34.2482 24.5195 30.5935 20.2426C28.3361 17.601 24.935 14.5186 25.0009 11.7032C25.0686 8.80714 28.5653 5.85898 30.8482 3.17774C34.3497 -0.934658 38.0965 -4.8381 42.5498 -9.71849C42.5498 0.00496292 42.5498 8.71015 42.5498 17.9133Z" fill="#1C1B17" fill-opacity="0.1"/>
<path d="M269.067 427.164C266.799 427.525 264.84 427.525 262.479 427.525C262.479 413.863 262.479 400.446 262.479 386.82C260.341 386.82 258.606 386.82 256.465 386.82C256.465 400.351 256.465 413.769 256.465 427.391C253.997 427.391 251.931 427.391 249.435 427.391C249.435 416.79 249.154 406.328 249.539 395.89C249.776 389.443 248.849 383.839 243 380.006C248.555 373.566 253.765 367.526 259.395 361C264.83 367.243 270.051 373.24 275.522 379.524C274.97 380.22 274.37 381.153 273.601 381.916C270.703 384.794 269.224 387.984 269.331 392.321C269.614 403.809 269.394 415.308 269.067 427.164Z" fill="#1C1B17" fill-opacity="0.1"/>
<path d="M276.435 396.612C276.446 391.616 276.455 387.119 276.473 382.621C276.474 382.481 276.563 382.341 276.781 381.7C280.772 385.994 284.737 390.006 288.392 394.283C290.649 396.925 294.05 400.007 293.984 402.822C293.917 405.718 290.42 408.667 288.137 411.348C284.635 415.46 280.889 419.364 276.435 424.244C276.435 414.521 276.435 405.815 276.435 396.612Z" fill="#1C1B17" fill-opacity="0.1"/>
<path d="M242.55 396.612C242.539 391.616 242.53 387.119 242.512 382.621C242.511 382.481 242.422 382.341 242.204 381.7C238.213 385.994 234.248 390.006 230.593 394.283C228.336 396.925 224.935 400.007 225.001 402.822C225.069 405.718 228.565 408.667 230.848 411.348C234.35 415.46 238.097 419.364 242.55 424.244C242.55 414.521 242.55 405.815 242.55 396.612Z" fill="#1C1B17" fill-opacity="0.1"/>
<path d="M269.067 319.164C266.799 319.525 264.84 319.525 262.479 319.525C262.479 305.863 262.479 292.446 262.479 278.82C260.341 278.82 258.606 278.82 256.465 278.82C256.465 292.351 256.465 305.769 256.465 319.391C253.997 319.391 251.931 319.391 249.435 319.391C249.435 308.79 249.154 298.328 249.539 287.89C249.776 281.443 248.849 275.839 243 272.006C248.555 265.566 253.765 259.526 259.395 253C264.83 259.243 270.051 265.24 275.522 271.524C274.97 272.22 274.37 273.153 273.601 273.916C270.703 276.794 269.224 279.984 269.331 284.321C269.614 295.809 269.394 307.308 269.067 319.164Z" fill="#1C1B17" fill-opacity="0.1"/>
<path d="M276.435 288.612C276.446 283.616 276.455 279.119 276.473 274.621C276.474 274.481 276.563 274.341 276.781 273.7C280.772 277.994 284.737 282.006 288.392 286.283C290.649 288.924 294.05 292.007 293.984 294.822C293.917 297.718 290.42 300.666 288.137 303.348C284.635 307.46 280.889 311.363 276.435 316.244C276.435 306.52 276.435 297.815 276.435 288.612Z" fill="#1C1B17" fill-opacity="0.1"/>
<path d="M242.55 288.612C242.539 283.616 242.53 279.119 242.512 274.621C242.511 274.481 242.422 274.341 242.204 273.7C238.213 277.994 234.248 282.006 230.593 286.283C228.336 288.924 224.935 292.007 225.001 294.822C225.069 297.718 228.565 300.666 230.848 303.348C234.35 307.46 238.097 311.363 242.55 316.244C242.55 306.52 242.55 297.815 242.55 288.612Z" fill="#1C1B17" fill-opacity="0.1"/>
<path d="M269.067 208.164C266.799 208.525 264.84 208.525 262.479 208.525C262.479 194.863 262.479 181.446 262.479 167.82C260.341 167.82 258.606 167.82 256.465 167.82C256.465 181.351 256.465 194.769 256.465 208.391C253.997 208.391 251.931 208.391 249.435 208.391C249.435 197.79 249.154 187.328 249.539 176.89C249.776 170.443 248.849 164.839 243 161.006C248.555 154.566 253.765 148.526 259.395 142C264.83 148.243 270.051 154.24 275.522 160.524C274.97 161.22 274.37 162.153 273.601 162.916C270.703 165.794 269.224 168.984 269.331 173.321C269.614 184.809 269.394 196.308 269.067 208.164Z" fill="#1C1B17" fill-opacity="0.1"/>
<path d="M276.435 177.612C276.446 172.616 276.455 168.119 276.473 163.621C276.474 163.481 276.563 163.341 276.781 162.7C280.772 166.994 284.737 171.006 288.392 175.283C290.649 177.924 294.05 181.007 293.984 183.822C293.917 186.718 290.42 189.666 288.137 192.348C284.635 196.46 280.889 200.363 276.435 205.244C276.435 195.52 276.435 186.815 276.435 177.612Z" fill="#1C1B17" fill-opacity="0.1"/>
<path d="M242.55 177.612C242.539 172.616 242.53 168.119 242.512 163.621C242.511 163.481 242.422 163.341 242.204 162.7C238.213 166.994 234.248 171.006 230.593 175.283C228.336 177.924 224.935 181.007 225.001 183.822C225.069 186.718 228.565 189.666 230.848 192.348C234.35 196.46 238.097 200.363 242.55 205.244C242.55 195.52 242.55 186.815 242.55 177.612Z" fill="#1C1B17" fill-opacity="0.1"/>
<path d="M269.067 97.1642C266.799 97.5253 264.84 97.5253 262.479 97.5253C262.479 83.8633 262.479 70.4463 262.479 56.8196C260.341 56.8196 258.606 56.8196 256.465 56.8196C256.465 70.3514 256.465 83.7685 256.465 97.3905C253.997 97.3905 251.931 97.3905 249.435 97.3905C249.435 86.79 249.154 76.3276 249.539 65.8896C249.776 59.4432 248.849 53.839 243 50.0057C248.555 43.5657 253.765 37.5258 259.395 31C264.83 37.2429 270.051 43.2404 275.522 49.5241C274.97 50.2202 274.37 51.1526 273.601 51.9158C270.703 54.7941 269.224 57.9837 269.331 62.3212C269.614 73.8086 269.394 85.3083 269.067 97.1642Z" fill="#1C1B17" fill-opacity="0.1"/>
<path d="M276.435 66.6121C276.446 61.6163 276.455 57.1185 276.473 52.6207C276.474 52.4807 276.563 52.3411 276.781 51.7001C280.772 55.9936 284.737 60.0059 288.392 64.2828C290.649 66.9244 294.05 70.0068 293.984 72.8222C293.917 75.7183 290.42 78.6664 288.137 81.3477C284.635 85.46 280.889 89.3635 276.435 94.2439C276.435 84.5204 276.435 75.8152 276.435 66.6121Z" fill="#1C1B17" fill-opacity="0.1"/>
<path d="M242.55 66.6121C242.539 61.6163 242.53 57.1185 242.512 52.6207C242.511 52.4807 242.422 52.3411 242.204 51.7001C238.213 55.9936 234.248 60.0059 230.593 64.2828C228.336 66.9244 224.935 70.0068 225.001 72.8222C225.069 75.7183 228.565 78.6664 230.848 81.3477C234.35 85.46 238.097 89.3635 242.55 94.2439C242.55 84.5204 242.55 75.8152 242.55 66.6121Z" fill="#1C1B17" fill-opacity="0.1"/>
<path d="M309.067 317.361C306.799 317 304.84 317 302.479 317C302.479 330.662 302.479 344.079 302.479 357.706C300.341 357.706 298.606 357.706 296.465 357.706C296.465 344.174 296.465 330.757 296.465 317.135C293.997 317.135 291.931 317.135 289.435 317.135C289.435 327.735 289.154 338.198 289.539 348.636C289.776 355.082 288.849 360.686 283 364.52C288.555 370.96 293.765 377 299.395 383.525C304.83 377.283 310.051 371.285 315.522 365.001C314.97 364.305 314.37 363.373 313.601 362.61C310.703 359.731 309.224 356.542 309.331 352.204C309.614 340.717 309.394 329.217 309.067 317.361Z" fill="#1C1B17" fill-opacity="0.1"/>
<path d="M316.435 347.913C316.446 352.909 316.455 357.407 316.473 361.905C316.474 362.045 316.563 362.184 316.781 362.825C320.772 358.532 324.737 354.519 328.392 350.242C330.649 347.601 334.05 344.519 333.984 341.703C333.917 338.807 330.42 335.859 328.137 333.178C324.635 329.065 320.889 325.162 316.435 320.281C316.435 330.005 316.435 338.71 316.435 347.913Z" fill="#1C1B17" fill-opacity="0.1"/>
<path d="M282.55 347.913C282.539 352.909 282.53 357.407 282.512 361.905C282.511 362.045 282.422 362.184 282.204 362.825C278.213 358.532 274.248 354.519 270.593 350.242C268.336 347.601 264.935 344.519 265.001 341.703C265.069 338.807 268.565 335.859 270.848 333.178C274.35 329.065 278.097 325.162 282.55 320.281C282.55 330.005 282.55 338.71 282.55 347.913Z" fill="#1C1B17" fill-opacity="0.1"/>
<path d="M309.067 209.361C306.799 209 304.84 209 302.479 209C302.479 222.662 302.479 236.079 302.479 249.706C300.341 249.706 298.606 249.706 296.465 249.706C296.465 236.174 296.465 222.757 296.465 209.135C293.997 209.135 291.931 209.135 289.435 209.135C289.435 219.735 289.154 230.198 289.539 240.636C289.776 247.082 288.849 252.686 283 256.52C288.555 262.96 293.765 269 299.395 275.525C304.83 269.283 310.051 263.285 315.522 257.001C314.97 256.305 314.37 255.373 313.601 254.61C310.703 251.731 309.224 248.542 309.331 244.204C309.614 232.717 309.394 221.217 309.067 209.361Z" fill="#1C1B17" fill-opacity="0.1"/>
<path d="M316.435 239.913C316.446 244.909 316.455 249.407 316.473 253.905C316.474 254.045 316.563 254.184 316.781 254.825C320.772 250.532 324.737 246.519 328.392 242.243C330.649 239.601 334.05 236.519 333.984 233.703C333.917 230.807 330.42 227.859 328.137 225.178C324.635 221.065 320.889 217.162 316.435 212.282C316.435 222.005 316.435 230.71 316.435 239.913Z" fill="#1C1B17" fill-opacity="0.1"/>
<path d="M282.55 239.913C282.539 244.909 282.53 249.407 282.512 253.905C282.511 254.045 282.422 254.184 282.204 254.825C278.213 250.532 274.248 246.519 270.593 242.243C268.336 239.601 264.935 236.519 265.001 233.703C265.069 230.807 268.565 227.859 270.848 225.178C274.35 221.065 278.097 217.162 282.55 212.282C282.55 222.005 282.55 230.71 282.55 239.913Z" fill="#1C1B17" fill-opacity="0.1"/>
<path d="M309.067 98.3612C306.799 98.0001 304.84 98.0001 302.479 98.0001C302.479 111.662 302.479 125.079 302.479 138.706C300.341 138.706 298.606 138.706 296.465 138.706C296.465 125.174 296.465 111.757 296.465 98.1349C293.997 98.1349 291.931 98.1349 289.435 98.1349C289.435 108.735 289.154 119.198 289.539 129.636C289.776 136.082 288.849 141.686 283 145.52C288.555 151.96 293.765 158 299.395 164.525C304.83 158.283 310.051 152.285 315.522 146.001C314.97 145.305 314.37 144.373 313.601 143.61C310.703 140.731 309.224 137.542 309.331 133.204C309.614 121.717 309.394 110.217 309.067 98.3612Z" fill="#1C1B17" fill-opacity="0.1"/>
<path d="M316.435 128.913C316.446 133.909 316.455 138.407 316.473 142.905C316.474 143.045 316.563 143.184 316.781 143.825C320.772 139.532 324.737 135.519 328.392 131.243C330.649 128.601 334.05 125.519 333.984 122.703C333.917 119.807 330.42 116.859 328.137 114.178C324.635 110.065 320.889 106.162 316.435 101.282C316.435 111.005 316.435 119.71 316.435 128.913Z" fill="#1C1B17" fill-opacity="0.1"/>
<path d="M282.55 128.913C282.539 133.909 282.53 138.407 282.512 142.905C282.511 143.045 282.422 143.184 282.204 143.825C278.213 139.532 274.248 135.519 270.593 131.243C268.336 128.601 264.935 125.519 265.001 122.703C265.069 119.807 268.565 116.859 270.848 114.178C274.35 110.065 278.097 106.162 282.55 101.282C282.55 111.005 282.55 119.71 282.55 128.913Z" fill="#1C1B17" fill-opacity="0.1"/>
<path d="M309.067 -12.6388C306.799 -12.9999 304.84 -12.9999 302.479 -12.9999C302.479 0.662075 302.479 14.0791 302.479 27.7058C300.341 27.7058 298.606 27.7058 296.465 27.7058C296.465 14.174 296.465 0.756886 296.465 -12.8651C293.997 -12.8651 291.931 -12.8651 289.435 -12.8651C289.435 -2.26464 289.154 8.19783 289.539 18.6358C289.776 25.0821 288.849 30.6864 283 34.5197C288.555 40.9597 293.765 46.9996 299.395 53.5254C304.83 47.2825 310.051 41.285 315.522 35.0013C314.97 34.3052 314.37 33.3728 313.601 32.6096C310.703 29.7313 309.224 26.5416 309.331 22.2042C309.614 10.7168 309.394 -0.782906 309.067 -12.6388Z" fill="#1C1B17" fill-opacity="0.1"/>
<path d="M316.435 17.9133C316.446 22.9091 316.455 27.4069 316.473 31.9046C316.474 32.0447 316.563 32.1843 316.781 32.8253C320.772 28.5317 324.737 24.5195 328.392 20.2426C330.649 17.601 334.05 14.5186 333.984 11.7032C333.917 8.80714 330.42 5.85898 328.137 3.17774C324.635 -0.934658 320.889 -4.8381 316.435 -9.71849C316.435 0.00496292 316.435 8.71015 316.435 17.9133Z" fill="#1C1B17" fill-opacity="0.1"/>
<path d="M282.55 17.9133C282.539 22.9091 282.53 27.4069 282.512 31.9046C282.511 32.0447 282.422 32.1843 282.204 32.8253C278.213 28.5317 274.248 24.5195 270.593 20.2426C268.336 17.601 264.935 14.5186 265.001 11.7032C265.069 8.80714 268.565 5.85898 270.848 3.17774C274.35 -0.934658 278.097 -4.8381 282.55 -9.71849C282.55 0.00496292 282.55 8.71015 282.55 17.9133Z" fill="#1C1B17" fill-opacity="0.1"/>
<path d="M-3.5647 347.913C-3.55398 352.909 -3.54455 357.407 -3.52658 361.905C-3.52602 362.045 -3.43726 362.184 -3.21889 362.825C0.772442 358.532 4.7369 354.519 8.39165 350.242C10.649 347.601 14.0501 344.519 13.9842 341.703C13.9165 338.807 10.4198 335.859 8.13692 333.178C4.63545 329.065 0.888561 325.162 -3.5647 320.281C-3.5647 330.005 -3.5647 338.71 -3.5647 347.913Z" fill="#1C1B17" fill-opacity="0.1"/>
<path d="M-3.5647 239.913C-3.55398 244.909 -3.54455 249.407 -3.52658 253.905C-3.52602 254.045 -3.43726 254.184 -3.21889 254.825C0.772442 250.532 4.7369 246.519 8.39165 242.243C10.649 239.601 14.0501 236.519 13.9842 233.703C13.9165 230.807 10.4198 227.859 8.13692 225.178C4.63545 221.065 0.888561 217.162 -3.5647 212.282C-3.5647 222.005 -3.5647 230.71 -3.5647 239.913Z" fill="#1C1B17" fill-opacity="0.1"/>
<path d="M-3.5647 128.913C-3.55398 133.909 -3.54455 138.407 -3.52658 142.905C-3.52602 143.045 -3.43726 143.184 -3.21889 143.825C0.772442 139.532 4.7369 135.519 8.39165 131.243C10.649 128.601 14.0501 125.519 13.9842 122.703C13.9165 119.807 10.4198 116.859 8.13692 114.178C4.63545 110.065 0.888561 106.162 -3.5647 101.282C-3.5647 111.005 -3.5647 119.71 -3.5647 128.913Z" fill="#1C1B17" fill-opacity="0.1"/>
<path d="M-3.5647 17.9133C-3.55398 22.9091 -3.54455 27.4069 -3.52658 31.9046C-3.52602 32.0447 -3.43726 32.1843 -3.21889 32.8253C0.772442 28.5317 4.7369 24.5195 8.39165 20.2426C10.649 17.601 14.0501 14.5186 13.9842 11.7032C13.9165 8.80714 10.4198 5.85898 8.13692 3.17774C4.63545 -0.934658 0.888561 -4.8381 -3.5647 -9.71849C-3.5647 0.00496292 -3.5647 8.71015 -3.5647 17.9133Z" fill="#1C1B17" fill-opacity="0.1"/>
<path d="M189.067 427.164C186.799 427.525 184.84 427.525 182.479 427.525C182.479 413.863 182.479 400.446 182.479 386.82C180.341 386.82 178.606 386.82 176.465 386.82C176.465 400.351 176.465 413.769 176.465 427.391C173.997 427.391 171.931 427.391 169.435 427.391C169.435 416.79 169.154 406.328 169.539 395.89C169.776 389.443 168.849 383.839 163 380.006C168.555 373.566 173.765 367.526 179.395 361C184.83 367.243 190.051 373.24 195.522 379.524C194.97 380.22 194.37 381.153 193.601 381.916C190.703 384.794 189.224 387.984 189.331 392.321C189.614 403.809 189.394 415.308 189.067 427.164Z" fill="#1C1B17" fill-opacity="0.1"/>
<path d="M196.435 396.612C196.446 391.616 196.455 387.119 196.473 382.621C196.474 382.481 196.563 382.341 196.781 381.7C200.772 385.994 204.737 390.006 208.392 394.283C210.649 396.925 214.05 400.007 213.984 402.822C213.917 405.718 210.42 408.667 208.137 411.348C204.635 415.46 200.889 419.364 196.435 424.244C196.435 414.521 196.435 405.815 196.435 396.612Z" fill="#1C1B17" fill-opacity="0.1"/>
<path d="M162.55 396.612C162.539 391.616 162.53 387.119 162.512 382.621C162.511 382.481 162.422 382.341 162.204 381.7C158.213 385.994 154.248 390.006 150.593 394.283C148.336 396.925 144.935 400.007 145.001 402.822C145.069 405.718 148.565 408.667 150.848 411.348C154.35 415.46 158.097 419.364 162.55 424.244C162.55 414.521 162.55 405.815 162.55 396.612Z" fill="#1C1B17" fill-opacity="0.1"/>
<path d="M189.067 319.164C186.799 319.525 184.84 319.525 182.479 319.525C182.479 305.863 182.479 292.446 182.479 278.82C180.341 278.82 178.606 278.82 176.465 278.82C176.465 292.351 176.465 305.769 176.465 319.391C173.997 319.391 171.931 319.391 169.435 319.391C169.435 308.79 169.154 298.328 169.539 287.89C169.776 281.443 168.849 275.839 163 272.006C168.555 265.566 173.765 259.526 179.395 253C184.83 259.243 190.051 265.24 195.522 271.524C194.97 272.22 194.37 273.153 193.601 273.916C190.703 276.794 189.224 279.984 189.331 284.321C189.614 295.809 189.394 307.308 189.067 319.164Z" fill="#1C1B17" fill-opacity="0.1"/>
<path d="M196.435 288.612C196.446 283.616 196.455 279.119 196.473 274.621C196.474 274.481 196.563 274.341 196.781 273.7C200.772 277.994 204.737 282.006 208.392 286.283C210.649 288.924 214.05 292.007 213.984 294.822C213.917 297.718 210.42 300.666 208.137 303.348C204.635 307.46 200.889 311.363 196.435 316.244C196.435 306.52 196.435 297.815 196.435 288.612Z" fill="#1C1B17" fill-opacity="0.1"/>
<path d="M162.55 288.612C162.539 283.616 162.53 279.119 162.512 274.621C162.511 274.481 162.422 274.341 162.204 273.7C158.213 277.994 154.248 282.006 150.593 286.283C148.336 288.924 144.935 292.007 145.001 294.822C145.069 297.718 148.565 300.666 150.848 303.348C154.35 307.46 158.097 311.363 162.55 316.244C162.55 306.52 162.55 297.815 162.55 288.612Z" fill="#1C1B17" fill-opacity="0.1"/>
<path d="M189.067 208.164C186.799 208.525 184.84 208.525 182.479 208.525C182.479 194.863 182.479 181.446 182.479 167.82C180.341 167.82 178.606 167.82 176.465 167.82C176.465 181.351 176.465 194.769 176.465 208.391C173.997 208.391 171.931 208.391 169.435 208.391C169.435 197.79 169.154 187.328 169.539 176.89C169.776 170.443 168.849 164.839 163 161.006C168.555 154.566 173.765 148.526 179.395 142C184.83 148.243 190.051 154.24 195.522 160.524C194.97 161.22 194.37 162.153 193.601 162.916C190.703 165.794 189.224 168.984 189.331 173.321C189.614 184.809 189.394 196.308 189.067 208.164Z" fill="#1C1B17" fill-opacity="0.1"/>
<path d="M196.435 177.612C196.446 172.616 196.455 168.119 196.473 163.621C196.474 163.481 196.563 163.341 196.781 162.7C200.772 166.994 204.737 171.006 208.392 175.283C210.649 177.924 214.05 181.007 213.984 183.822C213.917 186.718 210.42 189.666 208.137 192.348C204.635 196.46 200.889 200.363 196.435 205.244C196.435 195.52 196.435 186.815 196.435 177.612Z" fill="#1C1B17" fill-opacity="0.1"/>
<path d="M162.55 177.612C162.539 172.616 162.53 168.119 162.512 163.621C162.511 163.481 162.422 163.341 162.204 162.7C158.213 166.994 154.248 171.006 150.593 175.283C148.336 177.924 144.935 181.007 145.001 183.822C145.069 186.718 148.565 189.666 150.848 192.348C154.35 196.46 158.097 200.363 162.55 205.244C162.55 195.52 162.55 186.815 162.55 177.612Z" fill="#1C1B17" fill-opacity="0.1"/>
<path d="M189.067 97.1642C186.799 97.5253 184.84 97.5253 182.479 97.5253C182.479 83.8633 182.479 70.4463 182.479 56.8196C180.341 56.8196 178.606 56.8196 176.465 56.8196C176.465 70.3514 176.465 83.7685 176.465 97.3905C173.997 97.3905 171.931 97.3905 169.435 97.3905C169.435 86.79 169.154 76.3276 169.539 65.8896C169.776 59.4432 168.849 53.839 163 50.0057C168.555 43.5657 173.765 37.5258 179.395 31C184.83 37.2429 190.051 43.2404 195.522 49.5241C194.97 50.2202 194.37 51.1526 193.601 51.9158C190.703 54.7941 189.224 57.9837 189.331 62.3212C189.614 73.8086 189.394 85.3083 189.067 97.1642Z" fill="#1C1B17" fill-opacity="0.1"/>
<path d="M196.435 66.6121C196.446 61.6163 196.455 57.1185 196.473 52.6207C196.474 52.4807 196.563 52.3411 196.781 51.7001C200.772 55.9936 204.737 60.0059 208.392 64.2828C210.649 66.9244 214.05 70.0068 213.984 72.8222C213.917 75.7183 210.42 78.6664 208.137 81.3477C204.635 85.46 200.889 89.3635 196.435 94.2439C196.435 84.5204 196.435 75.8152 196.435 66.6121Z" fill="#1C1B17" fill-opacity="0.1"/>
<path d="M162.55 66.6121C162.539 61.6163 162.53 57.1185 162.512 52.6207C162.511 52.4807 162.422 52.3411 162.204 51.7001C158.213 55.9936 154.248 60.0059 150.593 64.2828C148.336 66.9244 144.935 70.0068 145.001 72.8222C145.069 75.7183 148.565 78.6664 150.848 81.3477C154.35 85.46 158.097 89.3635 162.55 94.2439C162.55 84.5204 162.55 75.8152 162.55 66.6121Z" fill="#1C1B17" fill-opacity="0.1"/>
<path d="M229.067 317.361C226.799 317 224.84 317 222.479 317C222.479 330.662 222.479 344.079 222.479 357.706C220.341 357.706 218.606 357.706 216.465 357.706C216.465 344.174 216.465 330.757 216.465 317.135C213.997 317.135 211.931 317.135 209.435 317.135C209.435 327.735 209.154 338.198 209.539 348.636C209.776 355.082 208.849 360.686 203 364.52C208.555 370.96 213.765 377 219.395 383.525C224.83 377.283 230.051 371.285 235.522 365.001C234.97 364.305 234.37 363.373 233.601 362.61C230.703 359.731 229.224 356.542 229.331 352.204C229.614 340.717 229.394 329.217 229.067 317.361Z" fill="#1C1B17" fill-opacity="0.1"/>
<path d="M236.435 347.913C236.446 352.909 236.455 357.407 236.473 361.905C236.474 362.045 236.563 362.184 236.781 362.825C240.772 358.532 244.737 354.519 248.392 350.242C250.649 347.601 254.05 344.519 253.984 341.703C253.917 338.807 250.42 335.859 248.137 333.178C244.635 329.065 240.889 325.162 236.435 320.281C236.435 330.005 236.435 338.71 236.435 347.913Z" fill="#1C1B17" fill-opacity="0.1"/>
<path d="M202.55 347.913C202.539 352.909 202.53 357.407 202.512 361.905C202.511 362.045 202.422 362.184 202.204 362.825C198.213 358.532 194.248 354.519 190.593 350.242C188.336 347.601 184.935 344.519 185.001 341.703C185.069 338.807 188.565 335.859 190.848 333.178C194.35 329.065 198.097 325.162 202.55 320.281C202.55 330.005 202.55 338.71 202.55 347.913Z" fill="#1C1B17" fill-opacity="0.1"/>
<path d="M229.067 209.361C226.799 209 224.84 209 222.479 209C222.479 222.662 222.479 236.079 222.479 249.706C220.341 249.706 218.606 249.706 216.465 249.706C216.465 236.174 216.465 222.757 216.465 209.135C213.997 209.135 211.931 209.135 209.435 209.135C209.435 219.735 209.154 230.198 209.539 240.636C209.776 247.082 208.849 252.686 203 256.52C208.555 262.96 213.765 269 219.395 275.525C224.83 269.283 230.051 263.285 235.522 257.001C234.97 256.305 234.37 255.373 233.601 254.61C230.703 251.731 229.224 248.542 229.331 244.204C229.614 232.717 229.394 221.217 229.067 209.361Z" fill="#1C1B17" fill-opacity="0.1"/>
<path d="M236.435 239.913C236.446 244.909 236.455 249.407 236.473 253.905C236.474 254.045 236.563 254.184 236.781 254.825C240.772 250.532 244.737 246.519 248.392 242.243C250.649 239.601 254.05 236.519 253.984 233.703C253.917 230.807 250.42 227.859 248.137 225.178C244.635 221.065 240.889 217.162 236.435 212.282C236.435 222.005 236.435 230.71 236.435 239.913Z" fill="#1C1B17" fill-opacity="0.1"/>
<path d="M202.55 239.913C202.539 244.909 202.53 249.407 202.512 253.905C202.511 254.045 202.422 254.184 202.204 254.825C198.213 250.532 194.248 246.519 190.593 242.243C188.336 239.601 184.935 236.519 185.001 233.703C185.069 230.807 188.565 227.859 190.848 225.178C194.35 221.065 198.097 217.162 202.55 212.282C202.55 222.005 202.55 230.71 202.55 239.913Z" fill="#1C1B17" fill-opacity="0.1"/>
<path d="M229.067 98.3612C226.799 98.0001 224.84 98.0001 222.479 98.0001C222.479 111.662 222.479 125.079 222.479 138.706C220.341 138.706 218.606 138.706 216.465 138.706C216.465 125.174 216.465 111.757 216.465 98.1349C213.997 98.1349 211.931 98.1349 209.435 98.1349C209.435 108.735 209.154 119.198 209.539 129.636C209.776 136.082 208.849 141.686 203 145.52C208.555 151.96 213.765 158 219.395 164.525C224.83 158.283 230.051 152.285 235.522 146.001C234.97 145.305 234.37 144.373 233.601 143.61C230.703 140.731 229.224 137.542 229.331 133.204C229.614 121.717 229.394 110.217 229.067 98.3612Z" fill="#1C1B17" fill-opacity="0.1"/>
<path d="M236.435 128.913C236.446 133.909 236.455 138.407 236.473 142.905C236.474 143.045 236.563 143.184 236.781 143.825C240.772 139.532 244.737 135.519 248.392 131.243C250.649 128.601 254.05 125.519 253.984 122.703C253.917 119.807 250.42 116.859 248.137 114.178C244.635 110.065 240.889 106.162 236.435 101.282C236.435 111.005 236.435 119.71 236.435 128.913Z" fill="#1C1B17" fill-opacity="0.1"/>
<path d="M202.55 128.913C202.539 133.909 202.53 138.407 202.512 142.905C202.511 143.045 202.422 143.184 202.204 143.825C198.213 139.532 194.248 135.519 190.593 131.243C188.336 128.601 184.935 125.519 185.001 122.703C185.069 119.807 188.565 116.859 190.848 114.178C194.35 110.065 198.097 106.162 202.55 101.282C202.55 111.005 202.55 119.71 202.55 128.913Z" fill="#1C1B17" fill-opacity="0.1"/>
<path d="M229.067 -12.6388C226.799 -12.9999 224.84 -12.9999 222.479 -12.9999C222.479 0.662075 222.479 14.0791 222.479 27.7058C220.341 27.7058 218.606 27.7058 216.465 27.7058C216.465 14.174 216.465 0.756886 216.465 -12.8651C213.997 -12.8651 211.931 -12.8651 209.435 -12.8651C209.435 -2.26464 209.154 8.19783 209.539 18.6358C209.776 25.0821 208.849 30.6864 203 34.5197C208.555 40.9597 213.765 46.9996 219.395 53.5254C224.83 47.2825 230.051 41.285 235.522 35.0013C234.97 34.3052 234.37 33.3728 233.601 32.6096C230.703 29.7313 229.224 26.5416 229.331 22.2042C229.614 10.7168 229.394 -0.782906 229.067 -12.6388Z" fill="#1C1B17" fill-opacity="0.1"/>
<path d="M236.435 17.9133C236.446 22.9091 236.455 27.4069 236.473 31.9046C236.474 32.0447 236.563 32.1843 236.781 32.8253C240.772 28.5317 244.737 24.5195 248.392 20.2426C250.649 17.601 254.05 14.5186 253.984 11.7032C253.917 8.80714 250.42 5.85898 248.137 3.17774C244.635 -0.934658 240.889 -4.8381 236.435 -9.71849C236.435 0.00496292 236.435 8.71015 236.435 17.9133Z" fill="#1C1B17" fill-opacity="0.1"/>
<path d="M202.55 17.9133C202.539 22.9091 202.53 27.4069 202.512 31.9046C202.511 32.0447 202.422 32.1843 202.204 32.8253C198.213 28.5317 194.248 24.5195 190.593 20.2426C188.336 17.601 184.935 14.5186 185.001 11.7032C185.069 8.80714 188.565 5.85898 190.848 3.17774C194.35 -0.934658 198.097 -4.8381 202.55 -9.71849C202.55 0.00496292 202.55 8.71015 202.55 17.9133Z" fill="#1C1B17" fill-opacity="0.1"/>
</g>
<defs>
<clipPath id="clip0_19_6041">
<rect width="551" height="440" fill="white" transform="translate(-97)"/>
</clipPath>
</defs>
</svg>
