<svg width="72" height="73" viewBox="0 0 72 73" fill="none" xmlns="http://www.w3.org/2000/svg">
<rect y="0.234131" width="72" height="72" rx="36" fill="white"/>
<path d="M31.8623 24.409L34.0605 28.1486H33.9784H29.4303C28.0342 28.1486 26.9035 27.0179 26.9035 25.6218C26.9035 24.2258 28.0342 23.0951 29.4303 23.0951H29.5692C30.5104 23.0951 31.3885 23.5941 31.8623 24.409ZM23.8714 25.6218C23.8714 26.5315 24.0925 27.3906 24.4778 28.1486H21.85C20.7319 28.1486 19.8286 29.0519 19.8286 30.17V34.2128C19.8286 35.3309 20.7319 36.2342 21.85 36.2342H50.1496C51.2677 36.2342 52.171 35.3309 52.171 34.2128V30.17C52.171 29.0519 51.2677 28.1486 50.1496 28.1486H47.5218C47.9071 27.3906 48.1282 26.5315 48.1282 25.6218C48.1282 22.5518 45.6394 20.063 42.5694 20.063H42.4304C40.4153 20.063 38.5455 21.1305 37.5222 22.8677L35.9998 25.4639L34.4774 22.874C33.4541 21.1305 31.5843 20.063 29.5692 20.063H29.4303C26.3603 20.063 23.8714 22.5518 23.8714 25.6218ZM45.0961 25.6218C45.0961 27.0179 43.9654 28.1486 42.5694 28.1486H38.0212H37.9391L40.1374 24.409C40.6174 23.5941 41.4892 23.0951 42.4304 23.0951H42.5694C43.9654 23.0951 45.0961 24.2258 45.0961 25.6218ZM21.85 38.2556V49.3733C21.85 51.0473 23.2081 52.4054 24.8821 52.4054H33.9784V38.2556H21.85ZM38.0212 52.4054H47.1175C48.7915 52.4054 50.1496 51.0473 50.1496 49.3733V38.2556H38.0212V52.4054Z" fill="#054F3E"/>
</svg>
