<svg width="24" height="25" viewBox="0 0 24 25" fill="none" xmlns="http://www.w3.org/2000/svg">
<path d="M12 6.36672C8.59398 6.36672 5.84669 9.11402 5.84669 12.52C5.84669 15.926 8.59398 18.6733 12 18.6733C15.406 18.6733 18.1533 15.926 18.1533 12.52C18.1533 9.11402 15.406 6.36672 12 6.36672ZM12 16.5205C9.79894 16.5205 7.99954 14.7264 7.99954 12.52C7.99954 10.3136 9.79358 8.51957 12 8.51957C14.2064 8.51957 16.0004 10.3136 16.0004 12.52C16.0004 14.7264 14.201 16.5205 12 16.5205ZM19.8402 6.11502C19.8402 6.91297 19.1976 7.55026 18.405 7.55026C17.607 7.55026 16.9697 6.90761 16.9697 6.11502C16.9697 5.32243 17.6124 4.67979 18.405 4.67979C19.1976 4.67979 19.8402 5.32243 19.8402 6.11502ZM23.9156 7.57168C23.8246 5.64911 23.3855 3.9461 21.977 2.543C20.5739 1.1399 18.8709 0.700763 16.9483 0.604366C14.9668 0.491904 9.02777 0.491904 7.04629 0.604366C5.12907 0.695407 3.42607 1.13455 2.01761 2.53765C0.609155 3.94075 0.175372 5.64375 0.0789757 7.56632C-0.0334867 9.5478 -0.0334867 15.4869 0.0789757 17.4684C0.170017 19.3909 0.609155 21.0939 2.01761 22.497C3.42607 23.9001 5.12372 24.3393 7.04629 24.4357C9.02777 24.5481 14.9668 24.5481 16.9483 24.4357C18.8709 24.3446 20.5739 23.9055 21.977 22.497C23.3801 21.0939 23.8192 19.3909 23.9156 17.4684C24.0281 15.4869 24.0281 9.55316 23.9156 7.57168ZM21.3558 19.5944C20.9381 20.6441 20.1294 21.4527 19.0744 21.8758C17.4946 22.5024 13.7458 22.3578 12 22.3578C10.2541 22.3578 6.50004 22.497 4.92557 21.8758C3.87592 21.4581 3.06726 20.6494 2.64419 19.5944C2.01761 18.0146 2.16221 14.2659 2.16221 12.52C2.16221 10.7742 2.02297 7.02008 2.64419 5.4456C3.06191 4.39595 3.87056 3.5873 4.92557 3.16422C6.5054 2.53765 10.2541 2.68224 12 2.68224C13.7458 2.68224 17.4999 2.543 19.0744 3.16422C20.1241 3.58194 20.9327 4.3906 21.3558 5.4456C21.9824 7.02543 21.8378 10.7742 21.8378 12.52C21.8378 14.2659 21.9824 18.02 21.3558 19.5944Z" fill="white"/>
</svg>
