<svg width="60" height="79" viewBox="0 0 60 79" fill="none" xmlns="http://www.w3.org/2000/svg">
<path d="M33.6199 76.3135C41.4554 66.5076 59.3259 42.7414 59.3259 29.3921C59.3259 13.2017 46.1903 0.0661621 30 0.0661621C13.8096 0.0661621 0.674072 13.2017 0.674072 29.3921C0.674072 42.7414 18.5445 66.5076 26.38 76.3135C28.2587 78.6504 31.7412 78.6504 33.6199 76.3135ZM30 19.6168C32.5925 19.6168 35.0789 20.6467 36.9121 22.4799C38.7454 24.3131 39.7753 26.7995 39.7753 29.3921C39.7753 31.9846 38.7454 34.471 36.9121 36.3042C35.0789 38.1375 32.5925 39.1674 30 39.1674C27.4074 39.1674 24.921 38.1375 23.0878 36.3042C21.2546 34.471 20.2247 31.9846 20.2247 29.3921C20.2247 26.7995 21.2546 24.3131 23.0878 22.4799C24.921 20.6467 27.4074 19.6168 30 19.6168Z" fill="white"/>
</svg>
