<svg width="24" height="32" viewBox="0 0 24 32" fill="currentColor" xmlns="http://www.w3.org/2000/svg">
<path d="M13.4827 30.3858C16.509 26.5985 23.411 17.4194 23.411 12.2636C23.411 6.01051 18.3377 0.937256 12.0846 0.937256C5.83156 0.937256 0.758301 6.01051 0.758301 12.2636C0.758301 17.4194 7.66029 26.5985 10.6865 30.3858C11.4121 31.2883 12.7571 31.2883 13.4827 30.3858ZM12.0846 8.48815C13.086 8.48815 14.0463 8.88592 14.7543 9.59396C15.4623 10.302 15.8601 11.2623 15.8601 12.2636C15.8601 13.2649 15.4623 14.2252 14.7543 14.9332C14.0463 15.6413 13.086 16.039 12.0846 16.039C11.0833 16.039 10.123 15.6413 9.415 14.9332C8.70697 14.2252 8.3092 13.2649 8.3092 12.2636C8.3092 11.2623 8.70697 10.302 9.415 9.59396C10.123 8.88592 11.0833 8.48815 12.0846 8.48815Z" fill="#054F3E"/>
</svg>
