<svg width="157" height="56" viewBox="0 0 157 56" fill="none" xmlns="http://www.w3.org/2000/svg">
<rect width="156.529" height="55.0694" rx="6.31579" fill="#054F3E"/>
<path d="M22.3799 18.9897C22.9465 18.3357 23.5134 17.6818 24.0797 17.0275C24.7141 16.2945 25.3509 15.5636 25.9812 14.8272C26.6325 14.0662 27.2769 13.2993 27.9253 12.5358C28.1359 12.2878 28.3498 12.0426 28.5685 11.7804C28.6118 11.7647 28.649 11.7647 28.7047 11.7647C28.8731 11.9555 29.0159 12.1524 29.1741 12.3361C29.7274 12.9784 30.2854 13.6166 30.8426 14.2555C31.5018 15.0114 32.1657 15.7632 32.8209 16.5225C33.5187 17.3314 34.2087 18.1471 34.9131 18.9863C34.936 19.0237 34.948 19.0347 34.96 19.0458C34.9618 19.0539 34.9636 19.062 34.9468 19.0853C34.8068 19.1157 34.6855 19.144 34.5642 19.1441C31.4245 19.1465 28.2847 19.146 25.1449 19.146C24.3291 19.146 23.5132 19.1517 22.6975 19.1391C22.5909 19.1374 22.4857 19.0418 22.3799 18.9897Z" fill="#F2E17C"/>
<path d="M22.3656 18.9992C22.4856 19.0418 22.5908 19.1374 22.6974 19.1391C23.513 19.1517 24.329 19.146 25.1448 19.146C28.2846 19.146 31.4243 19.1465 34.5641 19.1441C34.6854 19.144 34.8067 19.1157 34.949 19.0976C35.3154 19.4841 35.6641 19.871 36.0012 20.2677C36.0336 20.3058 36.021 20.4275 35.9836 20.4725C35.6757 20.844 35.3587 21.2081 35.041 21.5713C34.7822 21.8672 34.5186 22.1589 34.2186 22.4591C30.4768 22.466 26.7735 22.4664 23.0702 22.4668C22.755 22.1243 22.4344 21.7864 22.126 21.4379C21.8559 21.1326 21.605 20.8103 21.3342 20.5059C21.2373 20.3969 21.2291 20.3298 21.3298 20.2175C21.6279 19.8852 21.9135 19.5417 22.2028 19.2016C22.2553 19.1398 22.3021 19.0731 22.3656 18.9992Z" fill="#E9D473"/>
<path d="M36.9551 31.9775C36.9532 30.7874 36.9514 29.5973 36.9749 28.3839C38.83 28.3605 40.6597 28.3599 42.4894 28.3612C42.6331 28.3613 42.7747 28.37 42.844 28.2061C43.205 28.6125 43.5685 29.0168 43.9262 29.426C44.2039 29.7437 44.4754 30.0669 44.748 30.389C44.9935 30.6791 45.2316 30.9755 45.4832 31.26C45.5917 31.3828 45.5736 31.4635 45.462 31.5684C45.3505 31.6731 45.2585 31.7987 45.1211 31.9219C44.9299 31.9446 44.7756 31.9744 44.6211 31.9746C42.0658 31.9777 39.5105 31.9772 36.9551 31.9775Z" fill="#D0AD5A"/>
<path d="M23.0781 22.4818C26.7735 22.4664 30.4768 22.466 34.2037 22.4662C34.0421 22.6907 33.8682 22.9256 33.6683 23.1357C33.4487 23.3666 33.3093 23.5976 33.3208 23.9447C33.3489 24.7897 33.3294 25.6363 33.303 26.505C32.3396 26.5279 31.4023 26.5282 30.465 26.5284C30.465 25.5331 30.465 24.5378 30.465 23.5238C29.2514 23.5238 28.0628 23.5238 26.8393 23.5238C26.8393 24.3792 26.8393 25.2325 26.8134 26.1085C25.8501 26.1315 24.9127 26.1317 23.9754 26.1319C23.9728 25.3844 23.9535 24.6365 23.9757 23.8898C23.9847 23.587 23.8618 23.3844 23.6732 23.1816C23.4686 22.9616 23.281 22.7257 23.0781 22.4818Z" fill="#E0C569"/>
<path d="M36.9519 32.0004C39.5101 31.9772 42.0655 31.9777 44.6208 31.9745C44.7752 31.9744 44.9296 31.9446 45.1054 31.9288C44.5698 32.5741 44.0123 33.2188 43.4557 33.8643C42.9417 34.4605 42.4282 35.0571 41.9157 35.6546C41.8693 35.7088 41.8318 35.7706 41.751 35.8352C40.1261 35.8414 38.5405 35.8414 36.9548 35.8415C36.9529 34.5688 36.951 33.2961 36.9519 32.0004Z" fill="#C59E4F"/>
<path d="M13.6052 33.6142C13.3594 33.3235 13.1167 33.0301 12.8671 32.7427C12.5091 32.3306 12.1431 31.9252 11.7896 31.5092C11.7553 31.4688 11.7573 31.3547 11.7899 31.3079C11.914 31.1299 12.0575 30.9654 12.2128 30.8071C12.3667 30.8576 12.5014 30.9307 12.6364 30.9312C14.4823 30.9388 16.3282 30.9408 18.1741 30.9341C18.8971 30.9314 19.62 30.9037 20.3429 30.8874C20.3453 31.7968 20.3476 32.7062 20.3238 33.6384C18.0668 33.6455 15.836 33.6299 13.6052 33.6142Z" fill="#CAA454"/>
<path d="M20.3466 30.8644C19.6202 30.9037 18.8973 30.9314 18.1743 30.9341C16.3284 30.9408 14.4824 30.9387 12.6365 30.9312C12.5016 30.9306 12.3669 30.8576 12.2285 30.7992C12.898 30.0031 13.5721 29.2269 14.2433 28.4482C14.3755 28.2948 14.4969 28.1319 14.6407 27.9844C14.7541 28.0344 14.85 28.1071 14.9462 28.1075C16.5171 28.1146 18.0882 28.1145 19.6591 28.1104C19.8872 28.1098 20.1152 28.08 20.3432 28.0638C20.3455 28.9896 20.3478 29.9155 20.3466 30.8644Z" fill="#D1AF5B"/>
<path d="M13.6118 33.6296C15.8357 33.6299 18.0666 33.6455 20.32 33.6614C20.345 34.5875 20.3474 35.5134 20.3253 36.4621C19.9978 36.5014 19.6948 36.5337 19.392 36.5313C18.2891 36.5228 17.1862 36.5027 16.0834 36.4869C15.8273 36.1864 15.5712 35.8859 15.315 35.5855C14.8373 35.0254 14.3606 34.4644 13.8807 33.9061C13.8006 33.8129 13.7064 33.7317 13.6118 33.6296Z" fill="#C2984C"/>
<path d="M42.8366 28.1912C42.7743 28.37 42.6327 28.3613 42.489 28.3612C40.6593 28.3599 38.8296 28.3605 36.9773 28.3609C36.9528 27.3031 36.951 26.2451 36.9722 25.1644C37.0752 25.1576 37.1551 25.1871 37.2351 25.1874C38.0984 25.1908 38.9617 25.1904 39.825 25.1886C39.9573 25.1884 40.0759 25.1592 40.0689 24.9856C40.4319 25.399 40.7972 25.8104 41.1571 26.2265C41.3743 26.4776 41.58 26.7385 41.7965 26.9901C42.1384 27.3876 42.4849 27.781 42.8366 28.1912Z" fill="#D9BB63"/>
<path d="M26.8324 38.2194C26.8324 39.9089 26.8324 41.5985 26.8324 43.3047C25.8834 43.3047 24.9402 43.3047 23.9697 43.3047C23.9697 41.6076 23.9697 39.9118 23.9927 38.1957C24.1207 38.1899 24.2257 38.2162 24.3308 38.2166C25.1647 38.2203 25.9986 38.2191 26.8324 38.2194Z" fill="#B4833E"/>
<path d="M20.3462 28.0407C20.1148 28.08 19.8868 28.1098 19.6588 28.1104C18.0878 28.1145 16.5168 28.1146 14.9458 28.1075C14.8496 28.1071 14.7538 28.0344 14.6548 27.9752C15.2395 27.2804 15.8291 26.6074 16.414 25.9304C16.6636 25.6415 16.9035 25.3442 17.1724 25.0606C17.2884 25.0938 17.3796 25.1367 17.4711 25.1372C18.4284 25.1424 19.3856 25.1407 20.3429 25.141C20.3451 26.0999 20.3474 27.0588 20.3462 28.0407Z" fill="#D9BB63"/>
<path d="M36.9521 35.8645C38.5407 35.8415 40.1264 35.8414 41.7358 35.8421C41.0834 36.6233 40.4065 37.403 39.7314 38.1844C39.2221 38.774 38.7131 39.3639 38.2079 39.9571C37.8663 40.3583 37.531 40.7648 37.1944 41.1701C37.132 41.2452 37.0769 41.3263 37.0184 41.4045C36.9954 41.3905 36.9723 41.3764 36.9492 41.3624C36.9492 39.5374 36.9492 37.7125 36.9521 35.8645Z" fill="#BB8D45"/>
<path d="M30.4626 26.5514C31.4026 26.5282 32.3399 26.5279 33.2998 26.528C33.3247 27.9497 33.3271 29.371 33.3059 30.818C33.1779 30.8581 33.0736 30.8843 32.9691 30.8848C32.2552 30.8885 31.5414 30.889 30.8275 30.8846C30.7067 30.8838 30.5861 30.8545 30.4654 30.8383C30.4636 29.417 30.4618 27.9957 30.4626 26.5514Z" fill="#D3B35D"/>
<path d="M33.3226 39.0119C33.3226 40.4372 33.3226 41.8626 33.3226 43.3046C32.3733 43.3046 31.4303 43.3046 30.4595 43.3046C30.4595 41.8882 30.4595 40.4731 30.4851 39.0346C31.4481 39.0115 32.3853 39.0117 33.3226 39.0119Z" fill="#B3823D"/>
<path d="M26.8368 38.1964C25.9991 38.2191 25.1653 38.2203 24.3314 38.2166C24.2262 38.2162 24.1212 38.1898 23.9962 38.1728C23.9743 36.7817 23.9724 35.3934 23.996 33.9818C24.9586 33.9587 25.8958 33.9589 26.833 33.9591C26.8355 35.3639 26.838 36.7686 26.8368 38.1964Z" fill="#BF9549"/>
<path d="M30.4627 30.8613C30.5861 30.8545 30.7068 30.8838 30.8276 30.8846C31.5414 30.889 32.2553 30.8885 32.9691 30.8848C33.0736 30.8843 33.1779 30.8581 33.3023 30.8411C33.3247 32.21 33.3272 33.5817 33.3053 34.9762C33.1684 35.0153 33.0556 35.0471 32.9433 35.0455C32.1173 35.0339 31.2914 35.0156 30.4654 34.9994C30.4636 33.6277 30.4617 32.256 30.4627 30.8613Z" fill="#C8A152"/>
<path d="M26.8366 33.9361C25.8957 33.9589 24.9585 33.9587 23.9987 33.9588C23.9742 32.6039 23.9724 31.2487 23.9942 29.8701C24.2944 29.8632 24.5711 29.8955 24.8474 29.8928C25.5093 29.8864 26.1711 29.8636 26.8329 29.8474C26.8353 31.2027 26.8378 32.5579 26.8366 33.9361Z" fill="#CBA655"/>
<path d="M30.4626 35.0224C31.2914 35.0156 32.1173 35.0339 32.9434 35.0455C33.0557 35.0471 33.1684 35.0153 33.3017 34.9992C33.3248 36.3215 33.3273 37.6437 33.3261 38.9889C32.3852 39.0117 31.4479 39.0115 30.488 39.0116C30.4635 37.6897 30.4616 36.3675 30.4626 35.0224Z" fill="#BD9047"/>
<path d="M26.8361 29.8244C26.1708 29.8636 25.509 29.8864 24.8471 29.8928C24.5708 29.8955 24.2941 29.8632 23.9967 29.8471C23.9739 28.6243 23.972 27.4011 23.9728 26.1549C24.9129 26.1317 25.8503 26.1315 26.8102 26.1316C26.8351 27.355 26.8374 28.5782 26.8361 29.8244Z" fill="#D6B660"/>
<path d="M16.0908 36.5021C17.1865 36.5027 18.2894 36.5228 19.3923 36.5314C19.695 36.5337 19.9981 36.5014 20.3219 36.4851C20.3429 38.108 20.3429 39.7307 20.3429 41.4108C20.1328 41.1822 19.9451 40.9891 19.7702 40.785C19.5283 40.5028 19.2999 40.2089 19.0587 39.9261C18.5502 39.3299 18.0393 38.7358 17.5254 38.1443C17.0523 37.5996 16.574 37.0595 16.0908 36.5021Z" fill="#BA8C44"/>
<path d="M40.0619 24.9709C40.0759 25.1593 39.9573 25.1884 39.825 25.1886C38.9617 25.1904 38.0984 25.1908 37.2351 25.1874C37.1551 25.1871 37.0752 25.1576 36.9749 25.1414C36.9546 23.899 36.9546 22.657 36.9546 21.3675C37.1262 21.5551 37.275 21.7102 37.4154 21.8727C37.8041 22.3226 38.1914 22.7738 38.5753 23.2279C38.98 23.7068 39.3789 24.1905 39.783 24.6699C39.8677 24.7704 39.964 24.8611 40.0619 24.9709Z" fill="#E1C86B"/>
<path d="M20.3466 25.1179C19.386 25.1408 18.4288 25.1424 17.4715 25.1372C17.38 25.1367 17.2888 25.0938 17.188 25.0527C18.2209 23.8212 19.2632 22.6076 20.3499 21.3422C20.3499 22.6356 20.3499 23.8653 20.3466 25.1179Z" fill="#E1C86B"/>
<path d="M34.9586 19.0332C34.9478 19.035 34.9358 19.0239 34.9204 19.0005C34.9305 18.999 34.9439 19.0096 34.9586 19.0332Z" fill="#E9D473"/>
<g clip-path="url(#clip0_218_210)">
<path d="M55.0005 24.8038C55.0388 24.7063 55.0772 24.6273 55.1448 24.5555C55.2714 24.5708 55.3687 24.586 55.466 24.5861C57.6153 24.5874 59.7645 24.5857 61.9137 24.5893C62.1338 24.5897 62.3538 24.6203 62.5738 24.6368C62.1513 25.1978 61.5463 25.4673 60.895 25.6187C60.409 25.7317 59.9047 25.7761 59.4059 25.8224C58.5673 25.9003 57.7501 25.771 56.96 25.4884C56.4932 25.3214 56.0382 25.1217 55.5728 24.9505C55.4918 24.9207 55.3591 24.926 55.2965 24.9746C55.1808 25.0645 55.1118 25.0503 55.0177 24.9397C55.0005 24.8967 55.0005 24.8596 55.0005 24.8038Z" fill="#B4833E"/>
<path d="M141.193 19.0364C141.405 18.7011 141.614 18.3648 141.827 18.0306C141.988 17.7789 141.954 17.6588 141.699 17.5001C141.621 17.4519 141.572 17.3582 141.51 17.2853C141.527 17.2589 141.544 17.2324 141.561 17.206C142.63 17.206 143.699 17.206 144.791 17.2059C144.814 17.2746 144.814 17.3434 144.814 17.4329C144.326 17.5375 144.106 17.9445 143.833 18.2809C143.629 18.5337 143.453 18.8094 143.225 19.0819C142.618 19.0887 142.049 19.0909 141.48 19.0861C141.385 19.0853 141.289 19.0538 141.193 19.0364Z" fill="#F2E17C"/>
<path d="M113.067 31.4739C113.065 31.0451 113.065 30.6163 113.058 30.1876C113.055 29.9667 113.012 29.7697 112.763 29.6757C112.702 29.6525 112.678 29.5298 112.604 29.3925C112.764 29.3925 112.851 29.3925 112.937 29.3925C114.776 29.3925 116.616 29.383 118.455 29.398C119.034 29.4027 119.621 29.4629 120.156 29.6956C120.809 29.9791 121.21 30.5009 121.379 31.1951C121.402 31.2897 121.413 31.387 121.404 31.503C120.767 31.5231 120.155 31.5233 119.53 31.5143C119.384 31.1762 119.128 30.9848 118.797 30.9037C118.601 30.8558 118.395 30.8335 118.193 30.8321C117.18 30.8252 116.167 30.8286 115.154 30.8297C115.09 30.8298 115.027 30.8407 114.934 30.8493C114.934 31.0659 114.934 31.2699 114.912 31.4736C114.282 31.4735 113.674 31.4737 113.067 31.4739Z" fill="#F2E27C"/>
<path d="M116.385 19.2377C116.383 18.7923 116.376 18.3467 116.381 17.9014C116.384 17.717 116.326 17.584 116.15 17.5152C116.023 17.4658 115.932 17.3973 116.009 17.2059C116.07 17.2059 116.148 17.2059 116.227 17.2059C118.166 17.2059 120.105 17.1922 122.044 17.2136C122.679 17.2206 123.321 17.3343 123.856 17.7062C124.283 18.0028 124.618 18.4001 124.681 18.9685C124.11 18.9889 123.561 18.9855 123.012 18.993C122.924 18.9942 122.836 19.0441 122.742 19.0665C122.737 19.0615 122.73 19.0491 122.721 19.0341C122.689 19.0103 122.668 19.0015 122.633 18.9842C122.361 18.6827 122 18.6541 121.655 18.6485C120.619 18.6317 119.583 18.6421 118.547 18.6431C118.475 18.6432 118.404 18.6528 118.304 18.6601C118.304 18.8465 118.304 19.0173 118.283 19.1885C118.127 19.2048 117.99 19.233 117.854 19.2346C117.364 19.2405 116.875 19.2374 116.385 19.2377Z" fill="#F2E27C"/>
<path d="M55.3541 19.1387C55.3526 19.1302 55.3511 19.1216 55.361 19.0938C55.3797 19.0599 55.387 19.0452 55.3943 19.0305C55.4882 18.4727 55.8601 18.0917 56.2694 17.7662C56.8056 17.3397 57.4523 17.145 58.1314 17.1127C58.7435 17.0837 59.3652 17.0486 59.9694 17.1234C60.5019 17.1893 61.0198 17.3919 61.5371 17.5564C61.8617 17.6596 62.1685 17.819 62.4935 17.9208C62.5977 17.9534 62.7337 17.8771 62.8564 17.8604C62.9228 17.8513 63.0113 17.8382 63.0544 17.872C63.0949 17.9037 63.1215 18.0117 63.0981 18.0574C62.7779 18.6826 62.4479 19.3029 62.0815 19.9979C61.9967 19.8666 61.9451 19.7746 61.8818 19.6914C61.7802 19.5578 61.693 19.399 61.5611 19.305C60.8562 18.803 60.0601 18.5648 59.1977 18.5436C58.7712 18.5332 58.3543 18.5643 57.9345 18.6767C57.6091 18.7638 57.385 18.953 57.1265 19.1812C56.5101 19.1715 55.9321 19.1551 55.3541 19.1387Z" fill="#F2E17C"/>
<path d="M97.1035 19.037C97.2092 18.4738 97.5643 18.0794 98.0017 17.7537C98.5521 17.3438 99.1878 17.176 99.8654 17.1001C100.925 16.9814 101.952 17.0905 102.952 17.4498C103.365 17.5982 103.77 17.7697 104.186 17.9118C104.28 17.9441 104.433 17.937 104.503 17.8795C104.651 17.7583 104.729 17.8345 104.846 17.9275C104.527 18.5661 104.215 19.1966 103.896 19.8236C103.872 19.8711 103.787 19.932 103.753 19.9205C103.694 19.9004 103.608 19.8283 103.609 19.779C103.612 19.5284 103.424 19.4106 103.266 19.2995C102.354 18.6616 101.321 18.4552 100.235 18.5556C99.7813 18.5975 99.3018 18.6747 98.9391 19.0818C98.6783 19.0886 98.4557 19.0943 98.2334 19.087C97.8566 19.0746 97.4801 19.0541 97.1035 19.037Z" fill="#F2E17C"/>
<path d="M75.752 19.037C75.7537 19.0285 75.7554 19.0201 75.7705 18.9932C75.7954 18.9637 75.8026 18.9502 75.8053 18.9343C76.1204 18.3957 76.5895 18.0182 77.1191 17.7151C77.7728 17.3411 78.4855 17.1749 79.2352 17.0969C80.385 16.9772 81.4889 17.1023 82.5239 17.6204C83.1349 17.9263 83.6439 18.3739 84.0059 18.9731C83.8388 19.0059 83.6859 19.0351 83.5327 19.0365C82.9033 19.0423 82.2738 19.0396 81.6294 19.0326C81.2344 18.7732 80.8143 18.6571 80.3639 18.5866C79.5328 18.4564 78.7841 18.6257 78.0689 19.089C77.2808 19.0713 76.5164 19.0541 75.752 19.037Z" fill="#F2E27C"/>
<path d="M126.781 18.7855C127.069 18.3576 127.449 18.0275 127.888 17.7671C128.571 17.3623 129.316 17.178 130.106 17.0963C131.196 16.9837 132.248 17.0929 133.241 17.5462C133.915 17.8542 134.483 18.3247 134.88 18.973C134.084 19.0058 133.304 19.0228 132.508 19.0327C131.914 18.6635 131.281 18.5156 130.604 18.544C130.095 18.5653 129.617 18.7054 129.154 18.9444C129.129 18.9555 129.119 18.9669 129.1 18.9852C129.079 18.9902 129.071 18.992 129.048 18.9783C128.369 18.9551 127.704 18.9495 127.04 18.9376C126.936 18.9358 126.832 18.9053 126.729 18.888C126.73 18.8797 126.732 18.8713 126.746 18.8447C126.771 18.8152 126.778 18.8015 126.781 18.7855Z" fill="#F2E27C"/>
<path d="M71.4555 22.3592C71.4492 22.2535 71.4429 22.1478 71.4358 22.0283C71.3662 22.0224 71.3028 22.0123 71.2393 22.0123C69.7818 22.0114 68.3243 22.0114 66.8669 22.0119C66.7574 22.0119 66.6191 21.9751 66.6147 22.1886C65.9816 22.2097 65.3746 22.2099 64.7677 22.2101C64.7657 21.9117 64.7638 21.6132 64.7873 21.2915C67.5359 21.2682 70.2591 21.2687 72.9823 21.2659C73.1119 21.2658 73.2416 21.2356 73.3712 21.2194C73.3737 21.5675 73.3761 21.9155 73.3549 22.2893C73.2358 22.3293 73.1403 22.3552 73.0447 22.356C72.515 22.3605 71.9853 22.3588 71.4555 22.3592Z" fill="#D4B45E"/>
<path d="M73.3743 21.1963C73.2413 21.2356 73.1116 21.2658 72.982 21.2659C70.2588 21.2687 67.5356 21.2682 64.7898 21.2685C64.7655 20.9375 64.7637 20.6062 64.7871 20.2514C65.084 20.2279 65.356 20.2338 65.6276 20.226C65.9632 20.2165 66.2984 20.1956 66.6338 20.1796C66.6395 20.3013 66.6451 20.4231 66.6514 20.5594C68.2453 20.5594 69.8279 20.5594 71.4498 20.5594C71.4498 20.4463 71.4498 20.3351 71.4722 20.2042C72.1203 20.1829 72.746 20.1812 73.3716 20.1794C73.3736 20.5107 73.3757 20.842 73.3743 21.1963Z" fill="#DDC167"/>
<path d="M100.969 22.3146C100.217 22.2132 99.4567 22.1533 98.7169 21.9964C98.1996 21.8867 97.7221 21.6267 97.4292 21.1352C99.4014 21.1199 101.359 21.1205 103.317 21.1172C103.429 21.117 103.54 21.0845 103.652 21.067C104.156 21.2787 104.443 21.6843 104.62 22.1922C104.489 22.2284 104.376 22.2564 104.263 22.2568C103.257 22.2602 102.252 22.2574 101.247 22.2613C101.154 22.2616 101.061 22.296 100.969 22.3146Z" fill="#D4B45E"/>
<path d="M113.068 34.595C113.066 34.2635 113.064 33.932 113.088 33.5772C115.577 33.5538 118.041 33.553 120.505 33.5558C120.634 33.556 120.763 33.5876 120.893 33.6046C120.46 34.0207 119.935 34.2435 119.352 34.3506C119.314 34.3575 119.287 34.4178 119.235 34.476C119.112 34.5141 119.008 34.5415 118.904 34.5424C118.341 34.5474 117.777 34.5459 117.214 34.5466C117.155 34.5131 117.098 34.4511 117.039 34.4505C116.382 34.4437 115.724 34.4444 115.066 34.451C115.024 34.4514 114.983 34.5174 114.915 34.5736C114.282 34.5946 113.675 34.5948 113.068 34.595Z" fill="#D6B660"/>
<path d="M95.0693 20.8725C95.0715 21.1214 95.0737 21.3703 95.0499 21.6419C92.1712 21.6648 89.3186 21.6649 86.4659 21.6651C86.464 21.4162 86.462 21.1672 86.4855 20.8951C89.3637 20.8721 92.2165 20.8723 95.0693 20.8725Z" fill="#D8BA62"/>
<path d="M116.386 21.369C116.384 21.2348 116.383 21.1006 116.404 20.947C116.539 20.9419 116.652 20.9688 116.765 20.9689C119.359 20.9715 121.952 20.9711 124.546 20.9712C124.344 21.389 124.007 21.6632 123.569 21.8503C123.448 21.8288 123.359 21.814 123.27 21.8138C122.035 21.8123 120.8 21.8191 119.565 21.8109C118.506 21.8039 117.446 21.7803 116.386 21.764C116.384 21.662 116.382 21.56 116.39 21.4322C116.41 21.3899 116.406 21.3774 116.386 21.369Z" fill="#D8BA62"/>
<path d="M81.9563 36.2796C81.8515 36.7044 81.5865 37.0147 81.2101 37.2632C81.0845 37.243 80.9959 37.2211 80.9073 37.221C78.9448 37.2191 76.9823 37.2187 75.0199 37.2218C74.916 37.222 74.8121 37.2552 74.7082 37.273C74.384 36.996 74.0931 36.6947 74.002 36.2477C74.6759 36.2288 75.3246 36.2285 75.9733 36.2287C76.0884 36.2287 76.2175 36.2513 76.2056 36.0684C76.5408 36.3431 76.9446 36.4714 77.3578 36.5151C78.0147 36.5845 78.6783 36.6003 79.3184 36.3786C79.4617 36.329 79.5963 36.2544 79.7567 36.2066C79.9161 36.2572 80.0538 36.3233 80.1912 36.3225C80.7796 36.319 81.3679 36.2957 81.9563 36.2796Z" fill="#BB8D45"/>
<path d="M101.063 37.0237C101.063 37.4438 101.063 37.864 101.063 38.2965C100.902 38.3516 100.791 38.2971 100.727 38.1349C100.657 37.9578 100.527 37.9097 100.34 37.9101C97.9543 37.9153 95.5685 37.9135 93.1827 37.9135C93.0929 37.9135 93.0031 37.9135 92.8286 37.9135C92.9155 37.7767 92.9513 37.6495 93.0314 37.6079C93.2439 37.4975 93.3298 37.3438 93.3188 37.0954C93.4303 37.0917 93.5187 37.1186 93.6071 37.1187C96.0058 37.1209 98.4045 37.1215 100.803 37.1164C100.89 37.1162 100.977 37.0559 101.063 37.0237Z" fill="#B4833E"/>
<path d="M104.929 31.5192C104.931 31.5112 104.933 31.5032 104.949 31.4771C104.974 31.4475 104.981 31.4336 104.984 31.4171C105.154 31.022 105.332 30.6297 105.493 30.2308C105.582 30.0094 105.544 29.8227 105.307 29.6929C105.234 29.6526 105.204 29.5313 105.13 29.4049C106.213 29.4049 107.217 29.4049 108.236 29.4049C108.252 29.5386 108.296 29.642 108.102 29.707C107.941 29.7613 107.818 29.9089 107.908 30.1145C108.065 30.4737 108.226 30.8308 108.387 31.1885C108.423 31.2706 108.463 31.3516 108.49 31.4659C108.353 31.5232 108.226 31.5667 108.099 31.5688C107.59 31.5769 107.081 31.579 106.572 31.5703C106.024 31.5609 105.476 31.5369 104.929 31.5192Z" fill="#F2E27C"/>
<path d="M61.9854 21.0779C62.4043 21.2763 62.6826 21.6077 62.8683 22.0547C62.7612 22.1133 62.6621 22.1564 62.5629 22.1567C61.2565 22.1612 59.9501 22.1586 58.6438 22.1621C58.5511 22.1623 58.4586 22.1961 58.366 22.2143C57.6298 22.191 56.9147 22.0696 56.2782 21.677C56.0805 21.5551 55.9271 21.3612 55.769 21.1849C57.7609 21.1693 59.737 21.1703 61.7132 21.1651C61.804 21.1648 61.8947 21.1082 61.9854 21.0779Z" fill="#D4B45E"/>
<path d="M113.313 22.2068C113.473 22.5261 113.633 22.8454 113.778 23.1818C111.416 23.1993 109.069 23.2003 106.722 23.1979C106.638 23.1978 106.553 23.1638 106.469 23.1456C106.599 22.8608 106.729 22.5761 106.888 22.2753C107.103 22.2756 107.288 22.3026 107.474 22.3061C107.866 22.3135 108.259 22.3085 108.666 22.3233C109.537 22.3444 110.395 22.3507 111.253 22.3546C111.259 22.3547 111.265 22.3223 111.275 22.2936C111.278 22.2821 111.284 22.2594 111.303 22.2566C111.36 22.2412 111.399 22.218 111.438 22.2177C112.063 22.2123 112.688 22.2099 113.313 22.2068Z" fill="#CAA454"/>
<path d="M110.291 35.0869C110.451 35.3991 110.612 35.7111 110.746 36.0472C110.044 36.0747 109.369 36.0783 108.694 36.0819C108.582 35.7557 108.341 35.7195 108.028 35.7261C107.033 35.747 106.037 35.7418 105.042 35.7278C104.814 35.7245 104.669 35.783 104.566 36.015C104.042 36.0308 103.548 36.0333 103.055 36.0281C102.971 36.0272 102.886 35.9934 102.802 35.9748C102.94 35.6667 103.078 35.3587 103.245 35.0573C103.339 35.0724 103.403 35.0883 103.468 35.0883C105.742 35.0888 108.017 35.0878 110.291 35.0869Z" fill="#C8A152"/>
<path d="M120.907 33.5958C120.764 33.5876 120.634 33.556 120.505 33.5558C118.041 33.553 115.577 33.5538 113.091 33.5542C113.066 33.2562 113.064 32.9578 113.088 32.6361C113.72 32.6129 114.328 32.6131 114.937 32.6355C114.94 32.7689 114.94 32.8802 114.94 33.0088C115.059 33.0088 115.14 33.0088 115.221 33.0088C116.216 33.0088 117.21 33.0129 118.205 33.0069C118.643 33.0042 119.057 32.9082 119.413 32.6225C120.076 32.6464 120.725 32.6547 121.375 32.6629C121.322 33.0194 121.133 33.3086 120.907 33.5958Z" fill="#DEC368"/>
<path d="M110.289 35.069C108.017 35.0878 105.743 35.0888 103.468 35.0883C103.404 35.0883 103.34 35.0724 103.261 35.048C103.419 34.6582 103.59 34.2844 103.789 33.9167C103.942 33.9484 104.067 33.9934 104.193 33.996C104.641 34.0053 105.089 34.0002 105.533 34.0186C105.463 34.1969 105.397 34.3573 105.324 34.5363C106.211 34.5363 107.065 34.5363 107.95 34.5363C107.864 34.3328 107.784 34.1419 107.727 33.9507C108.322 33.9503 108.893 33.9543 109.465 33.945C109.542 33.9438 109.617 33.8753 109.694 33.838C109.891 34.2424 110.089 34.6467 110.289 35.069Z" fill="#D0AD5A"/>
<path d="M101.067 37.0005C100.977 37.0559 100.89 37.1162 100.803 37.1164C98.4046 37.1215 96.0059 37.1209 93.6072 37.1187C93.5188 37.1186 93.4304 37.0917 93.322 37.0745C93.3 36.7733 93.298 36.475 93.3215 36.1534C93.6518 36.1299 93.9567 36.136 94.2612 36.128C94.5802 36.1195 94.8989 36.0974 95.2177 36.0813C95.2177 36.2034 95.2177 36.3255 95.2177 36.4628C95.3128 36.4684 95.3845 36.4764 95.4562 36.4764C97.0212 36.4771 98.5863 36.4793 100.151 36.4745C100.401 36.4738 100.652 36.4584 100.773 36.1617C100.797 36.1019 100.941 36.0906 101.07 36.0415C101.07 36.3885 101.07 36.683 101.067 37.0005Z" fill="#BB8D45"/>
<path d="M83.3971 24.6896C83.0593 24.9144 82.745 25.1953 82.3776 25.3498C81.9115 25.5457 81.4069 25.6594 80.9101 25.769C80.5882 25.84 80.2474 25.8861 79.921 25.8621C79.3469 25.8198 78.7726 25.74 78.2072 25.6304C77.5411 25.5014 76.9764 25.149 76.4756 24.7029C78.7935 24.6878 81.0953 24.6887 83.3971 24.6896Z" fill="#B3823D"/>
<path d="M104.153 24.7892C103.678 25.2867 103.073 25.5376 102.419 25.6706C102.009 25.7541 101.586 25.7811 101.168 25.8248C100.111 25.9355 99.1129 25.6679 98.1299 25.3291C97.8445 25.2307 97.5802 25.0722 97.2976 24.9633C97.2091 24.9292 97.0927 24.9663 96.9892 24.9726C96.8917 24.9784 96.7944 24.9865 96.6499 24.9971C96.7088 24.8367 96.7435 24.7424 96.7982 24.6594C96.9162 24.6924 97.0141 24.7328 97.1121 24.733C99.3468 24.7366 101.581 24.735 103.816 24.738C103.928 24.7382 104.04 24.7714 104.153 24.7892Z" fill="#B3823D"/>
<path d="M127.417 24.7881C127.143 24.4847 126.869 24.1813 126.616 23.861C127.273 23.844 127.911 23.8494 128.548 23.8377C128.637 23.836 128.725 23.7502 128.83 23.706C129.594 24.3277 130.463 24.4443 131.388 24.3129C131.82 24.2513 132.209 24.0688 132.586 23.8558C132.686 23.8968 132.776 23.9392 132.868 23.94C133.533 23.9463 134.198 23.9441 134.863 23.9446C134.625 24.221 134.388 24.4974 134.111 24.7799C131.854 24.7867 129.636 24.7874 127.417 24.7881Z" fill="#BA8C44"/>
<path d="M106.454 23.1548C106.553 23.1637 106.638 23.1977 106.722 23.1978C109.069 23.2003 111.416 23.1993 113.787 23.1979C113.959 23.507 114.107 23.817 114.246 24.1633C114.149 24.2131 114.063 24.2381 113.976 24.2387C113.393 24.2425 112.809 24.2411 112.226 24.2413C112.209 24.2137 112.183 24.1884 112.175 24.1582C112.037 23.6424 111.712 23.5037 111.184 23.5316C110.213 23.5828 109.237 23.5499 108.262 23.5422C108.114 23.5411 108.043 23.5911 107.992 23.7227C107.92 23.9103 107.83 24.0912 107.708 24.2828C107.432 24.2904 107.195 24.296 106.958 24.2885C106.617 24.2777 106.276 24.2575 105.935 24.2413C106.103 23.8822 106.271 23.5232 106.454 23.1548Z" fill="#BF9549"/>
<path d="M108.399 19.081C108.533 18.7846 108.664 18.4869 108.801 18.192C108.962 17.8429 108.937 17.7452 108.653 17.4977C108.59 17.4424 108.572 17.3347 108.517 17.2182C109.565 17.2182 110.551 17.2182 111.542 17.2182C111.611 17.3704 111.568 17.4708 111.422 17.5363C111.229 17.6232 111.181 17.7749 111.262 17.9592C111.422 18.325 111.592 18.6863 111.753 19.0807C111.709 19.1205 111.669 19.1365 111.63 19.1365C110.612 19.1379 109.595 19.1387 108.577 19.1354C108.518 19.1352 108.459 19.1 108.399 19.081Z" fill="#F2E17C"/>
<path d="M116.384 21.7869C117.446 21.7803 118.506 21.8039 119.565 21.8109C120.8 21.8191 122.035 21.8123 123.27 21.8138C123.359 21.8139 123.448 21.8288 123.551 21.8524C123.243 21.9832 122.92 22.0983 122.587 22.217C122.685 22.3703 122.797 22.5451 122.896 22.7442C122.796 22.7803 122.708 22.8017 122.62 22.8023C122.04 22.806 121.46 22.8052 120.879 22.806C120.66 22.3683 120.334 22.187 119.824 22.2472C119.352 22.3028 118.87 22.2608 118.392 22.2626C118.376 22.2626 118.361 22.2711 118.31 22.2864C118.31 22.4693 118.31 22.6637 118.284 22.8806C117.953 22.9029 117.648 22.909 117.343 22.901C117.024 22.8925 116.705 22.8705 116.387 22.8543C116.384 22.7684 116.382 22.6824 116.39 22.5711C116.41 22.5294 116.406 22.5171 116.387 22.5088C116.385 22.2758 116.383 22.0428 116.384 21.7869Z" fill="#D0AD5A"/>
<path d="M104.168 24.782C104.04 24.7714 103.928 24.7381 103.816 24.738C101.581 24.7349 99.3466 24.7365 97.112 24.733C97.014 24.7328 96.916 24.6924 96.8135 24.6506C96.8968 24.4233 96.9847 24.2161 97.1095 24.0003C97.4901 24.0085 97.8341 24.041 98.1775 24.0362C98.3837 24.0333 98.589 23.9722 98.7948 23.9373C99.4562 24.1846 100.14 24.3798 100.843 24.3751C101.543 24.3704 102.257 24.298 102.805 23.708C102.927 23.7211 103.015 23.7426 103.103 23.7432C103.645 23.7468 104.187 23.7456 104.729 23.7461C104.547 24.089 104.365 24.4319 104.168 24.782Z" fill="#BA8C44"/>
<path d="M84.676 31.4725C84.2824 30.9571 83.8972 30.4348 83.4888 29.9313C83.3949 29.8155 83.215 29.773 83.0871 29.6797C83.0133 29.6258 82.9644 29.5377 82.9043 29.465C82.9221 29.4456 82.9398 29.4262 82.9576 29.4067C84.0824 29.4067 85.2072 29.4067 86.4286 29.4067C86.3314 29.5344 86.2904 29.6392 86.2154 29.6775C85.9323 29.8221 85.8778 29.9829 86.048 30.2433C86.2976 30.6252 86.5453 31.0083 86.7804 31.4093C86.6622 31.4428 86.5576 31.4703 86.4529 31.471C85.8606 31.4751 85.2683 31.4727 84.676 31.4725Z" fill="#F2E27C"/>
<path d="M127.426 24.8034C129.636 24.7874 131.854 24.7867 134.096 24.7867C133.552 25.3023 132.868 25.5818 132.129 25.72C131.677 25.8045 131.212 25.88 130.757 25.8625C130.198 25.841 129.639 25.7399 129.088 25.6335C128.468 25.5138 127.941 25.1817 127.426 24.8034Z" fill="#B3823D"/>
<path d="M62.5808 24.6212C62.3533 24.6203 62.1333 24.5897 61.9133 24.5893C59.764 24.5857 57.6148 24.5874 55.4656 24.5861C55.3683 24.586 55.271 24.5708 55.1597 24.5469C55.3917 23.9686 55.6378 23.4061 55.8798 22.853C56.0659 22.8262 56.1279 22.8841 56.1445 23.0673C56.1799 23.4569 56.5089 23.623 56.8016 23.7735C57.424 24.0936 58.0872 24.2776 58.7918 24.349C59.3733 24.4079 59.9265 24.3518 60.458 24.1344C60.6604 24.0516 60.8269 23.8812 61.0344 23.7615C61.1497 23.7961 61.2401 23.8397 61.331 23.8408C61.8817 23.8479 62.4325 23.8452 62.9833 23.8458C62.8516 24.0991 62.7199 24.3523 62.5808 24.6212Z" fill="#BD9047"/>
<path d="M61.97 21.0694C61.895 21.1082 61.8043 21.1648 61.7135 21.1651C59.7373 21.1703 57.7612 21.1693 55.7613 21.1698C55.5455 20.8967 55.36 20.6204 55.3674 20.2487C55.9469 20.2279 56.5056 20.2341 57.0637 20.2213C57.1531 20.2193 57.2406 20.1327 57.3289 20.0852C57.8015 20.1825 58.2706 20.3037 58.7474 20.3718C59.6455 20.5001 60.563 20.51 61.4302 20.8185C61.6108 20.8827 61.7799 20.9792 61.97 21.0694Z" fill="#DDC167"/>
<path d="M86.4627 21.6881C89.3182 21.6649 92.1709 21.6648 95.0462 21.6648C95.071 21.8809 95.0732 22.0968 95.0495 22.3353C94.4167 22.3581 93.8098 22.3582 93.2028 22.3582C93.1969 22.2525 93.191 22.1468 93.1843 22.0262C91.5759 22.0262 89.975 22.0262 88.3385 22.0262C88.3385 22.2052 88.3385 22.383 88.3123 22.5834C87.6793 22.6061 87.0724 22.6063 86.4656 22.6064C86.4636 22.308 86.4617 22.0095 86.4627 21.6881Z" fill="#D0AD5A"/>
<path d="M88.6826 31.3223C88.8677 31.0367 89.0538 30.7517 89.2374 30.4651C89.2992 30.3687 89.3604 30.2713 89.4119 30.1693C89.5303 29.9348 89.4863 29.7804 89.245 29.7053C89.0764 29.6529 89.0689 29.5623 89.1014 29.4106C90.1911 29.4106 91.2829 29.4106 92.4367 29.4106C92.3839 29.5137 92.3585 29.641 92.3063 29.6531C91.8798 29.7523 91.6753 30.1065 91.4323 30.4051C91.186 30.7075 90.9775 31.0407 90.7138 31.3675C90.1066 31.3744 89.538 31.3766 88.9695 31.3718C88.8738 31.371 88.7783 31.3396 88.6826 31.3223Z" fill="#F2E27C"/>
<path d="M103.643 21.0522C103.54 21.0845 103.429 21.117 103.317 21.1172C101.359 21.1205 99.4016 21.1199 97.4199 21.1208C97.2681 20.8039 97.1404 20.4865 97.0376 20.149C97.6118 20.1288 98.1611 20.1312 98.7103 20.1263C98.8055 20.1254 98.9005 20.0936 98.9955 20.0761C99.4838 20.3061 100.015 20.3127 100.536 20.3805C101.323 20.4829 102.11 20.5937 102.891 20.735C103.148 20.7816 103.387 20.9336 103.643 21.0522Z" fill="#DEC368"/>
<path d="M95.0724 20.8495C92.2163 20.8723 89.3635 20.8721 86.4881 20.8722C86.4637 20.5906 86.4619 20.3088 86.4853 20.0036C87.1176 19.9806 87.7247 19.9808 88.3318 19.981C88.3318 20.1688 88.3318 20.3566 88.3318 20.5591C89.9612 20.5591 91.5587 20.5591 93.1972 20.5591C93.1972 20.4304 93.1972 20.3023 93.2225 20.1516C93.8549 20.129 94.4621 20.1292 95.0694 20.1294C95.0715 20.3618 95.0736 20.5942 95.0724 20.8495Z" fill="#E0C569"/>
<path d="M123.322 31.5731C123.319 31.1275 123.321 30.6819 123.312 30.2364C123.308 30.0104 123.263 29.8048 123.026 29.684C122.958 29.6497 122.937 29.5254 122.876 29.4065C123.812 29.4065 124.683 29.4065 125.574 29.4065C125.595 29.5392 125.626 29.6371 125.44 29.7069C125.284 29.7652 125.184 29.9078 125.191 30.1157C125.207 30.5856 125.196 31.0564 125.169 31.5496C124.537 31.5726 123.929 31.5729 123.322 31.5731Z" fill="#F2E27C"/>
<path d="M136.932 18.9917C136.608 18.5745 136.293 18.1491 135.953 17.7454C135.857 17.631 135.679 17.5889 135.551 17.4959C135.477 17.442 135.429 17.3527 135.369 17.2794C135.387 17.26 135.404 17.2406 135.422 17.2211C136.546 17.2211 137.669 17.2211 138.792 17.2211C138.854 17.3722 138.812 17.4535 138.662 17.505C138.397 17.5966 138.336 17.7398 138.472 17.9801C138.64 18.2774 138.827 18.564 138.999 18.8862C138.409 18.9247 137.826 18.9299 137.243 18.942C137.139 18.9441 137.036 18.9744 136.932 18.9917Z" fill="#F2E27C"/>
<path d="M104.915 31.5295C105.477 31.5369 106.024 31.5609 106.572 31.5703C107.081 31.579 107.59 31.5769 108.099 31.5688C108.227 31.5667 108.353 31.5232 108.492 31.4837C108.685 31.8193 108.865 32.17 109.051 32.5497C109.063 32.5939 109.075 32.6044 109.09 32.6103C109.093 32.6183 109.095 32.6263 109.081 32.655C108.976 32.6877 108.888 32.7094 108.801 32.7099C108.253 32.7134 107.706 32.7122 107.144 32.7033C106.968 32.3479 106.806 32.0019 106.649 31.6661C106.479 32.0092 106.305 32.3609 106.107 32.7122C105.602 32.7118 105.12 32.7143 104.638 32.709C104.554 32.708 104.471 32.6735 104.387 32.6545C104.558 32.2829 104.729 31.9113 104.915 31.5295Z" fill="#E8D272"/>
<path d="M73.783 31.5234C73.7806 31.0777 73.7743 30.632 73.7771 30.1863C73.7786 29.9532 73.7142 29.7783 73.4796 29.6758C73.417 29.6484 73.3993 29.5183 73.3467 29.4046C74.2819 29.4046 75.1536 29.4046 76.0359 29.4046C76.0592 29.5408 76.0799 29.6373 75.9082 29.7004C75.667 29.789 75.6679 30.0314 75.6615 30.2389C75.6488 30.6513 75.6569 31.0644 75.6308 31.5C74.9979 31.523 74.3904 31.5232 73.783 31.5234Z" fill="#F2E27C"/>
<path d="M108.384 19.0912C108.459 19.1 108.518 19.1352 108.577 19.1354C109.595 19.1387 110.612 19.1379 111.63 19.1365C111.669 19.1365 111.708 19.1206 111.762 19.0958C111.939 19.4158 112.103 19.752 112.255 20.121C112.068 20.1784 111.891 20.2248 111.715 20.2234C111.257 20.2198 110.8 20.1951 110.334 20.1632C110.222 19.9345 110.118 19.7215 109.998 19.4744C109.838 19.798 109.694 20.0878 109.531 20.3698C109.423 20.3503 109.335 20.3291 109.247 20.3282C108.764 20.3235 108.282 20.3238 107.799 20.3224C107.989 19.9154 108.179 19.5084 108.384 19.0912Z" fill="#E8D272"/>
<path d="M93.3017 31.3256C93.2991 30.9137 93.2918 30.5019 93.2959 30.0901C93.2979 29.8959 93.2427 29.7448 93.0421 29.6959C92.8607 29.6517 92.8947 29.5372 92.915 29.4037C93.8139 29.4037 94.7009 29.4037 95.5912 29.4037C95.662 29.5515 95.6168 29.6401 95.4725 29.6903C95.2815 29.7568 95.2201 29.8975 95.2235 30.0929C95.2307 30.5047 95.2246 30.9167 95.2004 31.3516C94.5499 31.4286 93.9224 31.507 93.3017 31.3256Z" fill="#F2E27C"/>
<path d="M80.4708 31.6226C80.4683 31.1781 80.4763 30.7333 80.4592 30.2894C80.4499 30.0505 80.4419 29.7983 80.1564 29.6759C80.0965 29.6503 80.0806 29.5221 80.0298 29.4083C80.912 29.4083 81.739 29.4083 82.5773 29.4083C82.5914 29.5378 82.6296 29.6444 82.4493 29.7005C82.2761 29.7544 82.1872 29.8887 82.1925 30.0946C82.2053 30.5882 82.1959 31.0824 82.1699 31.5991C81.5865 31.6221 81.0286 31.6223 80.4708 31.6226Z" fill="#F2E17C"/>
<path d="M83.4119 24.682C81.0953 24.6887 78.7935 24.6878 76.4681 24.6873C76.2976 24.5342 76.1507 24.3806 76.0249 24.2093C76.7634 24.1912 77.4808 24.1957 78.198 24.186C78.3103 24.1845 78.4217 24.1189 78.552 24.087C79.2157 24.3793 79.8895 24.4508 80.5711 24.2846C80.9397 24.1948 81.2888 24.025 81.668 23.8924C81.8429 23.9101 81.9965 23.9395 82.1503 23.9409C82.774 23.9465 83.3977 23.9435 84.0215 23.9437C83.8232 24.1872 83.6249 24.4308 83.4119 24.682Z" fill="#BA8C44"/>
<path d="M93.202 19.2377C93.1996 18.8837 93.2134 18.5286 93.1895 18.1761C93.1715 17.9088 93.2326 17.5884 92.8586 17.4699C92.8152 17.4562 92.8107 17.3197 92.7822 17.219C93.6942 17.219 94.5642 17.219 95.5183 17.219C95.4468 17.3357 95.417 17.4512 95.3466 17.4869C95.1341 17.5948 95.0623 17.7471 95.0723 17.9812C95.0888 18.3676 95.076 18.7552 95.0527 19.168C94.9342 19.2081 94.8387 19.234 94.743 19.2349C94.2293 19.2393 93.7157 19.2374 93.202 19.2377Z" fill="#F2E17C"/>
<path d="M74.7158 37.289C74.8118 37.2552 74.9157 37.222 75.0196 37.2218C76.982 37.2187 78.9445 37.2191 80.907 37.2211C80.9956 37.2211 81.0842 37.243 81.1923 37.2631C80.892 37.5834 80.481 37.7227 80.0647 37.8056C79.5499 37.9082 79.0239 37.9707 78.4998 38.0054C78.006 38.0381 77.505 38.0484 77.013 38.004C76.2064 37.9311 75.4186 37.7605 74.7158 37.289Z" fill="#B3823D"/>
<path d="M124.554 20.9551C121.952 20.9711 119.359 20.9715 116.766 20.9689C116.653 20.9688 116.54 20.9419 116.407 20.9248C116.385 20.8362 116.382 20.7504 116.39 20.6392C116.41 20.5974 116.406 20.585 116.387 20.5765C116.385 20.4423 116.383 20.3081 116.403 20.1539C116.574 20.1652 116.725 20.2234 116.875 20.2226C117.352 20.2199 117.828 20.1951 118.306 20.2017C118.309 20.4185 118.309 20.6124 118.309 20.8209C119.437 20.8209 120.523 20.8245 121.61 20.8172C121.787 20.816 121.963 20.7673 122.139 20.7385C122.53 20.6745 122.756 20.4154 122.936 20.0776C123.571 20.0788 124.182 20.0794 124.793 20.08C124.716 20.3663 124.64 20.6527 124.554 20.9551Z" fill="#E0C569"/>
<path d="M71.4549 18.9903C71.4524 18.6366 71.4426 18.2827 71.4502 17.9292C71.4546 17.7274 71.3951 17.5889 71.2027 17.4976C71.1242 17.4604 71.0777 17.356 71.0166 17.2821C71.0337 17.2623 71.0507 17.2425 71.0678 17.2226C71.9601 17.2226 72.8525 17.2226 73.7449 17.2226C73.8202 17.37 73.766 17.4554 73.6245 17.5048C73.4202 17.5762 73.3714 17.7312 73.3767 17.9319C73.3856 18.269 73.3783 18.6066 73.3549 18.9698C72.7063 18.9938 72.0806 18.9921 71.4549 18.9903Z" fill="#F2E27C"/>
<path d="M64.767 19.0396C64.7644 18.693 64.7663 18.3463 64.7578 17.9998C64.7524 17.7804 64.7142 17.5807 64.4604 17.4908C64.4004 17.4695 64.3774 17.3441 64.3164 17.226C65.2549 17.226 66.1319 17.226 67.0217 17.226C67.0405 17.3531 67.0488 17.433 66.8978 17.5213C66.7751 17.593 66.6678 17.7823 66.6529 17.9295C66.6175 18.281 66.6406 18.6384 66.6145 19.0162C65.9817 19.0392 65.3743 19.0394 64.767 19.0396Z" fill="#F2E27C"/>
<path d="M138.319 20.9228C138.095 20.6196 137.87 20.3163 137.665 19.9967C138.276 19.9802 138.868 19.9822 139.46 19.9776C139.545 19.9769 139.629 19.9439 139.714 19.9258C139.854 20.1146 139.994 20.3033 140.145 20.507C140.252 20.3536 140.361 20.1982 140.504 20.0434C140.626 20.0557 140.714 20.077 140.802 20.0775C141.382 20.081 141.962 20.0799 142.543 20.0804C142.354 20.356 142.165 20.6317 141.945 20.9086C141.768 20.9137 141.623 20.9207 141.478 20.9209C140.425 20.9223 139.372 20.9223 138.319 20.9228Z" fill="#E0C569"/>
<path d="M86.4653 18.9901C86.4627 18.6353 86.4839 18.2779 86.4463 17.9268C86.4306 17.7799 86.2947 17.6435 86.205 17.5079C86.1531 17.4294 86.0845 17.3618 86.0234 17.2894C86.041 17.2682 86.0587 17.2469 86.0763 17.2257C86.9533 17.2257 87.8304 17.2257 88.7194 17.2257C88.7363 17.3514 88.7684 17.4532 88.5925 17.5138C88.3882 17.5842 88.343 17.7804 88.3407 17.9781C88.337 18.3 88.3387 18.622 88.3126 18.9667C87.6798 18.9897 87.0726 18.9899 86.4653 18.9901Z" fill="#F2E27C"/>
<path d="M112.224 24.2597C112.81 24.2411 113.393 24.2425 113.976 24.2387C114.063 24.2382 114.15 24.2132 114.249 24.1803C114.401 24.4043 114.551 24.642 114.676 24.8922C114.8 25.1418 114.97 25.3261 115.233 25.4318C115.294 25.4564 115.326 25.5552 115.401 25.6623C114.288 25.6623 113.246 25.6623 112.184 25.6623C112.164 25.5478 112.132 25.4632 112.308 25.3996C112.6 25.2936 112.627 25.1553 112.476 24.8184C112.394 24.6368 112.307 24.458 112.224 24.2597Z" fill="#B4833E"/>
<path d="M87.4996 32.4122C87.5573 32.4949 87.615 32.5776 87.6845 32.6772C87.7699 32.565 87.8402 32.4726 87.9438 32.3794C88.0648 32.3906 88.1525 32.4122 88.2403 32.4127C88.8203 32.4162 89.4004 32.4151 89.9804 32.4155C89.7915 32.6905 89.6027 32.9655 89.376 33.2487C88.211 33.2574 87.0838 33.2577 85.9566 33.2581C85.777 33.0056 85.5973 32.7531 85.4341 32.4749C85.5393 32.4376 85.628 32.4164 85.7168 32.4158C86.3111 32.4121 86.9054 32.4129 87.4996 32.4122Z" fill="#E1C86B"/>
<path d="M118.302 24.0928C118.305 24.3971 118.311 24.7014 118.31 25.0056C118.309 25.1971 118.384 25.3525 118.566 25.4022C118.726 25.4461 118.722 25.5314 118.692 25.664C117.801 25.664 116.908 25.664 115.994 25.664C115.988 25.598 115.981 25.5287 115.974 25.4613C116.332 25.3413 116.378 25.2766 116.378 24.9037C116.379 24.6322 116.38 24.3608 116.404 24.0691C116.524 24.0632 116.62 24.0891 116.717 24.0899C117.245 24.0943 117.774 24.0925 118.302 24.0928Z" fill="#B5853F"/>
<path d="M138.328 20.9382C139.373 20.9223 140.426 20.9223 141.479 20.9209C141.624 20.9207 141.768 20.9137 141.931 20.9173C141.686 21.2926 141.423 21.6606 141.131 22.044C140.434 22.0615 139.766 22.0634 139.098 22.0654C138.844 21.6948 138.59 21.3242 138.328 20.9382Z" fill="#D6B660"/>
<path d="M104.734 23.7258C104.187 23.7457 103.645 23.7468 103.104 23.7432C103.015 23.7427 102.927 23.7211 102.82 23.7006C103.197 23.0787 102.873 22.6286 102.298 22.5274C101.866 22.4514 101.429 22.4061 100.981 22.3309C101.061 22.296 101.154 22.2616 101.247 22.2613C102.252 22.2574 103.257 22.2602 104.263 22.2568C104.376 22.2564 104.489 22.2284 104.623 22.2102C104.875 22.6939 104.866 23.196 104.734 23.7258Z" fill="#C8A152"/>
<path d="M141.092 23.0545C141.094 23.697 141.103 24.3395 141.096 24.9819C141.094 25.1761 141.146 25.3043 141.326 25.3963C141.396 25.4323 141.429 25.5417 141.508 25.6623C140.558 25.6623 139.681 25.6623 138.783 25.6623C138.778 25.5958 138.774 25.5267 138.77 25.4609C139.104 25.3423 139.166 25.2583 139.167 24.9299C139.167 24.7157 139.168 24.5015 139.195 24.264C139.757 24.2405 140.293 24.2341 140.829 24.2439C141.006 24.2471 141.059 24.186 141.052 24.0159C141.041 23.7276 141.048 23.4384 141.049 23.1357C141.064 23.0994 141.078 23.0769 141.092 23.0545Z" fill="#B5853F"/>
<path d="M105.926 24.2573C106.275 24.2575 106.616 24.2777 106.958 24.2885C107.195 24.296 107.432 24.2905 107.693 24.2913C107.632 24.4899 107.551 24.6895 107.462 24.8856C107.354 25.1238 107.405 25.2925 107.655 25.3937C107.796 25.4506 107.851 25.5143 107.782 25.667C106.86 25.667 105.934 25.667 105.001 25.667C104.978 25.5456 104.969 25.48 105.112 25.4012C105.29 25.3031 105.443 25.1312 105.56 24.9595C105.705 24.7478 105.801 24.5035 105.926 24.2573Z" fill="#B5853F"/>
<path d="M76.1982 36.053C76.217 36.2514 76.0879 36.2288 75.9728 36.2287C75.3241 36.2285 74.6754 36.2288 74.004 36.2293C73.9135 35.7823 73.8457 35.335 73.8032 34.8648C74.4521 34.8423 75.0756 34.8425 75.6992 34.8427C75.7214 35.2323 75.7614 35.6163 76.0538 35.9162C76.0963 35.9599 76.1452 35.9973 76.1982 36.053Z" fill="#C8A152"/>
<path d="M85.9644 33.2735C87.0836 33.2577 88.2108 33.2574 89.3616 33.2575C89.1484 33.6002 88.9116 33.9423 88.6355 34.2909C87.9634 34.2979 87.3305 34.2984 86.6976 34.2988C86.4558 33.9623 86.2141 33.6257 85.9644 33.2735Z" fill="#D8BA62"/>
<path d="M95.0692 24.3405C95.0719 24.5632 95.0794 24.786 95.0759 25.0086C95.0728 25.2041 95.1553 25.3578 95.3361 25.4046C95.5071 25.449 95.4838 25.5387 95.456 25.6656C94.5761 25.6656 93.6964 25.6656 92.7598 25.6656C92.8117 25.5617 92.8299 25.4489 92.8895 25.4191C93.1413 25.2932 93.1892 25.0764 93.1946 24.8318C93.1979 24.6833 93.1965 24.5347 93.2227 24.3629C93.8552 24.34 94.4622 24.3402 95.0692 24.3405Z" fill="#B4833E"/>
<path d="M95.2213 36.0583C94.8988 36.0974 94.5801 36.1195 94.2611 36.128C93.9566 36.136 93.6517 36.1299 93.3243 36.1304C93.2999 35.6507 93.2982 35.1708 93.3195 34.668C93.9675 34.6451 94.5924 34.645 95.2174 34.645C95.2199 35.1084 95.2225 35.5718 95.2213 36.0583Z" fill="#C8A152"/>
<path d="M88.6287 36.6263C88.6314 36.8154 88.6458 37.0053 88.6335 37.1935C88.621 37.3843 88.7046 37.4897 88.8626 37.583C88.9535 37.6367 89.0077 37.7526 89.0783 37.8405C89.0609 37.8599 89.0435 37.8792 89.0261 37.8986C88.1257 37.8986 87.2254 37.8986 86.2417 37.8986C86.3324 37.7686 86.3763 37.6456 86.4627 37.5944C86.6359 37.4919 86.7275 37.374 86.7084 37.1653C86.6934 37.0022 86.7067 36.8365 86.7307 36.6493C87.0705 36.6426 87.3871 36.671 87.7037 36.6711C88.0121 36.6712 88.3204 36.6424 88.6287 36.6263Z" fill="#B5853F"/>
<path d="M71.4524 22.3822C71.9848 22.3588 72.5145 22.3605 73.0442 22.3561C73.1399 22.3553 73.2353 22.3293 73.3508 22.3123C73.3734 22.7565 73.3759 23.2034 73.3547 23.676C72.7057 23.6999 72.0804 23.6981 71.455 23.6963C71.4533 23.2659 71.4515 22.8355 71.4524 22.3822Z" fill="#C59E4F"/>
<path d="M75.7376 19.0451C76.5169 19.0541 77.2813 19.0713 78.0601 19.1033C78.0108 19.1673 77.9457 19.2147 77.8834 19.2656C77.5358 19.55 77.3467 19.9461 77.1138 20.3272C76.4509 20.3272 75.8106 20.3274 75.1704 20.3277C75.2625 19.863 75.466 19.4466 75.7376 19.0451Z" fill="#E8D272"/>
<path d="M128.814 23.7033C128.726 23.7502 128.638 23.836 128.549 23.8377C127.911 23.8494 127.274 23.844 126.614 23.8443C126.408 23.4445 126.226 23.0444 126.068 22.6251C126.628 22.6058 127.163 22.6107 127.699 22.6007C127.791 22.599 127.882 22.5338 127.99 22.5075C128.154 22.9948 128.451 23.3717 128.814 23.7033Z" fill="#C59E4F"/>
<path d="M120.89 36.7636C121.11 37.012 121.32 37.2703 121.555 37.5035C121.638 37.5853 121.781 37.6054 121.915 37.6613C121.915 37.7201 121.915 37.8063 121.915 37.9016C120.894 37.9016 119.884 37.9016 118.865 37.9016C118.865 37.8099 118.865 37.73 118.865 37.6489C118.958 37.6056 119.05 37.5622 119.179 37.5017C119.065 37.293 118.961 37.1014 118.876 36.8915C119.47 36.8732 120.044 36.8777 120.617 36.8679C120.709 36.8663 120.799 36.8 120.89 36.7636Z" fill="#B4833E"/>
<path d="M58.3789 22.2302C58.4587 22.1961 58.5512 22.1623 58.6439 22.162C59.9502 22.1586 61.2566 22.1612 62.5629 22.1567C62.6622 22.1564 62.7613 22.1133 62.87 22.0723C62.9609 22.4055 63.0422 22.7563 63.0974 23.129C62.4808 23.1508 61.8903 23.151 61.2998 23.1512C61.1964 22.593 60.7237 22.5352 60.304 22.466C59.6717 22.3618 59.0297 22.3165 58.3789 22.2302Z" fill="#CBA655"/>
<path d="M125.189 36.7252C125.191 36.8653 125.195 37.0054 125.196 37.1455C125.199 37.4462 125.273 37.5404 125.584 37.6268C125.584 37.7115 125.584 37.799 125.584 37.9002C124.702 37.9002 123.823 37.9002 122.938 37.9002C122.89 37.7294 122.93 37.6368 123.094 37.5301C123.213 37.4529 123.26 37.2474 123.309 37.0898C123.34 36.9921 123.316 36.8771 123.342 36.7472C123.975 36.7248 124.582 36.725 125.189 36.7252Z" fill="#B5853F"/>
<path d="M120.882 36.7491C120.799 36.8 120.709 36.8663 120.617 36.8679C120.044 36.8778 119.47 36.8732 118.873 36.8738C118.587 36.5064 118.325 36.1385 118.08 35.7448C118.185 35.7073 118.273 35.6861 118.362 35.6854C118.839 35.6821 119.316 35.6865 119.794 35.6814C119.878 35.6805 119.963 35.6474 120.047 35.6291C120.208 35.8359 120.372 36.0407 120.529 36.2501C120.648 36.4085 120.759 36.5728 120.882 36.7491Z" fill="#BF9549"/>
<path d="M107.158 32.7126C107.706 32.7122 108.253 32.7134 108.8 32.7099C108.888 32.7094 108.976 32.6877 109.083 32.6672C109.293 33.042 109.484 33.4254 109.684 33.8234C109.617 33.8753 109.541 33.9438 109.464 33.945C108.893 33.9543 108.322 33.9503 107.712 33.941C107.626 33.8208 107.578 33.7104 107.532 33.5994C107.407 33.3039 107.283 33.0082 107.158 32.7126Z" fill="#DDC167"/>
<path d="M81.6445 19.0401C82.274 19.0396 82.9035 19.0423 83.5329 19.0365C83.6861 19.0351 83.839 19.0059 84.0134 18.9885C84.2154 19.3543 84.3961 19.7211 84.5574 20.1102C84.4335 20.1477 84.3289 20.1748 84.224 20.176C83.7795 20.1808 83.3348 20.1751 82.8903 20.1806C82.806 20.1817 82.7221 20.2165 82.6229 20.2265C82.4076 19.7261 82.0626 19.3531 81.6445 19.0401Z" fill="#E9D473"/>
<path d="M88.6326 36.6032C88.3205 36.6424 88.0122 36.6712 87.7038 36.6711C87.3872 36.671 87.0706 36.6426 86.7336 36.6263C86.7113 36.2121 86.7095 35.7981 86.7308 35.3614C87.379 35.3385 88.004 35.3384 88.6291 35.3382C88.6315 35.7522 88.634 36.1662 88.6326 36.6032Z" fill="#C2984C"/>
<path d="M95.2212 34.6219C94.5926 34.645 93.9677 34.6451 93.3224 34.645C93.3002 34.2307 93.2984 33.8167 93.3196 33.3798C93.9676 33.3569 94.5927 33.3568 95.2178 33.3567C95.2201 33.7707 95.2225 34.1848 95.2212 34.6219Z" fill="#D6B660"/>
<path d="M132.523 19.0399C133.303 19.0228 134.084 19.0058 134.888 18.9881C135.074 19.3041 135.237 19.6206 135.405 19.9667C135.417 20.0111 135.429 20.0215 135.444 20.0274C135.445 20.0362 135.447 20.045 135.425 20.0667C135.199 20.0959 134.996 20.123 134.793 20.1264C134.35 20.1339 133.906 20.1294 133.449 20.1206C133.245 19.6567 132.877 19.3547 132.523 19.0399Z" fill="#E9D473"/>
<path d="M120.046 35.6116C119.963 35.6474 119.878 35.6805 119.794 35.6814C119.316 35.6865 118.839 35.6821 118.362 35.6854C118.273 35.6861 118.185 35.7073 118.077 35.7272C117.782 35.3493 117.506 34.9632 117.222 34.5619C117.777 34.5459 118.34 34.5474 118.904 34.5424C119.008 34.5415 119.112 34.5141 119.236 34.4958C119.52 34.8599 119.782 35.227 120.046 35.6116Z" fill="#CBA655"/>
<path d="M66.633 24.5384C66.6357 24.6619 66.6547 24.7878 66.6377 24.9085C66.6028 25.1546 66.7239 25.2987 66.9143 25.4218C66.9807 25.4648 67.0205 25.5492 67.112 25.6645C66.1444 25.6645 65.2654 25.6645 64.3418 25.6645C64.3726 25.5735 64.3784 25.4525 64.4256 25.4332C64.7718 25.2921 64.7607 24.9998 64.7597 24.707C64.7596 24.6658 64.7607 24.6246 64.7869 24.5606C65.4194 24.538 66.0262 24.5382 66.633 24.5384Z" fill="#B3823D"/>
<path d="M75.1663 20.3474C75.8105 20.3274 76.4507 20.3272 77.1152 20.3463C77.0723 20.7658 77.0053 21.166 76.9155 21.5659C76.588 21.5654 76.2831 21.5714 75.9786 21.5634C75.6595 21.555 75.3408 21.533 75.022 21.5169C75.0687 21.1337 75.1155 20.7504 75.1663 20.3474Z" fill="#DDC167"/>
<path d="M81.9718 36.2694C81.3678 36.2957 80.7795 36.319 80.1911 36.3225C80.0537 36.3233 79.916 36.2573 79.7739 36.204C80.1362 35.9253 80.3417 35.5683 80.4352 35.1075C81.0296 35.09 81.5919 35.0903 82.1542 35.0905C82.0986 35.4801 82.0431 35.8696 81.9718 36.2694Z" fill="#C59E4F"/>
<path d="M124.311 24.6839C124.442 24.8426 124.556 25.0224 124.71 25.1542C124.868 25.2888 125.066 25.3762 125.284 25.5067C125.284 25.5126 125.284 25.5827 125.284 25.665C124.252 25.665 123.227 25.665 122.188 25.665C122.188 25.5891 122.188 25.5195 122.188 25.4504C122.481 25.3906 122.533 25.2897 122.398 25.0347C122.35 24.9426 122.289 24.8572 122.249 24.7527C122.668 24.7363 123.073 24.7423 123.477 24.7336C123.755 24.7275 124.033 24.7012 124.311 24.6839Z" fill="#B3823D"/>
<path d="M114.934 36.8242C114.936 36.9066 114.941 36.9889 114.941 37.0712C114.943 37.4484 114.988 37.5166 115.33 37.65C115.33 37.7299 115.33 37.8102 115.33 37.9018C114.442 37.9018 113.564 37.9018 112.685 37.9018C112.639 37.7479 112.652 37.6568 112.816 37.5727C113.1 37.427 113.07 37.1361 113.088 36.8461C113.72 36.8238 114.327 36.824 114.934 36.8242Z" fill="#B4833E"/>
<path d="M111.232 36.9692C111.412 37.2547 111.569 37.5654 111.959 37.6266C111.959 37.7174 111.959 37.8045 111.959 37.9025C110.907 37.9025 109.866 37.9025 108.808 37.9025C108.803 37.8074 108.799 37.7206 108.795 37.6351C109.17 37.5772 109.269 37.4104 109.174 37.0416C109.774 37.0215 110.348 37.024 110.922 37.0191C111.025 37.0182 111.128 36.9866 111.232 36.9692Z" fill="#B4833E"/>
<path d="M95.0726 24.3175C94.4618 24.3402 93.8548 24.34 93.2251 24.3401C93.2005 23.9429 93.1986 23.5453 93.2223 23.1245C93.8548 23.1014 94.4617 23.1015 95.0687 23.1017C95.0713 23.4993 95.0738 23.8969 95.0726 24.3175Z" fill="#C2984C"/>
<path d="M113.065 34.618C113.675 34.5948 114.282 34.5946 114.911 34.5947C114.936 34.9759 114.939 35.3569 114.918 35.7636C114.799 35.8038 114.703 35.8297 114.608 35.8305C114.094 35.8349 113.581 35.833 113.068 35.8332C113.066 35.4358 113.064 35.0384 113.065 34.618Z" fill="#CAA454"/>
<path d="M113.31 22.1944C112.688 22.2099 112.063 22.2123 111.437 22.2177C111.399 22.218 111.36 22.2412 111.294 22.2407C111.103 21.8586 110.939 21.4896 110.798 21.1202C111.174 21.1197 111.526 21.1257 111.878 21.1175C112.17 21.1107 112.462 21.0872 112.754 21.0711C112.917 21.4045 113.081 21.7379 113.255 22.0986C113.273 22.141 113.285 22.1516 113.3 22.1577C113.303 22.1658 113.305 22.1739 113.31 22.1944Z" fill="#D4B45E"/>
<path d="M104.372 32.6645C104.47 32.6735 104.554 32.708 104.637 32.7089C105.119 32.7143 105.601 32.7118 106.103 32.7303C105.928 33.166 105.732 33.5833 105.537 34.0006C105.089 34.0002 104.641 34.0053 104.193 33.996C104.067 33.9934 103.942 33.9484 103.804 33.9072C103.981 33.4859 104.169 33.0802 104.372 32.6645Z" fill="#DDC167"/>
<path d="M120.888 22.8211C121.46 22.8053 122.04 22.806 122.621 22.8023C122.709 22.8017 122.797 22.7803 122.904 22.76C123.183 23.1044 123.442 23.4573 123.691 23.8337C123.591 23.8694 123.503 23.8916 123.414 23.8921C122.822 23.8953 122.23 23.894 121.637 23.8941C121.391 23.5415 121.144 23.1889 120.888 22.8211Z" fill="#C2984C"/>
<path d="M118.306 24.0698C117.774 24.0925 117.246 24.0943 116.717 24.0899C116.621 24.0891 116.524 24.0632 116.407 24.0461C116.385 23.6623 116.383 23.2814 116.384 22.8774C116.705 22.8705 117.024 22.8925 117.343 22.901C117.648 22.909 117.953 22.9029 118.28 22.9035C118.305 23.2848 118.308 23.6658 118.306 24.0698Z" fill="#C2984C"/>
<path d="M71.4518 19.0133C72.0801 18.9921 72.7058 18.9938 73.3514 18.9929C73.3735 19.3712 73.3757 19.7522 73.3747 20.1563C72.7458 20.1811 72.1201 20.1829 71.4745 20.1821C71.4528 19.7984 71.451 19.4174 71.4518 19.0133Z" fill="#E9D473"/>
<path d="M139.712 19.9085C139.63 19.9439 139.545 19.9769 139.461 19.9776C138.869 19.9822 138.276 19.9802 137.662 19.9805C137.409 19.6609 137.179 19.3412 136.94 19.0066C137.035 18.9744 137.139 18.9441 137.243 18.9419C137.826 18.9299 138.409 18.9246 139.006 18.9016C139.251 19.2212 139.481 19.5562 139.712 19.9085Z" fill="#E9D473"/>
<path d="M64.7649 22.2332C65.3747 22.2099 65.9817 22.2097 66.6113 22.2098C66.6363 22.5912 66.6388 22.9722 66.6148 23.3759C65.9816 23.3988 65.3747 23.399 64.7679 23.3993C64.7659 23.0182 64.764 22.6372 64.7649 22.2332Z" fill="#CAA454"/>
<path d="M64.7643 19.0626C65.3743 19.0394 65.9816 19.0392 66.6115 19.0393C66.6362 19.4042 66.6384 19.7687 66.6372 20.1564C66.2984 20.1956 65.9632 20.2165 65.6276 20.226C65.356 20.2338 65.084 20.2279 64.7896 20.2284C64.7652 19.8478 64.7635 19.4667 64.7643 19.0626Z" fill="#E9D473"/>
<path d="M80.4681 31.6456C81.0285 31.6223 81.5863 31.6221 82.1667 31.6222C82.1915 32.0199 82.1936 32.4174 82.1723 32.8381C82.0126 32.8774 81.8767 32.9052 81.7403 32.9072C81.3171 32.9135 80.8937 32.9101 80.4704 32.9105C80.4687 32.4965 80.4671 32.0826 80.4681 31.6456Z" fill="#E8D272"/>
<path d="M89.9958 32.4082C89.4006 32.4151 88.8206 32.4162 88.2406 32.4127C88.1528 32.4122 88.0651 32.3906 87.958 32.37C88.1769 32.0202 88.4151 31.6791 88.668 31.3302C88.7783 31.3395 88.8739 31.3709 88.9696 31.3717C89.5381 31.3766 90.1067 31.3744 90.6989 31.3749C90.4853 31.7172 90.2481 32.059 89.9958 32.4082Z" fill="#E9D473"/>
<path d="M73.3711 24.5878C73.3737 24.7031 73.3858 24.8192 73.3772 24.9337C73.3568 25.206 73.3662 25.3144 73.7702 25.453C73.7702 25.5159 73.7702 25.5809 73.7702 25.6615C72.8715 25.6615 71.9763 25.6615 71.0602 25.6615C71.0569 25.5929 71.0535 25.5232 71.0503 25.456C71.3773 25.3496 71.446 25.2564 71.4474 24.9296C71.4478 24.8471 71.4486 24.7646 71.473 24.6596C72.1234 24.691 72.7507 24.7701 73.3711 24.5878Z" fill="#B3823D"/>
<path d="M121.379 32.6427C120.725 32.6547 120.076 32.6464 119.415 32.6043C119.45 32.4607 119.53 32.3536 119.54 32.2405C119.561 32.0032 119.545 31.7627 119.544 31.5236C120.156 31.5234 120.767 31.5231 121.401 31.5233C121.552 31.8951 121.447 32.258 121.379 32.6427Z" fill="#E8D272"/>
<path d="M75.7028 34.8212C75.0757 34.8425 74.4522 34.8422 73.8061 34.8424C73.7816 34.4783 73.7798 34.1138 73.8032 33.726C74.4356 33.7029 75.0426 33.7031 75.6497 33.7033C75.6686 34.0688 75.6875 34.4343 75.7028 34.8212Z" fill="#D3B35D"/>
<path d="M75.6531 33.6802C75.0427 33.7031 74.4356 33.7029 73.8059 33.703C73.7816 33.3389 73.7798 32.9744 73.8032 32.5866C74.4355 32.5635 75.0427 32.5637 75.6499 32.564C75.6521 32.9284 75.6544 33.2928 75.6531 33.6802Z" fill="#DEC368"/>
<path d="M64.7648 23.4222C65.3745 23.399 65.9814 23.3988 66.6109 23.3989C66.636 23.7636 66.6384 24.128 66.6371 24.5153C66.0266 24.5382 65.4198 24.538 64.7904 24.5381C64.7658 24.174 64.7639 23.8096 64.7648 23.4222Z" fill="#BD9047"/>
<path d="M114.935 32.6134C114.328 32.6131 113.72 32.6129 113.09 32.6131C113.066 32.249 113.064 31.8845 113.065 31.4969C113.675 31.4737 114.282 31.4735 114.915 31.4966C114.938 31.8844 114.937 32.2489 114.935 32.6134Z" fill="#E9D473"/>
<path d="M86.4627 22.6294C87.0724 22.6063 87.6793 22.6061 88.3088 22.6062C88.3339 22.9709 88.3363 23.3353 88.3125 23.7225C87.6793 23.7454 87.0724 23.7456 86.4655 23.7458C86.4636 23.3813 86.4617 23.0169 86.4627 22.6294Z" fill="#C59E4F"/>
<path d="M133.463 20.1298C133.907 20.1294 134.35 20.1339 134.793 20.1264C134.997 20.123 135.199 20.0959 135.423 20.0799C135.512 20.4292 135.58 20.7783 135.625 21.1488C134.976 21.1702 134.351 21.17 133.723 21.1492C133.634 20.7957 133.549 20.4627 133.463 20.1298Z" fill="#DEC368"/>
<path d="M88.3317 24.6868C88.3509 24.8389 88.3526 24.9962 88.3958 25.1412C88.422 25.2287 88.5105 25.2989 88.5749 25.3735C88.6405 25.4497 88.7109 25.5219 88.7792 25.5958C88.7616 25.6178 88.7441 25.6398 88.7265 25.6619C87.8492 25.6619 86.9719 25.6619 86.0741 25.6619C86.0593 25.5466 86.0217 25.4496 86.204 25.4011C86.3867 25.3526 86.4679 25.1978 86.4584 25.0029C86.454 24.9125 86.4588 24.8217 86.4852 24.7088C87.1179 24.6865 87.7248 24.6867 88.3317 24.6868Z" fill="#B3823D"/>
<path d="M141.095 23.0313C141.078 23.0769 141.064 23.0994 141.026 23.136C140.393 23.1505 139.784 23.1508 139.175 23.1512C139.172 22.8767 139.173 22.6021 139.166 22.3278C139.164 22.2507 139.141 22.1741 139.113 22.0813C139.766 22.0634 140.434 22.0615 141.125 22.0598C141.131 22.376 141.114 22.692 141.095 23.0313Z" fill="#CBA655"/>
<path d="M142.557 20.0715C141.963 20.0799 141.382 20.081 140.802 20.0775C140.714 20.077 140.626 20.0557 140.519 20.0354C140.721 19.7021 140.943 19.3773 141.179 19.0445C141.289 19.0538 141.385 19.0853 141.48 19.0861C142.049 19.0909 142.618 19.0887 143.21 19.0893C143.039 19.3734 142.845 19.6569 142.65 19.9407C142.623 19.9807 142.597 20.0219 142.557 20.0715Z" fill="#E8D272"/>
<path d="M84.0299 23.9281C83.3979 23.9435 82.7741 23.9465 82.1504 23.9409C81.9966 23.9395 81.8431 23.9101 81.6753 23.877C81.9371 23.5571 82.213 23.2538 82.5084 22.9587C82.6163 22.9786 82.7049 23 82.7935 23.0004C83.3701 23.0034 83.9468 23.0019 84.5234 23.0018C84.3616 23.3054 84.1999 23.609 84.0299 23.9281Z" fill="#C2984C"/>
<path d="M88.6323 35.3152C88.0036 35.3384 87.3786 35.3385 86.7333 35.3384C86.7098 35.007 86.7068 34.6758 86.7007 34.3218C87.3305 34.2984 87.9634 34.2979 88.62 34.2982C88.6412 34.6299 88.6386 34.9611 88.6323 35.3152Z" fill="#D0AD5A"/>
<path d="M95.2211 33.3336C94.5926 33.3568 93.9676 33.3569 93.3221 33.3568C93.2999 33.0251 93.2981 32.6936 93.3214 32.3387C93.9703 32.3156 94.594 32.3159 95.2178 32.3161C95.22 32.6475 95.2223 32.979 95.2211 33.3336Z" fill="#E1C86B"/>
<path d="M124.796 20.0569C124.182 20.0794 123.571 20.0788 122.938 20.0548C122.911 19.7024 122.975 19.3613 122.747 19.0715C122.835 19.0441 122.923 18.9942 123.012 18.993C123.561 18.9855 124.11 18.9889 124.683 18.9881C124.737 19.3363 124.768 19.6851 124.796 20.0569Z" fill="#E9D473"/>
<path d="M104.143 37.019C103.994 37.3903 104.012 37.4194 104.381 37.6238C104.452 37.6626 104.479 37.7789 104.549 37.8981C103.537 37.8981 102.589 37.8981 101.628 37.8981C101.628 37.8156 101.628 37.7362 101.628 37.6351C102.036 37.5933 102.176 37.2589 102.352 36.9438C102.459 36.9755 102.541 37.0174 102.623 37.0183C103.13 37.0237 103.636 37.0198 104.143 37.019Z" fill="#B4833E"/>
<path d="M125.193 36.7022C124.582 36.725 123.975 36.7247 123.345 36.7249C123.321 36.3771 123.319 36.0291 123.342 35.6578C123.656 35.6344 123.944 35.6406 124.232 35.6326C124.551 35.6237 124.87 35.6019 125.189 35.5856C125.191 35.9501 125.194 36.3146 125.193 36.7022Z" fill="#C2984C"/>
<path d="M139.172 23.1742C139.784 23.1508 140.392 23.1505 141.025 23.1499C141.048 23.4384 141.04 23.7275 141.052 24.0159C141.058 24.186 141.005 24.2471 140.829 24.2439C140.293 24.2341 139.756 24.2405 139.197 24.241C139.173 23.8933 139.171 23.5452 139.172 23.1742Z" fill="#C2984C"/>
<path d="M87.4976 32.395C86.9056 32.4129 86.3113 32.4122 85.7171 32.4158C85.6283 32.4164 85.5396 32.4376 85.4313 32.4576C85.1686 32.1459 84.9253 31.826 84.6792 31.4893C85.2686 31.4727 85.861 31.475 86.4532 31.471C86.558 31.4703 86.6625 31.4428 86.7882 31.4247C87.0379 31.7404 87.2666 32.0591 87.4976 32.395Z" fill="#E9D473"/>
<path d="M125.189 32.6134C125.191 32.9448 125.193 33.2761 125.172 33.6308C125.01 33.6702 124.872 33.6983 124.734 33.7001C124.263 33.7061 123.793 33.7028 123.322 33.7031C123.32 33.3552 123.319 33.0073 123.342 32.6361C123.975 32.613 124.582 32.6132 125.189 32.6134Z" fill="#DEC368"/>
<path d="M127.974 22.4979C127.882 22.5338 127.791 22.599 127.698 22.6007C127.163 22.6107 126.628 22.6058 126.07 22.6062C125.996 22.2581 125.944 21.9095 125.917 21.5386C126.126 21.5325 126.312 21.5648 126.497 21.5621C126.936 21.5557 127.375 21.5327 127.817 21.5384C127.871 21.8729 127.923 22.1854 127.974 22.4979Z" fill="#D1AF5B"/>
<path d="M75.019 21.5389C75.3405 21.533 75.6592 21.555 75.9783 21.5634C76.2828 21.5715 76.5877 21.5654 76.9178 21.5873C76.9942 21.9063 77.0452 22.2034 77.0918 22.5206C77.0063 22.5623 76.9254 22.6019 76.8442 22.6027C76.2864 22.6085 75.7285 22.6062 75.1707 22.6065C75.1193 22.2579 75.0678 21.9093 75.019 21.5389Z" fill="#D0AD5A"/>
<path d="M111.224 36.9527C111.128 36.9866 111.025 37.0182 110.921 37.0191C110.347 37.024 109.773 37.0216 109.177 37.0218C109.003 36.7206 108.852 36.4192 108.697 36.0998C109.369 36.0783 110.044 36.0747 110.746 36.0665C110.92 36.3533 111.068 36.6448 111.224 36.9527Z" fill="#BD9047"/>
<path d="M134.879 23.9377C134.198 23.9441 133.533 23.9463 132.868 23.94C132.777 23.9392 132.686 23.8968 132.593 23.8406C132.83 23.537 133.07 23.2664 133.33 22.9996C133.456 23.0194 133.561 23.0484 133.665 23.0493C134.225 23.0541 134.785 23.0518 135.344 23.0521C135.194 23.3449 135.044 23.6378 134.879 23.9377Z" fill="#C2984C"/>
<path d="M127.814 21.5164C127.375 21.5327 126.936 21.5557 126.497 21.5621C126.311 21.5648 126.125 21.5325 125.919 21.5163C125.929 21.1998 125.959 20.8832 126.016 20.5459C126.671 20.5256 127.298 20.5258 127.924 20.5468C127.885 20.8839 127.85 21.2001 127.814 21.5164Z" fill="#D9BB63"/>
<path d="M75.1753 22.6246C75.7289 22.6062 76.2868 22.6085 76.8446 22.6027C76.9258 22.6019 77.0066 22.5623 77.1073 22.5305C77.1998 22.6734 77.2623 22.8325 77.3479 22.978C77.4522 23.1552 77.5758 23.3211 77.6771 23.5075C77.1983 23.5311 76.7333 23.535 76.2686 23.5486C76.0334 23.5554 75.7987 23.5796 75.5638 23.596C75.4357 23.2783 75.3076 22.9605 75.1753 22.6246Z" fill="#C59E4F"/>
<path d="M75.6529 32.5409C75.0424 32.5637 74.4352 32.5635 73.8054 32.5636C73.781 32.2325 73.7792 31.901 73.7799 31.5464C74.3899 31.5232 74.9973 31.523 75.6273 31.5231C75.652 31.8549 75.6541 32.1863 75.6529 32.5409Z" fill="#E9D473"/>
<path d="M125.192 32.5903C124.582 32.6132 123.975 32.613 123.345 32.6131C123.321 32.282 123.319 31.9505 123.319 31.5961C123.929 31.5729 124.537 31.5726 125.167 31.5727C125.191 31.9044 125.193 32.2358 125.192 32.5903Z" fill="#E8D272"/>
<path d="M82.1706 35.0774C81.5917 35.0902 81.0294 35.09 80.4445 35.0901C80.4365 34.7417 80.4511 34.393 80.491 34.022C81.074 34 81.6317 34.0002 82.1894 34.0005C82.1886 34.3551 82.1879 34.7097 82.1706 35.0774Z" fill="#D1AF5B"/>
<path d="M84.7649 21.071C84.7678 21.4095 84.7706 21.748 84.7331 22.0995C84.1532 22.1116 83.6136 22.1151 83.0741 22.1055C82.9953 22.1041 82.9176 22.0403 82.8398 21.9827C82.8433 21.68 82.8463 21.4001 82.872 21.12C83.2158 21.1196 83.5371 21.1257 83.858 21.1176C84.1605 21.1099 84.4626 21.0871 84.7649 21.071Z" fill="#D4B45E"/>
<path d="M57.3133 20.077C57.2402 20.1327 57.1528 20.2193 57.0634 20.2213C56.5052 20.2341 55.9466 20.2279 55.3644 20.2284C55.3433 19.8793 55.3461 19.5299 55.3516 19.1596C55.9325 19.1551 56.5104 19.1715 57.1121 19.1884C56.9861 19.5198 57.0021 19.8201 57.3133 20.077Z" fill="#E8D272"/>
<path d="M82.1927 33.9774C81.6316 34.0002 81.0739 34 80.4935 34.0001C80.469 33.6525 80.4672 33.3045 80.4679 32.9335C80.8938 32.9101 81.3172 32.9135 81.7405 32.9072C81.8768 32.9052 82.0127 32.8774 82.1692 32.8612C82.1918 33.2254 82.194 33.5899 82.1927 33.9774Z" fill="#DDC167"/>
<path d="M98.9874 20.0609C98.9 20.0936 98.8051 20.1254 98.7099 20.1263C98.1606 20.1312 97.6114 20.1288 97.0395 20.1293C97.0359 19.7738 97.0549 19.4179 97.0885 19.0495C97.4798 19.0541 97.8563 19.0746 98.2331 19.087C98.4553 19.0943 98.678 19.0886 98.9243 19.0896C98.6638 19.4658 98.6797 19.7521 98.9874 20.0609Z" fill="#E9D473"/>
<path d="M118.304 20.1788C117.828 20.195 117.352 20.2198 116.875 20.2226C116.725 20.2234 116.574 20.1652 116.405 20.1317C116.385 20.0757 116.383 20.022 116.391 19.9442C116.41 19.9039 116.406 19.8917 116.387 19.8832C116.385 19.6832 116.383 19.4833 116.383 19.2605C116.875 19.2374 117.364 19.2405 117.854 19.2346C117.99 19.2329 118.127 19.2047 118.286 19.2115C118.307 19.5491 118.305 19.8639 118.304 20.1788Z" fill="#E8D272"/>
<path d="M135.353 23.0355C134.784 23.0518 134.225 23.054 133.665 23.0492C133.56 23.0483 133.456 23.0194 133.34 22.9851C133.445 22.6816 133.56 22.3963 133.699 22.1107C134.345 22.1106 134.968 22.1109 135.592 22.1111C135.515 22.4137 135.438 22.7164 135.353 23.0355Z" fill="#CBA655"/>
<path d="M113.065 35.8562C113.581 35.833 114.095 35.8349 114.608 35.8305C114.703 35.8297 114.799 35.8038 114.914 35.7866C114.937 36.1153 114.939 36.4468 114.938 36.8012C114.327 36.824 113.72 36.8239 113.091 36.8239C113.066 36.5092 113.064 36.1942 113.065 35.8562Z" fill="#BF9549"/>
<path d="M86.4625 19.0131C87.0724 18.9899 87.6797 18.9897 88.3095 18.9898C88.3341 19.305 88.3362 19.6199 88.3351 19.9579C87.7247 19.9808 87.1176 19.9806 86.488 19.9807C86.4636 19.6661 86.4618 19.3511 86.4625 19.0131Z" fill="#E9D473"/>
<path d="M125.192 35.5626C124.87 35.6019 124.551 35.6237 124.232 35.6326C123.944 35.6406 123.656 35.6345 123.345 35.6348C123.321 35.3202 123.319 35.0053 123.342 34.6671C123.975 34.644 124.582 34.6442 125.189 34.6444C125.191 34.9428 125.193 35.2412 125.192 35.5626Z" fill="#CBA655"/>
<path d="M84.7683 21.0501C84.4626 21.0871 84.1605 21.1099 83.858 21.1176C83.5371 21.1257 83.2158 21.1196 82.8686 21.0994C82.7744 20.798 82.7063 20.5168 82.6382 20.2357C82.7223 20.2165 82.8062 20.1817 82.8905 20.1806C83.335 20.1751 83.7796 20.1808 84.2242 20.1759C84.3291 20.1748 84.4336 20.1477 84.5594 20.1295C84.6441 20.4274 84.7079 20.7283 84.7683 21.0501Z" fill="#DEC368"/>
<path d="M112.752 21.0539C112.462 21.0872 112.17 21.1107 111.878 21.1175C111.526 21.1257 111.174 21.1197 110.784 21.1108C110.612 20.7941 110.477 20.4865 110.343 20.1788C110.801 20.1951 111.258 20.2198 111.715 20.2234C111.892 20.2248 112.068 20.1784 112.257 20.1388C112.43 20.4282 112.59 20.7325 112.752 21.0539Z" fill="#DEC368"/>
<path d="M104.143 37.0009C103.636 37.0198 103.13 37.0237 102.623 37.0183C102.541 37.0174 102.459 36.9755 102.367 36.9349C102.495 36.6093 102.634 36.3013 102.787 35.9841C102.887 35.9934 102.971 36.0272 103.055 36.0281C103.549 36.0333 104.042 36.0308 104.558 36.0312C104.435 36.3486 104.29 36.6657 104.143 37.0009Z" fill="#BD9047"/>
<path d="M73.3741 24.5648C72.75 24.7701 72.1228 24.691 71.4755 24.6372C71.4528 24.3389 71.4509 24.0406 71.4519 23.7193C72.0802 23.6981 72.7055 23.7 73.3509 23.699C73.3732 23.9781 73.3754 24.26 73.3741 24.5648Z" fill="#BB8D45"/>
<path d="M121.639 23.9109C122.229 23.894 122.821 23.8953 123.414 23.8921C123.502 23.8916 123.59 23.8694 123.698 23.8487C123.91 24.1108 124.103 24.3815 124.303 24.668C124.032 24.7012 123.754 24.7276 123.476 24.7336C123.072 24.7423 122.668 24.7363 122.24 24.7372C122.024 24.4678 121.833 24.1978 121.639 23.9109Z" fill="#BA8C44"/>
<path d="M108.651 22.3085C108.259 22.3084 107.866 22.3134 107.474 22.3061C107.288 22.3026 107.102 22.2756 106.896 22.2595C107.027 21.9337 107.179 21.6077 107.359 21.2877C107.96 21.3021 108.531 21.3104 109.1 21.3378C109.071 21.4302 109.047 21.5048 109.017 21.5766C108.915 21.8194 108.81 22.0612 108.693 22.3048C108.67 22.307 108.66 22.3077 108.651 22.3085Z" fill="#D3B35D"/>
<path d="M82.839 22.0054C82.9173 22.0403 82.995 22.1041 83.0738 22.1055C83.6133 22.1151 84.1529 22.1117 84.7171 22.1139C84.6701 22.3981 84.5985 22.6808 84.525 22.9826C83.9465 23.0019 83.3699 23.0034 82.7933 23.0004C82.7047 23 82.6161 22.9786 82.5107 22.9406C82.609 22.6113 82.724 22.3084 82.839 22.0054Z" fill="#CBA655"/>
<path d="M125.192 34.6213C124.582 34.6442 123.975 34.644 123.345 34.6441C123.321 34.346 123.319 34.0475 123.319 33.7261C123.793 33.7028 124.263 33.7061 124.734 33.7001C124.872 33.6983 125.01 33.6702 125.168 33.6539C125.191 33.9685 125.193 34.2834 125.192 34.6213Z" fill="#D4B45E"/>
<path d="M109.103 21.3188C108.531 21.3104 107.96 21.302 107.374 21.278C107.497 20.9557 107.633 20.6492 107.784 20.3325C108.282 20.3238 108.764 20.3235 109.247 20.3282C109.335 20.329 109.423 20.3502 109.526 20.3877C109.396 20.7151 109.249 21.017 109.103 21.3188Z" fill="#DDC167"/>
<path d="M88.3352 24.6638C87.7247 24.6867 87.1178 24.6865 86.4882 24.6866C86.4636 24.3885 86.4616 24.0901 86.4626 23.7688C87.0725 23.7456 87.6794 23.7454 88.3089 23.7455C88.334 24.0441 88.3364 24.3425 88.3352 24.6638Z" fill="#BB8D45"/>
<path d="M95.221 32.293C94.5941 32.3159 93.9704 32.3156 93.3241 32.3157C93.2998 32.0012 93.2981 31.6863 93.299 31.3485C93.9224 31.507 94.5499 31.4286 95.1973 31.3747C95.22 31.6732 95.2221 31.9716 95.221 32.293Z" fill="#E9D473"/>
<path d="M135.595 22.0901C134.968 22.1109 134.345 22.1106 133.695 22.0897C133.688 21.7692 133.707 21.4695 133.725 21.1697C134.351 21.17 134.976 21.1702 135.621 21.1701C135.627 21.4696 135.613 21.7694 135.595 22.0901Z" fill="#D4B45E"/>
<path d="M127.926 20.526C127.298 20.5258 126.671 20.5256 126.021 20.5256C126.083 20.2347 126.168 19.9435 126.287 19.6502C126.409 19.6597 126.497 19.681 126.586 19.6814C127.177 19.6845 127.769 19.6831 128.357 19.6996C128.211 19.9861 128.069 20.256 127.926 20.526Z" fill="#E1C86B"/>
<path d="M128.361 19.6832C127.769 19.6831 127.178 19.6845 126.586 19.6814C126.498 19.681 126.409 19.6597 126.302 19.6394C126.421 19.3885 126.56 19.1462 126.713 18.896C126.832 18.9053 126.935 18.9358 127.039 18.9376C127.704 18.9495 128.369 18.9551 129.041 18.9929C128.818 19.243 128.589 19.4631 128.361 19.6832Z" fill="#E9D473"/>
<path d="M93.1998 19.2607C93.716 19.2374 94.2297 19.2393 94.7433 19.2349C94.839 19.234 94.9345 19.2081 95.05 19.1911C95.072 19.4867 95.074 19.785 95.0729 20.1063C94.4624 20.1292 93.8552 20.129 93.2254 20.1291C93.201 19.8475 93.1991 19.5656 93.1998 19.2607Z" fill="#E8D272"/>
<path d="M75.5654 23.6133C75.7986 23.5797 76.0333 23.5554 76.2684 23.5486C76.7332 23.5351 77.1982 23.5311 77.6925 23.5152C77.9925 23.6991 78.2632 23.891 78.5338 24.083C78.4219 24.1189 78.3105 24.1845 78.1982 24.186C77.481 24.1957 76.7636 24.1912 76.0226 24.192C75.855 24.0051 75.7111 23.8178 75.5654 23.6133Z" fill="#BD9047"/>
<path d="M95.0726 23.0788C94.4621 23.1016 93.8552 23.1014 93.2256 23.1015C93.2009 22.8692 93.1989 22.6366 93.1999 22.3811C93.8099 22.3582 94.4168 22.3581 95.0464 22.3581C95.0714 22.5908 95.0737 22.8233 95.0726 23.0788Z" fill="#CBA655"/>
<path d="M61.2959 23.1701C61.8902 23.151 62.4807 23.1509 63.0939 23.1509C63.0828 23.3754 63.049 23.5997 62.9994 23.8349C62.4326 23.8452 61.8818 23.8479 61.3311 23.8408C61.2402 23.8397 61.1498 23.7961 61.0498 23.7541C61.1243 23.5537 61.2083 23.3714 61.2959 23.1701Z" fill="#C2984C"/>
<path d="M98.7859 23.9221C98.5891 23.9722 98.3837 24.0333 98.1776 24.0362C97.8341 24.041 97.4902 24.0085 97.1245 23.991C97.17 23.8104 97.2308 23.6277 97.3065 23.4514C97.3953 23.2448 97.4972 23.0437 97.6179 22.7886C97.7024 22.8771 97.8174 22.9405 97.8322 23.0221C97.9187 23.5005 98.2839 23.6825 98.6677 23.8526C98.7048 23.8691 98.7406 23.8887 98.7859 23.9221Z" fill="#C2984C"/>
<path d="M113.3 22.1453C113.285 22.1519 113.273 22.1412 113.263 22.1146C113.273 22.113 113.286 22.1228 113.3 22.1453Z" fill="#CAA454"/>
<path d="M116.384 21.3805C116.407 21.3773 116.411 21.3903 116.394 21.4118C116.386 21.4161 116.382 21.3923 116.384 21.3805Z" fill="#D0AD5A"/>
<path d="M104.973 31.4226C104.982 31.4336 104.975 31.4477 104.952 31.4654C104.948 31.4571 104.955 31.4427 104.973 31.4226Z" fill="#E8D272"/>
<path d="M116.384 22.5201C116.406 22.517 116.411 22.5296 116.393 22.5505C116.386 22.5547 116.382 22.5316 116.384 22.5201Z" fill="#C2984C"/>
<path d="M126.77 18.7908C126.779 18.8016 126.771 18.8153 126.749 18.8326C126.737 18.8202 126.743 18.806 126.77 18.7908Z" fill="#E9D473"/>
<path d="M135.444 20.0153C135.429 20.0217 135.418 20.0113 135.407 19.9849C135.416 19.9833 135.429 19.9931 135.444 20.0153Z" fill="#DEC368"/>
<path d="M116.385 19.8945C116.406 19.8916 116.411 19.9042 116.394 19.9249C116.386 19.9292 116.383 19.906 116.385 19.8945Z" fill="#E0C569"/>
<path d="M75.7947 18.9397C75.8028 18.9503 75.7956 18.9639 75.7739 18.9811C75.7618 18.9689 75.7684 18.955 75.7947 18.9397Z" fill="#E8D272"/>
<path d="M116.384 20.5879C116.406 20.5849 116.411 20.5976 116.393 20.6187C116.386 20.6229 116.382 20.5996 116.384 20.5879Z" fill="#D8BA62"/>
<path d="M55.3832 19.036C55.3877 19.0453 55.3803 19.0601 55.3621 19.0811C55.3578 19.0721 55.3645 19.0569 55.3832 19.036Z" fill="#E8D272"/>
<path d="M109.09 32.598C109.075 32.6047 109.063 32.5941 109.052 32.5674C109.062 32.5658 109.075 32.5756 109.09 32.598Z" fill="#DDC167"/>
<path d="M122.721 19.0343C122.709 19.0404 122.688 19.0315 122.656 19.0075C122.668 19.0014 122.69 19.0103 122.721 19.0343Z" fill="#E9D473"/>
<path d="M129.154 18.9444C129.161 18.957 129.151 18.9699 129.125 18.9807C129.119 18.967 129.129 18.9556 129.154 18.9444Z" fill="#E9D473"/>
<path d="M108.693 22.3048C109.547 22.3049 110.387 22.3064 111.249 22.3065C111.266 22.3222 111.259 22.3546 111.253 22.3546C110.395 22.3507 109.538 22.3444 108.666 22.3233C108.661 22.3077 108.67 22.307 108.693 22.3048Z" fill="#B5853F"/>
</g>
<defs>
<clipPath id="clip0_218_210">
<rect width="89.8142" height="20.955" fill="white" transform="translate(54.9507 17.0572)"/>
</clipPath>
</defs>
</svg>
