<svg width="550" height="487" viewBox="0 0 550 487" fill="none" xmlns="http://www.w3.org/2000/svg">
<path d="M34.3969 147.106C42.1988 147.106 51.1652 148.853 60.8302 153.045L53.2612 168.998C45.8087 165.504 40.2192 163.874 34.8627 163.874C29.1569 163.874 27.4102 165.854 27.4102 168.649C27.4102 171.094 28.924 172.724 33.5818 175.519L47.0896 184.019C56.871 189.958 62.5769 196.479 62.5769 207.891C62.5769 223.611 51.8639 232.112 32.8831 232.112C21.9372 232.112 11.6899 229.317 2.49068 223.96L10.6419 207.774C18.4438 212.549 26.1293 215.227 33.5818 215.227C40.1028 215.227 43.5962 213.015 43.5962 208.706C43.5962 204.98 40.4521 202.767 35.9107 199.973L23.451 192.171C12.8544 185.883 8.42944 178.081 8.42944 168.881C8.42944 155.607 17.1629 147.106 34.3969 147.106ZM88.7709 148.969V166.669H69.9066V148.969H88.7709ZM70.6053 230.365V176.567H88.1887V230.365H70.6053ZM116.734 215.576H144.332V230.365H95.4247V217.09L120.694 191.356H97.2879V176.567H142.585V189.492L116.734 215.576ZM201.841 232.112C190.429 232.112 181.463 225.125 181.463 209.754V176.567H199.629V205.911C199.629 213.713 203.238 216.741 208.478 216.741C214.65 216.741 218.609 212.432 218.609 202.534V176.567H236.193V230.365H218.959V221.981H218.726C214.883 228.153 209.759 232.112 201.841 232.112ZM273.879 232.112C256.645 232.112 243.953 220.816 243.953 203.466C243.953 186.115 256.645 174.82 273.879 174.82C281.448 174.82 287.504 176.683 293.326 180.06L286.106 194.15C282.846 192.054 279.469 190.89 274.695 190.89C267.708 190.89 261.536 195.431 261.536 203.466C261.536 211.501 267.708 216.042 274.695 216.042C279.469 216.042 282.846 214.878 286.106 212.782L293.326 226.872C287.504 230.249 281.448 232.112 273.879 232.112ZM317.101 148.853V183.67H317.334C321.06 177.964 326.882 174.82 334.568 174.82C346.445 174.82 354.83 181.69 354.83 197.061V230.365H337.246V201.952C337.246 193.917 333.869 190.308 327.465 190.308C321.526 190.308 317.101 193.801 317.101 203.349V230.365H299.518V148.853H317.101ZM384.812 232.112C373.4 232.112 364.434 225.125 364.434 209.754V176.567H382.599V205.911C382.599 213.713 386.209 216.741 391.449 216.741C397.621 216.741 401.58 212.432 401.58 202.534V176.567H419.163V230.365H401.929V221.981H401.696C397.854 228.153 392.73 232.112 384.812 232.112ZM464.885 174.82C476.762 174.82 485.146 181.69 485.146 197.061V230.365H467.679V201.952C467.679 193.917 464.303 190.308 457.782 190.308C451.843 190.308 447.418 193.801 447.418 203.349V230.365H429.834V176.567H447.069V184.718H447.301C451.028 178.43 457.316 174.82 464.885 174.82ZM52.1236 346.365V292.567H69.3576V300.485H69.5905C72.6181 294.546 78.4404 290.82 86.3588 290.82C94.6264 290.82 100.449 294.779 103.243 301.3H103.476C107.203 294.663 113.607 290.82 121.526 290.82C132.704 290.82 140.739 298.273 140.739 311.315V346.365H123.156V317.137C123.156 310.383 120.594 306.308 114.422 306.308C109.066 306.308 104.874 309.568 104.874 319.699V346.365H87.989V317.137C87.989 310.383 85.4272 306.308 79.2555 306.308C73.899 306.308 69.707 309.568 69.707 319.699V346.365H52.1236ZM173.42 348.112C159.447 348.112 147.919 338.33 147.919 319.466C147.919 300.602 159.447 290.82 173.42 290.82C182.154 290.82 187.627 294.43 191.004 299.903H191.237V292.567H208.82V346.365H191.237V339.029H191.004C187.627 344.502 182.154 348.112 173.42 348.112ZM178.311 332.042C185.414 332.042 190.771 327.151 190.771 319.466C190.771 311.78 185.414 306.89 178.311 306.89C171.324 306.89 165.968 311.78 165.968 319.466C165.968 327.151 171.324 332.042 178.311 332.042ZM258.419 346.365L246.541 329.597L234.547 346.365H214.286L235.828 318.185L216.265 292.567H236.643L246.541 306.773L256.323 292.567H276.701L257.138 318.185L278.681 346.365H258.419ZM304.82 348.112C297.717 348.112 288.634 346.598 280.483 342.522L287.12 328.083C292.942 331.46 299.58 334.255 306.217 334.255C309.361 334.255 311.108 333.556 311.108 331.809C311.108 329.713 309.012 329.364 307.382 328.665L297.95 324.939C289.1 321.562 284.791 316.322 284.791 308.287C284.791 297.225 292.36 290.82 307.848 290.82C313.903 290.82 320.424 291.868 327.294 294.081L322.403 308.287C316.697 305.958 310.759 304.328 306.45 304.328C302.957 304.328 302.142 305.259 302.142 306.657C302.142 308.287 303.539 308.986 306.217 310.034L315.533 313.527C323.684 316.555 328.575 320.863 328.575 329.946C328.575 342.755 319.143 348.112 304.82 348.112ZM354.961 348.112C343.549 348.112 334.583 341.125 334.583 325.754V292.567H352.748V321.911C352.748 329.713 356.358 332.741 361.598 332.741C367.77 332.741 371.729 328.432 371.729 318.534V292.567H389.313V346.365H372.079V337.981H371.846C368.003 344.153 362.879 348.112 354.961 348.112ZM420.129 348.112C413.026 348.112 403.943 346.598 395.792 342.522L402.429 328.083C408.251 331.46 414.889 334.255 421.526 334.255C424.67 334.255 426.417 333.556 426.417 331.809C426.417 329.713 424.321 329.364 422.691 328.665L413.259 324.939C404.409 321.562 400.1 316.322 400.1 308.287C400.1 297.225 407.669 290.82 423.157 290.82C429.212 290.82 435.733 291.868 442.603 294.081L437.712 308.287C432.006 305.958 426.068 304.328 421.759 304.328C418.266 304.328 417.451 305.259 417.451 306.657C417.451 308.287 418.848 308.986 421.526 310.034L430.842 313.527C438.993 316.555 443.884 320.863 443.884 329.946C443.884 342.755 434.452 348.112 420.129 348.112ZM81.6559 423.239H70.5935V439.425C70.5935 444.432 71.8744 446.063 76.4158 446.063H78.3954V462.365H71.0593C60.1133 462.365 53.0101 457.125 53.0101 444.199V423.239H42.53V408.567H53.0101V387.024H70.5935V408.567H81.6559V423.239ZM109.682 464.112C95.7086 464.112 84.1804 454.33 84.1804 435.466C84.1804 416.602 95.7086 406.82 109.682 406.82C118.416 406.82 123.889 410.43 127.265 415.903H127.498V408.567H145.082V462.365H127.498V455.029H127.265C123.889 460.502 118.416 464.112 109.682 464.112ZM114.573 448.042C121.676 448.042 127.033 443.151 127.033 435.466C127.033 427.78 121.676 422.89 114.573 422.89C107.586 422.89 102.23 427.78 102.23 435.466C102.23 443.151 107.586 448.042 114.573 448.042ZM214.011 462.365H191.304L173.022 437.678V462.365H155.438V380.853H173.022V429.76L188.742 408.567H210.517L189.208 433.021L214.011 462.365ZM236.589 380.853V462.365H219.006V380.853H236.589ZM265.601 380.969V398.669H246.737V380.969H265.601ZM247.435 462.365V408.567H265.019V462.365H247.435ZM281.105 405.423C281.105 387.607 289.605 379.688 306.956 379.688H310.565V395.991H309.052C301.366 395.991 298.688 398.087 298.688 406.005V408.567H310.1V423.239H298.688V462.365H281.105V423.239H271.672V408.567H281.105V405.423ZM317.203 380.853H334.786V462.365H317.203V380.853ZM368.047 464.112C354.074 464.112 342.545 454.33 342.545 435.466C342.545 416.602 354.074 406.82 368.047 406.82C376.781 406.82 382.253 410.43 385.63 415.903H385.863V408.567H403.447V462.365H385.863V455.029H385.63C382.253 460.502 376.781 464.112 368.047 464.112ZM372.938 448.042C380.041 448.042 385.398 443.151 385.398 435.466C385.398 427.78 380.041 422.89 372.938 422.89C365.951 422.89 360.595 427.78 360.595 435.466C360.595 443.151 365.951 448.042 372.938 448.042ZM449.319 406.937V424.52H447.805C436.044 424.52 431.27 428.828 431.27 442.569V462.365H413.687V408.567H430.921V419.513H431.154C434.298 410.663 440.469 406.937 448.97 406.937H449.319Z" fill="white"/>
<g filter="url(#filter0_d_29_10612)">
<g clip-path="url(#clip0_29_10612)">
<rect x="400.552" y="62.0422" width="135.678" height="93.0635" rx="3.13345" transform="rotate(15.9599 400.552 62.0422)" fill="url(#paint0_linear_29_10612)"/>
<g clip-path="url(#clip1_29_10612)">
<rect x="403.778" y="67.8535" width="126.278" height="83.6631" rx="1.88007" transform="rotate(15.9599 403.778 67.8535)" fill="url(#paint1_linear_29_10612)"/>
<path d="M447.399 91.3464C454.605 93.4074 457.714 97.6228 456.147 103.1C455.076 106.847 452.192 108.933 448.307 108.706L448.28 108.802C452.459 110.725 454.065 114.199 452.773 118.715C450.973 125.009 445.495 127.444 437.904 125.273C429.976 123.006 426.676 118.008 428.641 111.138L436.232 113.309C435.682 115.958 436.931 117.77 439.862 118.609C442.792 119.447 444.68 118.479 445.45 115.789C446.274 112.906 444.833 111.403 440.077 110.042L438.972 109.726L440.538 104.249L441.643 104.565C445.198 105.582 447.114 104.882 447.869 102.24C448.474 100.126 447.507 98.6017 445.2 97.9422C442.846 97.2689 441.061 98.0578 440.436 100.062L432.989 97.9322C434.837 91.6521 440.048 89.2441 447.399 91.3464ZM465.191 133.077C457.167 130.782 453.545 124.549 455.743 116.862C457.007 112.441 460.042 108.736 465.191 105.27L473.718 99.4451L482.462 101.946L467.441 111.579L467.557 111.716C469.912 110.571 471.518 110.406 473.728 111.038C479.974 112.825 482.904 118.392 481.049 124.878C479.07 131.797 472.542 135.179 465.191 133.077ZM466.86 126.33C469.935 127.209 472.688 125.762 473.526 122.831C474.378 119.852 472.841 117.23 469.718 116.337C466.595 115.443 463.891 116.905 463.053 119.836C462.214 122.766 463.786 125.451 466.86 126.33Z" fill="#1C1B17"/>
<path d="M402.932 125.753C407.232 126.983 409.582 130.694 408.369 134.936C407.155 139.179 403.199 141.086 398.899 139.856C394.628 138.635 392.278 134.924 393.491 130.682C394.705 126.439 398.661 124.532 402.932 125.753ZM401.801 129.709C400.081 129.217 398.361 130.028 397.82 131.919C397.279 133.811 398.31 135.409 400.03 135.901C401.779 136.401 403.47 135.582 404.011 133.69C404.553 131.798 403.55 130.209 401.801 129.709ZM421.395 131.498L425.781 132.753L411.553 149.212L407.196 147.966L412.522 141.923L410.015 128.244L415.003 129.67L416.008 137.865L421.395 131.498ZM427.838 154.335C426.462 153.941 424.456 153.15 422.351 152.052L424.223 148.215C426.254 149.354 427.675 149.916 428.679 150.203C430.857 150.826 432.008 150.38 432.672 148.058L432.918 147.198L432.861 147.181C431.792 147.992 430.166 148.581 427.93 147.942C424.461 146.95 422.337 143.862 423.648 139.275C424.968 134.66 428.495 133.064 431.934 134.048C434.084 134.662 435.177 135.936 435.623 137.521L435.681 137.538L436.197 135.732L440.526 136.97L436.738 150.213C435.521 154.361 432.424 155.646 427.838 154.335ZM430.236 144.539C431.985 145.039 433.648 144.213 434.189 142.321C434.73 140.429 433.756 138.848 432.007 138.348C430.287 137.856 428.624 138.683 428.083 140.574C427.542 142.466 428.516 144.047 430.236 144.539ZM444.697 152.954C441.257 151.97 439.108 148.751 440.436 144.107C441.764 139.463 445.291 137.867 448.73 138.851C450.88 139.466 451.973 140.74 452.419 142.325L452.477 142.341L452.993 140.535L457.322 141.773L453.534 155.016L449.206 153.778L449.722 151.973L449.665 151.956C448.448 153.066 446.847 153.569 444.697 152.954ZM447.032 149.343C448.781 149.843 450.444 149.016 450.985 147.124C451.526 145.232 450.552 143.651 448.803 143.151C447.083 142.659 445.42 143.486 444.879 145.378C444.338 147.27 445.312 148.851 447.032 149.343ZM462.582 158.069C458.34 156.856 456.01 153.182 457.232 148.911C458.453 144.64 462.373 142.753 466.616 143.966C468.479 144.499 469.838 145.384 471.034 146.625L468.265 149.585C467.609 148.84 466.86 148.315 465.685 147.979C463.965 147.487 462.126 148.171 461.56 150.149C460.995 152.126 462.194 153.679 463.914 154.171C465.089 154.507 466.003 154.458 466.953 154.172L467.738 158.148C466.067 158.57 464.445 158.602 462.582 158.069ZM479.083 140.616L476.632 149.187L476.69 149.204C478.009 148.061 479.663 147.697 481.555 148.238C484.479 149.075 486.059 151.356 484.977 155.14L482.632 163.338L478.304 162.1L480.304 155.106C480.87 153.128 480.293 152.002 478.716 151.551C477.254 151.133 475.919 151.681 475.247 154.032L473.345 160.682L469.016 159.444L474.755 139.379L479.083 140.616ZM490.578 166.076C487.138 165.092 484.989 161.872 486.317 157.229C487.645 152.585 491.171 150.989 494.611 151.972C496.761 152.587 497.854 153.861 498.3 155.446L498.358 155.463L498.874 153.657L503.202 154.895L499.415 168.138L495.087 166.9L495.603 165.094L495.546 165.078C494.329 166.187 492.728 166.69 490.578 166.076ZM492.913 162.464C494.662 162.964 496.325 162.137 496.866 160.245C497.407 158.354 496.432 156.773 494.684 156.272C492.964 155.781 491.301 156.607 490.76 158.499C490.219 160.391 491.193 161.972 492.913 162.464Z" fill="#1C1B17"/>
</g>
</g>
</g>
<g filter="url(#filter1_d_29_10612)">
<g clip-path="url(#clip2_29_10612)">
<rect x="267.798" y="44.0054" width="135.365" height="92.8486" rx="3.12621" transform="rotate(-9.1151 267.798 44.0054)" fill="url(#paint2_linear_29_10612)"/>
<g clip-path="url(#clip3_29_10612)">
<rect x="273.171" y="47.8926" width="125.986" height="83.4699" rx="1.87573" transform="rotate(-9.1151 273.171 47.8926)" fill="url(#paint3_linear_29_10612)"/>
<path d="M303.368 73.2591L304.434 79.9047L288.583 82.4479L287.517 75.8023L303.368 73.2591ZM307.726 89.3741L306.787 83.5162L316.184 70.6474C318.754 67.1549 319.553 65.209 319.245 63.2892C318.889 61.074 317.355 60.0074 314.894 60.4023C312.038 60.8604 310.806 62.6233 311.265 65.4785L303.733 66.6869C302.596 59.5983 306.412 54.7446 313.993 53.5283C321.081 52.3909 325.907 55.4037 326.886 61.5077C327.495 65.2981 326.344 68.5124 322.668 73.2932L316.578 81.2887L329.804 79.0657L330.863 85.662L307.726 89.3741ZM342.623 61.2045C349.17 60.1541 354.14 63.7497 355.199 70.346C356.383 77.7299 352.081 83.0151 343.909 84.3262C339.331 85.0607 335.164 84.265 331.522 82.0217L334.948 75.3624C337.461 77.1808 340.153 77.9102 342.762 77.4916C346.159 76.9467 347.903 74.5967 347.381 71.3477C346.899 68.3449 344.827 66.7587 341.824 67.2404C339.905 67.5485 338.562 68.6223 337.789 70.4126L331.931 71.3525L330.534 51.6317L348.354 48.7726L349.412 55.3689L336.86 57.3829L337.223 63.7373L337.371 63.7136C338.534 62.4666 340.359 61.5679 342.623 61.2045ZM363.342 45.6104C367.969 44.868 371.921 47.4656 372.718 52.4375C373.508 57.3601 370.568 61.0635 365.94 61.8059C361.264 62.5562 357.313 59.9586 356.523 55.0359C355.725 50.0641 358.665 46.3608 363.342 45.6104ZM365.936 80.0346L380.099 43.6793L383.939 43.0632L369.776 79.4186L365.936 80.0346ZM363.903 49.1055C361.343 49.5162 359.757 51.5885 360.215 54.4436C360.665 57.2495 362.828 58.7707 365.388 58.36C367.898 57.9572 369.476 55.8357 369.026 53.0298C368.568 50.1747 366.413 48.7027 363.903 49.1055ZM384.151 60.7523C388.778 60.0099 392.73 62.6075 393.519 67.5302C394.317 72.502 391.377 76.2054 386.749 76.9478C382.122 77.6902 378.122 75.1005 377.324 70.1286C376.534 65.206 379.524 61.4948 384.151 60.7523ZM384.704 64.1982C382.193 64.601 380.615 66.7225 381.065 69.5284C381.523 72.3835 383.678 73.8555 386.189 73.4527C388.699 73.0499 390.286 70.9776 389.827 68.1225C389.377 65.3166 387.214 63.7954 384.704 64.1982Z" fill="#1C1B17"/>
<path d="M298.913 117.262C292.969 118.215 287.971 115.099 287.009 109.101C286.046 103.102 289.818 98.5792 295.763 97.6254C298.695 97.155 301.025 97.7468 302.851 98.6402L301.178 102.661C299.839 102.048 298.282 101.636 296.453 101.929C293.172 102.456 291.06 104.947 291.609 108.363C292.157 111.779 294.941 113.484 298.223 112.958C300.052 112.664 301.401 111.786 302.482 110.784L305.328 114.08C303.873 115.5 301.845 116.791 298.913 117.262ZM308.201 96.0436L309.491 104.086L309.545 104.078C310.194 102.622 311.423 101.68 313.198 101.395C315.942 100.954 318.133 102.231 318.703 105.781L319.937 113.475L315.875 114.126L314.822 107.563C314.524 105.707 313.611 104.998 312.131 105.236C310.759 105.456 309.867 106.427 310.221 108.632L311.222 114.873L307.16 115.524L304.139 96.6953L308.201 96.0436ZM326.127 99.348C329.866 98.7481 332.632 100.512 333.352 105.004L333.499 105.918L324.596 107.347C325.115 108.864 326.464 109.365 328.132 109.097C329.639 108.855 330.857 108.025 331.555 107.389L333.527 110.218C332.338 111.236 330.747 112.154 328.622 112.495C324.453 113.164 321.264 110.999 320.629 107.045C319.956 102.849 322.307 99.9608 326.127 99.348ZM326.454 102.248C325.082 102.468 324.168 103.304 324.238 104.948L329.188 104.154C328.901 102.71 327.772 102.036 326.454 102.248ZM343.654 115.601C342.363 115.809 340.396 115.931 338.229 115.837L338.293 111.937C340.415 112.093 341.808 112.007 342.75 111.856C344.794 111.528 345.574 110.713 345.224 108.534L345.095 107.727L345.041 107.736C344.47 108.821 343.353 109.938 341.254 110.275C338 110.797 335.045 109.064 334.355 104.76C333.66 100.429 335.96 97.7426 339.188 97.2247C341.206 96.9011 342.604 97.5321 343.587 98.6712L343.64 98.6625L343.368 96.9679L347.43 96.3162L349.424 108.743C350.023 112.648 347.958 114.911 343.654 115.601ZM341.846 106.566C343.487 106.302 344.543 104.974 344.258 103.199C343.973 101.423 342.554 100.492 340.913 100.756C339.3 101.014 338.243 102.343 338.528 104.118C338.813 105.893 340.232 106.825 341.846 106.566ZM352.996 88.8841L353.652 92.9727L349.294 93.6719L348.638 89.5833L352.996 88.8841ZM351.816 108.36L349.822 95.9324L353.884 95.2807L355.878 107.708L351.816 108.36ZM364.533 93.1858L365.185 97.2476L364.835 97.3037C362.118 97.7396 361.175 98.9118 361.685 102.086L362.418 106.659L358.357 107.31L356.363 94.8831L360.344 94.2443L360.749 96.7728L360.803 96.7642C361.201 94.6033 362.489 93.5138 364.453 93.1988L364.533 93.1858ZM368.102 105.747L366.108 93.3194L370.089 92.6807L370.383 94.5098L370.437 94.5012C370.916 93.0171 372.123 91.9406 373.952 91.6471C375.862 91.3407 377.353 92.0395 378.24 93.4422L378.294 93.4336C378.909 91.7622 380.246 90.6372 382.075 90.3437C384.657 89.9294 386.79 91.3532 387.273 94.3658L388.572 102.462L384.51 103.114L383.427 96.3625C383.177 94.8023 382.434 93.9558 381.008 94.1846C379.771 94.3831 378.923 95.2916 379.299 97.6318L380.287 103.792L376.387 104.417L375.304 97.6658C375.053 96.1057 374.311 95.2592 372.885 95.4879C371.648 95.6864 370.8 96.595 371.176 98.9352L372.164 105.095L368.102 105.747ZM396.186 101.655C392.958 102.173 389.933 100.34 389.234 95.9827C388.534 91.6251 390.835 88.9383 394.063 88.4204C396.08 88.0967 397.478 88.7277 398.461 89.8668L398.515 89.8582L398.243 88.1636L402.305 87.5119L404.299 99.9391L400.237 100.591L399.965 98.8962L399.911 98.9048C399.334 100.294 398.204 101.331 396.186 101.655ZM396.72 97.7613C398.361 97.4981 399.417 96.1698 399.132 94.3945C398.848 92.6191 397.429 91.6879 395.788 91.9512C394.174 92.2101 393.118 93.5384 393.403 95.3137C393.688 97.089 395.106 98.0203 396.72 97.7613Z" fill="#1C1B17"/>
</g>
</g>
</g>
<g filter="url(#filter2_d_29_10612)">
<g clip-path="url(#clip4_29_10612)">
<rect x="136.664" y="20.7273" width="135.365" height="92.8486" rx="3.12621" transform="rotate(-8.80788 136.664 20.7273)" fill="url(#paint4_linear_29_10612)"/>
<g clip-path="url(#clip5_29_10612)">
<rect x="142.016" y="24.6431" width="125.986" height="83.4699" rx="1.87573" transform="rotate(-8.80788 142.016 24.6431)" fill="url(#paint5_linear_29_10612)"/>
<path d="M176.651 26.3116C182.695 25.3753 186.438 27.4356 187.15 32.0284C187.637 35.1709 186.213 37.7017 183.258 38.861L183.27 38.9416C187.024 38.9375 189.4 40.9621 189.987 44.7492C190.805 50.0269 187.579 53.7034 181.214 54.6897C174.566 55.7198 170.413 53.1454 169.52 47.3842L175.886 46.3979C176.384 48.5484 177.929 49.4643 180.386 49.0835C182.844 48.7027 183.912 47.3408 183.562 45.0847C183.187 42.6674 181.606 42.0461 177.617 42.6641L176.691 42.8077L175.979 38.2148L176.906 38.0712C179.887 37.6093 181.067 36.4364 180.723 34.2205C180.449 32.4479 179.211 31.6495 177.277 31.9491C175.303 32.255 174.251 33.4495 174.473 35.1478L168.228 36.1154C167.45 30.8315 170.487 27.2668 176.651 26.3116ZM200.38 22.635C207.591 21.5175 212.413 26.0099 213.818 35.0747C215.222 44.1395 211.952 49.9268 204.781 51.038C197.65 52.143 192.741 47.6228 191.337 38.558C189.932 29.4932 193.208 23.7461 200.38 22.635ZM201.272 28.3961C198.17 28.8768 196.832 32.2196 197.662 37.5779C198.492 42.9362 200.786 45.7575 203.888 45.2768C207.031 44.7899 208.363 41.4068 207.533 36.0485C206.702 30.6902 204.415 27.9092 201.272 28.3961ZM221.575 19.3508C225.362 18.764 228.582 20.9054 229.212 24.9745C229.837 29.0033 227.416 32.0187 223.629 32.6055C219.801 33.1986 216.582 31.0571 215.958 27.0283C215.327 22.9592 217.748 19.9438 221.575 19.3508ZM223.546 47.5116L235.286 17.8451L238.428 17.3582L226.688 47.0247L223.546 47.5116ZM222.018 22.2112C219.923 22.5358 218.617 24.2234 218.979 26.5601C219.335 28.8565 221.097 30.11 223.192 29.7854C225.247 29.467 226.547 27.7391 226.191 25.4427C225.829 23.106 224.073 21.8928 222.018 22.2112ZM238.525 31.8239C242.312 31.2371 245.531 33.3785 246.156 37.4073C246.786 41.4764 244.366 44.4918 240.578 45.0787C236.791 45.6655 233.531 43.5302 232.901 39.4612C232.277 35.4323 234.738 32.4107 238.525 31.8239ZM238.962 34.644C236.907 34.9624 235.607 36.6903 235.963 38.9867C236.325 41.3234 238.081 42.5366 240.135 42.2182C242.19 41.8998 243.496 40.2122 243.134 37.8755C242.778 35.5791 241.016 34.3257 238.962 34.644Z" fill="#1C1B17"/>
<path d="M162.376 74.1381C164.098 74.1542 165.6 74.8573 165.982 77.3228C166.456 80.3833 164.25 81.8786 161.572 82.2936L155.196 83.2816L152.891 68.4039L159.055 67.4488C161.669 67.0437 163.817 67.8427 164.218 70.4356C164.485 72.1572 163.842 73.345 162.37 74.0955L162.376 74.1381ZM159.136 70.5049L156.65 70.8902L157.101 73.802L159.566 73.42C160.565 73.2652 161.16 72.6072 161.015 71.672C160.873 70.7581 160.093 70.3567 159.136 70.5049ZM160.619 79.3725C161.873 79.1782 162.662 78.5119 162.494 77.4279C162.326 76.344 161.436 75.9378 160.097 76.1453L157.526 76.5437L158.026 79.7743L160.619 79.3725ZM171.564 70.364C174.752 69.87 177.412 71.5906 177.9 74.7362C178.387 77.8817 176.372 80.3269 173.184 80.8209C170.017 81.3116 167.356 79.5909 166.869 76.4454C166.382 73.2998 168.397 70.8547 171.564 70.364ZM172.018 73.297C170.743 73.4946 169.861 74.5453 170.078 75.9481C170.296 77.3508 171.454 78.0854 172.729 77.8878C174.026 77.6869 174.886 76.6395 174.669 75.2367C174.452 73.834 173.315 73.0961 172.018 73.297ZM183.614 79.2047C182.318 79.4056 180.617 79.3861 179.014 78.8728L179.817 76.0496C180.976 76.5013 182.266 76.8237 183.477 76.6359C184.051 76.547 184.35 76.3701 184.301 76.0513C184.242 75.6687 183.849 75.6642 183.532 75.5828L181.705 75.1695C179.994 74.8034 179.06 73.9688 178.832 72.5023C178.52 70.4832 179.72 69.1001 182.547 68.6621C183.652 68.4909 184.872 68.4978 186.188 68.7073L185.697 71.4386C184.59 71.1749 183.46 71.0453 182.674 71.1671C182.036 71.2659 181.914 71.459 181.953 71.714C181.999 72.0116 182.274 72.0996 182.792 72.2151L184.592 72.5893C186.165 72.9114 187.18 73.5594 187.436 75.2172C187.799 77.5552 186.229 78.7996 183.614 79.2047ZM190.029 62.6494L191.014 69.0043L191.056 68.9977C191.575 67.8509 192.549 67.1123 193.951 66.895C196.119 66.5591 197.844 67.5759 198.279 70.3815L199.22 76.4601L196.011 76.9573L195.208 71.7714C194.98 70.3049 194.262 69.7415 193.093 69.9226C192.009 70.0906 191.3 70.8534 191.57 72.5962L192.334 77.5271L189.125 78.0244L186.82 63.1467L190.029 62.6494ZM202.005 60.7937L204.31 75.6714L201.101 76.1687L198.796 61.291L202.005 60.7937ZM210.441 75.0479C207.891 75.4431 205.51 73.9838 204.976 70.5406C204.443 67.0975 206.27 64.9862 208.821 64.591C210.415 64.344 211.516 64.8481 212.287 65.7515L212.33 65.7449L212.122 64.4059L215.332 63.9086L216.853 73.7279L213.644 74.2252L213.436 72.8862L213.394 72.8928C212.932 73.9872 212.035 74.8009 210.441 75.0479ZM210.879 71.9765C212.176 71.7756 213.015 70.7315 212.798 69.3287C212.581 67.926 211.465 67.1848 210.168 67.3857C208.893 67.5833 208.053 68.6274 208.271 70.0302C208.488 71.4329 209.604 72.1741 210.879 71.9765ZM223.549 62.3089C225.716 61.973 227.441 62.9899 227.876 65.7954L228.818 71.874L225.63 72.368L224.826 67.1821C224.599 65.7155 223.88 65.1522 222.69 65.3366C221.606 65.5046 220.897 66.2673 221.167 68.0101L221.931 72.941L218.722 73.4383L217.201 63.619L220.346 63.1316L220.577 64.6194L220.619 64.6128C221.121 63.3597 222.167 62.523 223.549 62.3089ZM236.698 75.3322C235.678 75.4903 234.125 75.5786 232.414 75.4954L232.481 72.4163C234.156 72.5486 235.256 72.4869 236 72.3716C237.615 72.1213 238.235 71.4813 237.968 69.7597L237.869 69.1221L237.826 69.1287C237.371 69.9828 236.484 70.8602 234.826 71.1171C232.255 71.5156 229.93 70.1347 229.403 66.7341C228.872 63.3122 230.7 61.2008 233.25 60.8056C234.844 60.5586 235.946 61.0627 236.717 61.9662L236.759 61.9596L236.552 60.6206L239.761 60.1233L241.283 69.9426C241.739 73.0277 240.099 74.8053 236.698 75.3322ZM235.309 68.1912C236.605 67.9903 237.445 66.9462 237.227 65.5434C237.01 64.1406 235.894 63.3995 234.598 63.6004C233.322 63.798 232.483 64.8421 232.7 66.2449C232.918 67.6476 234.034 68.3888 235.309 68.1912ZM240.245 54.5419L243.221 54.0809L243.682 57.0564L242.432 60.6454L241.284 60.8232L241.897 57.3331L240.706 57.5175L240.245 54.5419ZM248.109 53.6716L248.61 56.9022L245.167 57.4357L244.666 54.2052L248.109 53.6716ZM247.096 69.0419L245.574 59.2226L248.783 58.7253L250.305 68.5446L247.096 69.0419ZM257.244 67.7959C254.098 68.2833 251.462 66.5806 250.971 63.4138C250.481 60.247 252.478 57.8264 255.623 57.339C257.005 57.1249 258.163 57.2937 259.321 57.7454L258.402 60.5213C257.747 60.231 257.098 60.1139 256.227 60.249C254.951 60.4466 253.953 61.45 254.181 62.9165C254.408 64.383 255.663 65.0374 256.938 64.8398C257.809 64.7048 258.393 64.3967 258.929 63.922L260.645 66.2895C259.678 67.0705 258.625 67.5818 257.244 67.7959ZM262.778 51.377L263.762 57.7319L263.805 57.7253C264.324 56.5785 265.297 55.84 266.7 55.6226C268.868 55.2867 270.593 56.3036 271.027 59.1091L271.969 65.1877L268.76 65.685L267.956 60.499C267.729 59.0325 267.011 58.4692 265.842 58.6503C264.758 58.8182 264.049 59.581 264.319 61.3238L265.083 66.2547L261.874 66.752L259.568 51.8743L262.778 51.377Z" fill="#1C1B17"/>
<path d="M197.102 87.4841L195.083 87.7969L195.541 90.7512C195.683 91.6651 195.962 91.9265 196.791 91.798L197.153 91.742L197.614 94.7176L196.275 94.9251C194.277 95.2346 192.832 94.4791 192.467 92.1199L191.874 88.2942L189.961 88.5906L189.546 85.9126L191.459 85.6162L190.85 81.6843L194.059 81.187L194.668 85.1189L196.687 84.8061L197.102 87.4841ZM202.603 83.5629C205.792 83.0689 208.452 84.7895 208.94 87.9351C209.427 91.0807 207.412 93.5258 204.224 94.0198C201.057 94.5105 198.396 92.7899 197.909 89.6443C197.421 86.4988 199.437 84.0536 202.603 83.5629ZM203.058 86.4959C201.783 86.6935 200.901 87.7443 201.118 89.147C201.336 90.5498 202.494 91.2844 203.769 91.0868C205.066 90.8859 205.926 89.8385 205.709 88.4357C205.492 87.0329 204.354 86.2951 203.058 86.4959ZM207.793 77.5789L210.769 77.1178L211.23 80.0934L209.98 83.6823L208.832 83.8601L209.445 80.37L208.254 80.5544L207.793 77.5789ZM215.548 76.7038L217.853 91.5815L214.644 92.0788L212.338 77.2011L215.548 76.7038ZM223.214 80.3693C226.402 79.8754 229.063 81.596 229.55 84.7416C230.037 87.8871 228.022 90.3323 224.834 90.8263C221.667 91.317 219.007 89.5963 218.519 86.4508C218.032 83.3052 220.047 80.86 223.214 80.3693ZM223.668 83.3024C222.393 83.5 221.511 84.5507 221.729 85.9535C221.946 87.3562 223.105 88.0908 224.38 87.8932C225.676 87.6923 226.537 86.6449 226.319 85.2421C226.102 83.8394 224.965 83.1015 223.668 83.3024ZM236.427 78.6484L239.977 78.0984L237.417 88.55L234.208 89.0473L228.606 79.8603L232.155 79.3104L235.246 85.2084L236.427 78.6484Z" fill="#1C1B17"/>
</g>
</g>
</g>
<defs>
<filter id="filter0_d_29_10612" x="374.962" y="62.0422" width="175.779" height="152.164" filterUnits="userSpaceOnUse" color-interpolation-filters="sRGB">
<feFlood flood-opacity="0" result="BackgroundImageFix"/>
<feColorMatrix in="SourceAlpha" type="matrix" values="0 0 0 0 0 0 0 0 0 0 0 0 0 0 0 0 0 0 127 0" result="hardAlpha"/>
<feOffset dx="14.1005" dy="19.7407"/>
<feGaussianBlur stdDeviation="2.82011"/>
<feComposite in2="hardAlpha" operator="out"/>
<feColorMatrix type="matrix" values="0 0 0 0 0.0784314 0 0 0 0 0.0784314 0 0 0 0 0.0784314 0 0 0 0.25 0"/>
<feBlend mode="normal" in2="BackgroundImageFix" result="effect1_dropShadow_29_10612"/>
<feBlend mode="normal" in="SourceGraphic" in2="effect1_dropShadow_29_10612" result="shape"/>
</filter>
<filter id="filter1_d_29_10612" x="267.798" y="22.561" width="170.926" height="134.271" filterUnits="userSpaceOnUse" color-interpolation-filters="sRGB">
<feFlood flood-opacity="0" result="BackgroundImageFix"/>
<feColorMatrix in="SourceAlpha" type="matrix" values="0 0 0 0 0 0 0 0 0 0 0 0 0 0 0 0 0 0 127 0" result="hardAlpha"/>
<feOffset dx="12.6905" dy="11.2804"/>
<feGaussianBlur stdDeviation="4.93519"/>
<feComposite in2="hardAlpha" operator="out"/>
<feColorMatrix type="matrix" values="0 0 0 0 0.0784314 0 0 0 0 0.0784314 0 0 0 0 0.0784314 0 0 0 0.25 0"/>
<feBlend mode="normal" in2="BackgroundImageFix" result="effect1_dropShadow_29_10612"/>
<feBlend mode="normal" in="SourceGraphic" in2="effect1_dropShadow_29_10612" result="shape"/>
</filter>
<filter id="filter2_d_29_10612" x="136.664" y="0" width="171.957" height="140.682" filterUnits="userSpaceOnUse" color-interpolation-filters="sRGB">
<feFlood flood-opacity="0" result="BackgroundImageFix"/>
<feColorMatrix in="SourceAlpha" type="matrix" values="0 0 0 0 0 0 0 0 0 0 0 0 0 0 0 0 0 0 127 0" result="hardAlpha"/>
<feOffset dx="15.5106" dy="19.7407"/>
<feGaussianBlur stdDeviation="4.23016"/>
<feComposite in2="hardAlpha" operator="out"/>
<feColorMatrix type="matrix" values="0 0 0 0 0 0 0 0 0 0 0 0 0 0 0 0 0 0 0.25 0"/>
<feBlend mode="normal" in2="BackgroundImageFix" result="effect1_dropShadow_29_10612"/>
<feBlend mode="normal" in="SourceGraphic" in2="effect1_dropShadow_29_10612" result="shape"/>
</filter>
<linearGradient id="paint0_linear_29_10612" x1="531.579" y1="134.515" x2="461.957" y2="70.1311" gradientUnits="userSpaceOnUse">
<stop stop-color="#EFBF04"/>
<stop offset="1" stop-color="#FFF59E"/>
</linearGradient>
<linearGradient id="paint1_linear_29_10612" x1="399.207" y1="86.3234" x2="506.399" y2="130.679" gradientUnits="userSpaceOnUse">
<stop stop-color="#EFBF04"/>
<stop offset="1" stop-color="#FFF59E"/>
</linearGradient>
<linearGradient id="paint2_linear_29_10612" x1="398.523" y1="116.311" x2="329.062" y2="52.0756" gradientUnits="userSpaceOnUse">
<stop stop-color="#EFBF04"/>
<stop offset="1" stop-color="#FFF59E"/>
</linearGradient>
<linearGradient id="paint3_linear_29_10612" x1="268.611" y1="66.3198" x2="375.555" y2="110.573" gradientUnits="userSpaceOnUse">
<stop stop-color="#EFBF04"/>
<stop offset="1" stop-color="#FFF59E"/>
</linearGradient>
<linearGradient id="paint4_linear_29_10612" x1="267.388" y1="93.0327" x2="197.927" y2="28.7975" gradientUnits="userSpaceOnUse">
<stop stop-color="#EFBF04"/>
<stop offset="1" stop-color="#FFF59E"/>
</linearGradient>
<linearGradient id="paint5_linear_29_10612" x1="137.455" y1="43.0703" x2="244.399" y2="87.3237" gradientUnits="userSpaceOnUse">
<stop stop-color="#EFBF04"/>
<stop offset="1" stop-color="#FFF59E"/>
</linearGradient>
<clipPath id="clip0_29_10612">
<rect x="400.552" y="62.0422" width="135.678" height="93.0635" rx="3.13345" transform="rotate(15.9599 400.552 62.0422)" fill="white"/>
</clipPath>
<clipPath id="clip1_29_10612">
<rect x="403.778" y="67.8535" width="126.278" height="83.6631" rx="1.88007" transform="rotate(15.9599 403.778 67.8535)" fill="white"/>
</clipPath>
<clipPath id="clip2_29_10612">
<rect x="267.798" y="44.0054" width="135.365" height="92.8486" rx="3.12621" transform="rotate(-9.1151 267.798 44.0054)" fill="white"/>
</clipPath>
<clipPath id="clip3_29_10612">
<rect x="273.171" y="47.8926" width="125.986" height="83.4699" rx="1.87573" transform="rotate(-9.1151 273.171 47.8926)" fill="white"/>
</clipPath>
<clipPath id="clip4_29_10612">
<rect x="136.664" y="20.7273" width="135.365" height="92.8486" rx="3.12621" transform="rotate(-8.80788 136.664 20.7273)" fill="white"/>
</clipPath>
<clipPath id="clip5_29_10612">
<rect x="142.016" y="24.6431" width="125.986" height="83.4699" rx="1.87573" transform="rotate(-8.80788 142.016 24.6431)" fill="white"/>
</clipPath>
</defs>
</svg>
