<svg width="63" height="73" viewBox="0 0 63 73" fill="none" xmlns="http://www.w3.org/2000/svg">
<path d="M0 9.23413C0 4.27007 4.03594 0.234131 9 0.234131H54C58.9641 0.234131 63 4.27007 63 9.23413V63.2341C63 68.1982 58.9641 72.2341 54 72.2341H9C4.03594 72.2341 0 68.1982 0 63.2341V9.23413ZM25.7344 39.4404C21.8109 37.5841 18.9281 33.8998 18.1828 29.4841H23.6812C23.9062 33.7591 24.7641 37.0498 25.7344 39.4404ZM31.5422 40.7341H31.5H31.4578C31.1203 40.2419 30.6562 39.4826 30.1781 38.4138C29.3344 36.5013 28.4344 33.5904 28.1812 29.4841H34.8047C34.5516 33.5904 33.6656 36.5013 32.8078 38.4138C32.3297 39.4826 31.8656 40.2419 31.5281 40.7341H31.5422ZM37.2656 39.4404C38.2219 37.0357 39.0797 33.7591 39.3188 29.4841H44.8172C44.0719 33.8998 41.1891 37.5841 37.2656 39.4404ZM39.3188 24.9841C39.0938 20.7091 38.2359 17.4185 37.2656 15.0279C41.1891 16.8841 44.0719 20.5685 44.8172 24.9841H39.3188ZM31.4578 13.7341H31.5H31.5422C31.8797 14.2263 32.3438 14.9857 32.8219 16.0544C33.6656 17.9669 34.5656 20.8779 34.8188 24.9841H28.1953C28.4484 20.8779 29.3344 17.9669 30.1922 16.0544C30.6703 14.9857 31.1344 14.2263 31.4719 13.7341H31.4578ZM25.7344 15.0279C24.7781 17.4326 23.9203 20.7091 23.6812 24.9841H18.1828C18.9281 20.5685 21.8109 16.8841 25.7344 15.0279ZM49.5 27.2341C49.5 22.4602 47.6036 17.8819 44.2279 14.5062C40.8523 11.1306 36.2739 9.23413 31.5 9.23413C26.7261 9.23413 22.1477 11.1306 18.7721 14.5062C15.3964 17.8819 13.5 22.4602 13.5 27.2341C13.5 32.008 15.3964 36.5864 18.7721 39.9621C22.1477 43.3377 26.7261 45.2341 31.5 45.2341C36.2739 45.2341 40.8523 43.3377 44.2279 39.9621C47.6036 36.5864 49.5 32.008 49.5 27.2341ZM15.75 54.2341C14.5125 54.2341 13.5 55.2466 13.5 56.4841C13.5 57.7216 14.5125 58.7341 15.75 58.7341H47.25C48.4875 58.7341 49.5 57.7216 49.5 56.4841C49.5 55.2466 48.4875 54.2341 47.25 54.2341H15.75Z" fill="white"/>
</svg>
