<svg width="72" height="72" viewBox="0 0 72 72" fill="none" xmlns="http://www.w3.org/2000/svg">
<rect width="72" height="72" rx="36" fill="white"/>
<path d="M29.2116 17.8972C30.4632 17.8972 31.4744 18.9084 31.4744 20.1601V22.4229H40.5259V20.1601C40.5259 18.9084 41.5371 17.8972 42.7887 17.8972C44.0404 17.8972 45.0516 18.9084 45.0516 20.1601V22.4229H48.4459C50.3198 22.4229 51.8402 23.9433 51.8402 25.8172V29.2115H20.1602V25.8172C20.1602 23.9433 21.6805 22.4229 23.5544 22.4229H26.9487V20.1601C26.9487 18.9084 27.9599 17.8972 29.2116 17.8972ZM20.1602 31.4744H51.8402V50.7086C51.8402 52.5826 50.3198 54.1029 48.4459 54.1029H23.5544C21.6805 54.1029 20.1602 52.5826 20.1602 50.7086V31.4744ZM24.6859 37.1315V39.3944C24.6859 40.0166 25.195 40.5258 25.8173 40.5258H28.0802C28.7024 40.5258 29.2116 40.0166 29.2116 39.3944V37.1315C29.2116 36.5092 28.7024 36.0001 28.0802 36.0001H25.8173C25.195 36.0001 24.6859 36.5092 24.6859 37.1315ZM33.7373 37.1315V39.3944C33.7373 40.0166 34.2464 40.5258 34.8687 40.5258H37.1316C37.7539 40.5258 38.263 40.0166 38.263 39.3944V37.1315C38.263 36.5092 37.7539 36.0001 37.1316 36.0001H34.8687C34.2464 36.0001 33.7373 36.5092 33.7373 37.1315ZM43.9202 36.0001C43.2979 36.0001 42.7887 36.5092 42.7887 37.1315V39.3944C42.7887 40.0166 43.2979 40.5258 43.9202 40.5258H46.183C46.8053 40.5258 47.3144 40.0166 47.3144 39.3944V37.1315C47.3144 36.5092 46.8053 36.0001 46.183 36.0001H43.9202ZM24.6859 46.1829V48.4458C24.6859 49.0681 25.195 49.5772 25.8173 49.5772H28.0802C28.7024 49.5772 29.2116 49.0681 29.2116 48.4458V46.1829C29.2116 45.5606 28.7024 45.0515 28.0802 45.0515H25.8173C25.195 45.0515 24.6859 45.5606 24.6859 46.1829ZM34.8687 45.0515C34.2464 45.0515 33.7373 45.5606 33.7373 46.1829V48.4458C33.7373 49.0681 34.2464 49.5772 34.8687 49.5772H37.1316C37.7539 49.5772 38.263 49.0681 38.263 48.4458V46.1829C38.263 45.5606 37.7539 45.0515 37.1316 45.0515H34.8687ZM42.7887 46.1829V48.4458C42.7887 49.0681 43.2979 49.5772 43.9202 49.5772H46.183C46.8053 49.5772 47.3144 49.0681 47.3144 48.4458V46.1829C47.3144 45.5606 46.8053 45.0515 46.183 45.0515H43.9202C43.2979 45.0515 42.7887 45.5606 42.7887 46.1829Z" fill="#054F3E"/>
</svg>
