<svg width="72" height="72" viewBox="0 0 72 72" fill="none" xmlns="http://www.w3.org/2000/svg">
<rect width="72" height="72" rx="36" fill="white"/>
<path d="M22.2112 38.5523C22.2171 38.6692 22.1991 38.7861 22.1583 38.8959C22.1175 39.0057 22.0549 39.1061 21.9741 39.1909C21.8933 39.2757 21.7962 39.3432 21.6885 39.3892C21.5808 39.4353 21.4649 39.459 21.3478 39.4588H11.8245C11.4348 39.4594 11.0563 39.3281 10.7506 39.0863C10.4449 38.8445 10.23 38.5064 10.1409 38.127C10.0854 37.8673 10.0879 37.5986 10.1484 37.34C10.2088 37.0814 10.3257 36.8394 10.4906 36.6312C12.0141 34.6108 14.0355 33.02 16.3574 32.0142C15.338 31.0847 14.5561 29.9245 14.0773 28.6308C13.5985 27.3371 13.4366 25.9474 13.6053 24.5782C13.774 23.2091 14.2683 21.9003 15.0468 20.7614C15.8253 19.6226 16.8654 18.6869 18.0799 18.0327C19.2944 17.3785 20.648 17.0248 22.0273 17.0013C23.4066 16.9777 24.7715 17.2851 26.0076 17.8975C27.2437 18.5099 28.3151 19.4097 29.132 20.5213C29.9489 21.6329 30.4875 22.9241 30.7027 24.2867C30.7305 24.47 30.6977 24.6573 30.6093 24.8201C30.5208 24.983 30.3816 25.1125 30.2128 25.189C27.8177 26.2963 25.7893 28.0655 24.3669 30.288C22.9446 32.5104 22.1876 35.0934 22.1853 37.732C22.1853 38.0083 22.1853 38.2803 22.2112 38.5523ZM61.4959 36.629C59.9759 34.611 57.9591 33.0211 55.642 32.0142C56.6614 31.0847 57.4433 29.9245 57.9221 28.6308C58.4009 27.3371 58.5628 25.9474 58.3941 24.5782C58.2254 23.2091 57.7311 21.9003 56.9526 20.7614C56.1741 19.6226 55.134 18.6869 53.9195 18.0327C52.705 17.3785 51.3514 17.0248 49.9721 17.0013C48.5928 16.9777 47.2279 17.2851 45.9918 17.8975C44.7557 18.5099 43.6843 19.4097 42.8674 20.5213C42.0505 21.6329 41.5119 22.9241 41.2966 24.2867C41.2688 24.47 41.3017 24.6573 41.3901 24.8201C41.4786 24.983 41.6178 25.1125 41.7866 25.189C44.1817 26.2963 46.2101 28.0655 47.6325 30.288C49.0548 32.5104 49.8118 35.0934 49.8141 37.732C49.8141 38.0083 49.8141 38.2803 49.7882 38.5523C49.7823 38.6692 49.8003 38.7861 49.8411 38.8959C49.8818 39.0057 49.9445 39.1061 50.0253 39.1909C50.106 39.2757 50.2032 39.3432 50.3109 39.3892C50.4185 39.4353 50.5345 39.459 50.6516 39.4588H60.1749C60.5646 39.4594 60.9431 39.3281 61.2488 39.0863C61.5544 38.8445 61.7693 38.5064 61.8585 38.127C61.9143 37.8669 61.9118 37.5975 61.8509 37.3385C61.7901 37.0794 61.6725 36.8371 61.5067 36.629H61.4959ZM42.2852 45.9494C44.0046 44.6327 45.2681 42.8102 45.8982 40.7383C46.5283 38.6663 46.4933 36.449 45.7982 34.398C45.103 32.3469 43.7826 30.5653 42.0226 29.3034C40.2625 28.0416 38.1513 27.363 35.9857 27.363C33.82 27.363 31.7088 28.0416 29.9488 29.3034C28.1887 30.5653 26.8683 32.3469 26.1732 34.398C25.478 36.449 25.443 38.6663 26.0731 40.7383C26.7032 42.8102 27.9667 44.6327 29.6861 45.9494C26.6351 47.2713 24.0875 49.5353 22.4163 52.4098C22.2647 52.6723 22.1849 52.9701 22.1849 53.2733C22.1849 53.5764 22.2648 53.8743 22.4164 54.1368C22.568 54.3993 22.786 54.6173 23.0486 54.7688C23.3111 54.9203 23.609 55.0001 23.9121 55H48.0873C48.3904 55.0001 48.6883 54.9203 48.9508 54.7688C49.2134 54.6173 49.4314 54.3993 49.583 54.1368C49.7346 53.8743 49.8144 53.5764 49.8145 53.2733C49.8145 52.9701 49.7347 52.6723 49.5831 52.4098C47.9083 49.5334 45.3559 47.2693 42.3003 45.9494H42.2852Z" fill="#054F3E"/>
</svg>
