<svg width="30" height="31" viewBox="0 0 30 31" fill="none" xmlns="http://www.w3.org/2000/svg">
<path d="M9.66168 2.00883C9.21053 0.91903 8.02113 0.338978 6.88446 0.649511L1.72844 2.0557C0.708953 2.33694 0 3.26268 0 4.31732C0 18.8128 11.7534 30.5662 26.2488 30.5662C27.3035 30.5662 28.2292 29.8572 28.5105 28.8377L29.9167 23.6817C30.2272 22.545 29.6471 21.3556 28.5573 20.9045L22.9326 18.5608C21.9775 18.1624 20.8702 18.4378 20.2198 19.2405L17.8527 22.129C13.7279 20.1779 10.3882 16.8383 8.43713 12.7134L11.3257 10.3522C12.1284 9.69599 12.4038 8.59447 12.0053 7.63944L9.66168 2.01469V2.00883Z" fill="white"/>
</svg>
