<svg width="72" height="72" viewBox="0 0 72 72" fill="none" xmlns="http://www.w3.org/2000/svg">
<rect width="72" height="72" rx="36" fill="white"/>
<path d="M55.6432 30.0088C55.5095 29.8549 55.3448 29.7314 55.16 29.6467C54.9753 29.5619 54.7748 29.5179 54.5718 29.5174H46.6485L37.0717 18.4876C36.9376 18.3343 36.7727 18.2116 36.588 18.1275C36.4033 18.0435 36.2029 18 36.0002 18C35.7975 18 35.5972 18.0435 35.4125 18.1275C35.2277 18.2116 35.0629 18.3343 34.9288 18.4876L25.3519 29.5174H17.4287C17.2251 29.5174 17.0238 29.5612 16.8384 29.646C16.653 29.7308 16.4877 29.8546 16.3536 30.009C16.2195 30.1634 16.1197 30.345 16.0609 30.5415C16.0021 30.738 15.9856 30.9449 16.0126 31.1483L18.7037 51.5013C18.7976 52.1921 19.1359 52.8254 19.6563 53.2845C20.1768 53.7437 20.8443 53.9978 21.5358 54H50.4646C51.1562 53.9978 51.8237 53.7437 52.3441 53.2845C52.8646 52.8254 53.2029 52.1921 53.2968 51.5013L55.9879 31.1483C56.0144 30.9446 55.9973 30.7375 55.9379 30.541C55.8785 30.3444 55.778 30.163 55.6432 30.0088ZM27.7145 48.2394C27.6663 48.2421 27.618 48.2421 27.5698 48.2394C27.2144 48.2412 26.8711 48.1094 26.607 47.8697C26.3428 47.63 26.1768 47.2997 26.1412 46.9432L25.1412 36.8622C25.1033 36.4821 25.2168 36.1025 25.4565 35.8067C25.6963 35.511 26.0428 35.3234 26.4198 35.2852C26.7968 35.247 27.1734 35.3613 27.4668 35.6031C27.7601 35.8448 27.9462 36.1941 27.9841 36.5741L28.9841 46.6552C29.0241 47.035 28.9128 47.4153 28.6747 47.7124C28.4366 48.0095 28.0912 48.199 27.7145 48.2394ZM37.4288 46.7992C37.4288 47.1812 37.2783 47.5475 37.0104 47.8176C36.7425 48.0877 36.3791 48.2394 36.0002 48.2394C35.6213 48.2394 35.258 48.0877 34.9901 47.8176C34.7222 47.5475 34.5716 47.1812 34.5716 46.7992V36.7181C34.5716 36.3362 34.7222 35.9699 34.9901 35.6998C35.258 35.4297 35.6213 35.278 36.0002 35.278C36.3791 35.278 36.7425 35.4297 37.0104 35.6998C37.2783 35.9699 37.4288 36.3362 37.4288 36.7181V46.7992ZM29.1484 29.5174L36.0002 21.6235L42.8521 29.5174H29.1484ZM46.8503 36.8622L45.8503 46.9432C45.8149 47.2982 45.6501 47.6272 45.3878 47.8667C45.1256 48.1061 44.7845 48.2389 44.4306 48.2394C44.3825 48.2421 44.3342 48.2421 44.286 48.2394C44.0993 48.2205 43.9182 48.1647 43.7529 48.0752C43.5876 47.9857 43.4415 47.8643 43.3227 47.7178C43.204 47.5714 43.115 47.4028 43.0609 47.2217C43.0068 47.0407 42.9887 46.8506 43.0074 46.6624L44.0074 36.5813C44.0453 36.2013 44.2314 35.852 44.5248 35.6103C44.8181 35.3685 45.1947 35.2542 45.5717 35.2924C45.9487 35.3306 46.2952 35.5182 46.535 35.8139C46.7748 36.1097 46.8882 36.4893 46.8503 36.8694V36.8622Z" fill="#054F3E"/>
</svg>
