<svg width="50" height="51" viewBox="0 0 50 51" fill="none" xmlns="http://www.w3.org/2000/svg">
<path d="M25 0.566162C11.1895 0.566162 0 11.7557 0 25.5662C0 39.3766 11.1895 50.5662 25 50.5662C38.8105 50.5662 50 39.3766 50 25.5662C50 11.7557 38.8105 0.566162 25 0.566162ZM36.5927 17.5722C36.2198 21.5238 34.5867 31.1206 33.7601 35.546C33.4073 37.421 32.7218 38.046 32.0565 38.1065C30.6048 38.2375 29.5061 37.1488 28.0948 36.2214C25.8972 34.7799 24.6472 33.8827 22.5202 32.4714C20.0504 30.8484 21.6532 29.9512 23.0544 28.4895C23.4274 28.1065 29.8185 22.29 29.9395 21.7658C29.9597 21.6952 29.9698 21.4533 29.8185 21.3222C29.6673 21.1912 29.4556 21.2416 29.3044 21.2718C29.0827 21.3188 25.5679 23.6408 18.7601 28.2375C17.7655 28.923 16.8616 29.2557 16.0484 29.2355C15.1512 29.2154 13.4375 28.7315 12.1573 28.3182C10.5948 27.8141 9.34476 27.542 9.45565 26.675C9.50941 26.2248 10.131 25.7644 11.3206 25.294C18.6055 22.1219 23.4644 20.0285 25.8972 19.0137C32.8427 16.1307 34.2843 15.6266 35.2218 15.6065C35.4335 15.6065 35.8871 15.6569 36.1895 15.8988C36.3869 16.0723 36.5127 16.3131 36.5423 16.5742C36.5969 16.9039 36.6138 17.2387 36.5927 17.5722Z" fill="white"/>
</svg>
